<svg width="24" height="24" viewBox="0 0 24 24" fill="none" xmlns="http://www.w3.org/2000/svg">
<path d="M12 21C16.9706 21 21 16.9706 21 12C21 7.02944 16.9706 3 12 3C7.02944 3 3 7.02944 3 12C3 16.9706 7.02944 21 12 21Z" fill="#D4EAFB"/>
<path d="M13.5924 11.4147L14.6363 9.67011L17.4502 13.9864L17.4515 14.8148L17.4424 9.11469C17.4357 8.97535 17.3605 8.8479 17.2407 8.77272L12.1747 5.90278C12.0562 5.8454 11.9059 5.84606 11.7876 5.9046C11.7716 5.91244 11.7565 5.92104 11.7423 5.93041L11.7246 5.94134L6.80721 8.74775L6.78815 8.75628C6.76361 8.76739 6.73878 8.78152 6.71553 8.79792C6.62228 8.86376 6.56038 8.96114 6.54035 9.07037C6.53734 9.08692 6.53511 9.10376 6.53409 9.1208L6.54182 13.7658L9.1628 9.76495C9.49281 9.23445 10.2117 9.06356 10.8792 9.07285L11.6625 9.09321L7.04698 16.3831L7.59106 16.6916L12.2618 9.10062L14.3263 9.09324L9.66761 16.8757L11.609 17.9755L11.841 18.1069C11.9391 18.1461 12.0548 18.1481 12.1537 18.1129L17.2909 15.1809L16.3088 15.7414L13.5924 11.4147ZM13.9906 17.0645L12.0298 14.0336L13.2268 12.0332L15.802 16.0307L13.9906 17.0645Z" fill="#2D374B"/>
<path d="M12.0298 14.0335L13.9906 17.0645L15.802 16.0307L13.2268 12.0331L12.0298 14.0335Z" fill="#28A0F0"/>
<path d="M17.4515 14.8148L17.4502 13.9864L14.6363 9.67008L13.5924 11.4147L16.3088 15.7414L17.2909 15.1809C17.3873 15.1038 17.4456 14.9907 17.4517 14.8687L17.4515 14.8148Z" fill="#28A0F0"/>
<path d="M5.66003 15.596L7.04699 16.3831L11.6625 9.09324L10.8792 9.07288C10.2117 9.0636 9.49276 9.23448 9.16277 9.76498L6.54179 13.7659L5.66003 15.1002V15.596V15.596Z" fill="white"/>
<path d="M14.3264 9.09324L12.2618 9.10062L7.59106 16.6916L9.22365 17.6173L9.66762 16.8757L14.3264 9.09324Z" fill="white"/>
<path d="M18.3215 9.08277C18.3042 8.65755 18.0705 8.26829 17.7043 8.04167L12.5718 5.13482C12.2096 4.9552 11.7571 4.95496 11.3943 5.1347C11.3514 5.15601 6.4031 7.98235 6.4031 7.98235C6.33461 8.0147 6.26864 8.05323 6.2066 8.09697C5.87972 8.32769 5.68047 8.68624 5.66 9.08015V15.1002L6.54176 13.7659L6.53406 9.12084C6.53509 9.10385 6.53726 9.08713 6.54033 9.07063C6.56027 8.96134 6.62223 8.86385 6.71551 8.79796C6.73879 8.78155 11.7716 5.91248 11.7876 5.9046C11.9059 5.84609 12.0562 5.8454 12.1747 5.90279L17.2407 8.77267C17.3606 8.84784 17.4357 8.9753 17.4424 9.11464V14.8687C17.4362 14.9907 17.3873 15.1038 17.2909 15.1809L16.3088 15.7414L15.802 16.0306L13.9906 17.0645L12.1537 18.1129C12.0548 18.1481 11.9391 18.1461 11.841 18.1068L9.66759 16.8757L9.22362 17.6173L11.1768 18.7248C11.2413 18.761 11.2989 18.793 11.3461 18.8191C11.4192 18.8595 11.4691 18.8865 11.4867 18.8949C11.6255 18.9614 11.8252 19 12.0052 19C12.1702 19 12.3311 18.9702 12.4834 18.9114L17.8189 15.8683C18.1251 15.6346 18.3053 15.2822 18.3215 14.9004V9.08277Z" fill="#96BEDC"/>
</svg>
