<svg width="24" height="24" viewBox="0 0 24 24" fill="none" xmlns="http://www.w3.org/2000/svg">
<path d="M14.1988 11.2475L15.541 9.00442L19.1588 14.554L19.1605 15.6191L19.1488 8.29031C19.1402 8.11117 19.0436 7.94729 18.8895 7.85064L12.376 4.16072C12.2237 4.08694 12.0304 4.08779 11.8783 4.16305C11.8578 4.17314 11.8384 4.18419 11.8201 4.19624L11.7973 4.21029L5.475 7.81853L5.45049 7.8295C5.41894 7.84378 5.38702 7.86195 5.35713 7.88304C5.23723 7.96768 5.15765 8.09289 5.1319 8.23333C5.12802 8.25461 5.12516 8.27626 5.12384 8.29817L5.13378 14.2704L8.50361 9.12636C8.92791 8.44429 9.85226 8.22458 10.7104 8.23652L11.7175 8.26269L5.78327 17.6354L6.4828 18.032L12.4881 8.27222L15.1425 8.26273L9.15265 18.2688L11.6488 19.6828L11.947 19.8517C12.0731 19.9022 12.2219 19.9047 12.3491 19.8595L18.9541 16.0897L17.6913 16.8104L14.1988 11.2475ZM14.7108 18.5115L12.1897 14.6146L13.7287 12.0426L17.0397 17.1823L14.7108 18.5115Z" fill="#2D374B"/>
<path d="M12.1898 14.6145L14.7108 18.5115L17.0398 17.1823L13.7287 12.0426L12.1898 14.6145Z" fill="#28A0F0"/>
<path d="M19.1605 15.619L19.1588 14.554L15.5409 9.00439L14.1987 11.2475L17.6912 16.8103L18.954 16.0897C19.0779 15.9906 19.1528 15.8452 19.1607 15.6883L19.1605 15.619Z" fill="#28A0F0"/>
<path d="M4.00003 16.6234L5.78326 17.6354L11.7175 8.26273L10.7103 8.23656C9.8522 8.22462 8.92782 8.44433 8.50355 9.1264L5.13372 14.2704L4.00003 15.9859V16.6234V16.6234Z" fill="white"/>
<path d="M15.1424 8.26273L12.4881 8.27222L6.48279 18.032L8.58182 19.2222L9.15264 18.2688L15.1424 8.26273Z" fill="white"/>
<path d="M20.2791 8.24928C20.2569 7.70257 19.9563 7.20209 19.4855 6.91071L12.8867 3.17334C12.4209 2.94239 11.8392 2.9421 11.3726 3.17319C11.3175 3.20059 4.9554 6.83445 4.9554 6.83445C4.86735 6.87605 4.78254 6.92558 4.70277 6.98182C4.28249 7.27846 4.02631 7.73946 4 8.24591V15.9859L5.13369 14.2704L5.12379 8.29822C5.12511 8.27638 5.1279 8.25488 5.13185 8.23367C5.15748 8.09316 5.23714 7.9678 5.35708 7.88309C5.38701 7.86199 11.8578 4.17318 11.8783 4.16306C12.0304 4.08784 12.2237 4.08695 12.376 4.16073L18.8895 7.85057C19.0436 7.94723 19.1402 8.1111 19.1488 8.29025V15.6883C19.1409 15.8452 19.0779 15.9906 18.9541 16.0897L17.6913 16.8103L17.0397 17.1822L14.7108 18.5115L12.349 19.8594C12.2218 19.9047 12.0731 19.9021 11.947 19.8516L9.15261 18.2688L8.58179 19.2222L11.093 20.6462C11.176 20.6927 11.25 20.7339 11.3107 20.7675C11.4047 20.8194 11.4688 20.8541 11.4914 20.8649C11.6699 20.9503 11.9267 21 12.1581 21C12.3703 21 12.5772 20.9616 12.7729 20.8861L19.6329 16.9735C20.0266 16.6731 20.2582 16.22 20.2791 15.7291V8.24928Z" fill="#96BEDC"/>
</svg>
