<svg width="24" height="24" viewBox="0 0 24 24" fill="none" xmlns="http://www.w3.org/2000/svg">
<path d="M12 21C16.9706 21 21 16.9706 21 12C21 7.02944 16.9706 3 12 3C7.02944 3 3 7.02944 3 12C3 16.9706 7.02944 21 12 21Z" fill="#FBDBDC"/>
<path d="M12 19C15.866 19 19 15.866 19 12C19 8.13401 15.866 5 12 5C8.13401 5 5 8.13401 5 12C5 15.866 8.13401 19 12 19Z" fill="#E84142"/>
<path d="M14.4693 12.1819C14.7118 11.763 15.1031 11.763 15.3457 12.1819L16.8559 14.8331C17.0984 15.252 16.9 15.5937 16.415 15.5937H13.3724C12.8929 15.5937 12.6945 15.252 12.9315 14.8331L14.4693 12.1819ZM11.548 7.07795C11.7906 6.65905 12.1764 6.65905 12.4189 7.07795L12.7551 7.68425L13.5488 9.07874C13.7417 9.47559 13.7417 9.94409 13.5488 10.3409L10.8866 14.9543C10.6441 15.3291 10.2417 15.5661 9.79528 15.5937H7.58504C7.1 15.5937 6.90157 15.2575 7.14409 14.8331L11.548 7.07795Z" fill="white"/>
</svg>
