<svg width="24" height="24" viewBox="0 0 24 24" fill="none" xmlns="http://www.w3.org/2000/svg">
<path fill-rule="evenodd" clip-rule="evenodd" d="M20.9994 11.9997C20.9994 16.9701 16.9701 20.9994 11.9997 20.9994C7.0293 20.9994 3 16.9701 3 11.9997C3 7.0293 7.0293 3 11.9997 3C16.9701 3 20.9994 7.0293 20.9994 11.9997ZM16.3011 12.2335C15.9893 11.695 15.4862 11.695 15.1744 12.2335L13.1973 15.6421C12.8926 16.1807 13.1477 16.62 13.7642 16.62H17.6759C18.2995 16.62 18.5546 16.1807 18.2428 15.6421L16.3011 12.2335ZM12.5383 5.67156C12.2265 5.133 11.7304 5.133 11.4186 5.67156L5.75659 15.6421C5.44479 16.1877 5.6999 16.62 6.3235 16.62H9.16514C9.73914 16.5846 10.2564 16.2799 10.5682 15.798L13.991 9.8667C14.239 9.35648 14.239 8.75414 13.991 8.24392L12.9705 6.45106L12.5383 5.67156Z" />
</svg>
