<svg width="24" height="24" viewBox="0 0 24 24" fill="none" xmlns="http://www.w3.org/2000/svg">
<path d="M11.9997 20.9994C16.9701 20.9994 20.9994 16.9701 20.9994 11.9997C20.9994 7.0293 16.9701 3 11.9997 3C7.0293 3 3 7.0293 3 11.9997C3 16.9701 7.0293 20.9994 11.9997 20.9994Z" fill="#E84142"/>
<path d="M15.1744 12.2335C15.4862 11.695 15.9893 11.695 16.3011 12.2335L18.2428 15.6421C18.5546 16.1807 18.2995 16.62 17.6759 16.62H13.7642C13.1477 16.62 12.8926 16.1807 13.1973 15.6421L15.1744 12.2335ZM11.4186 5.67156C11.7304 5.133 12.2265 5.133 12.5383 5.67156L12.9705 6.45106L13.991 8.24392C14.239 8.75414 14.239 9.35648 13.991 9.8667L10.5683 15.798C10.2565 16.2799 9.73915 16.5846 9.16516 16.62H6.32352C5.69992 16.62 5.44481 16.1877 5.75661 15.6421L11.4186 5.67156Z" fill="white"/>
</svg>
