<?xml version="1.0" encoding="UTF-8"?>
<svg width="24px" height="24px" viewBox="0 0 24 24" version="1.1" xmlns="http://www.w3.org/2000/svg" xmlns:xlink="http://www.w3.org/1999/xlink">
    <g id="bch-icon-grey" stroke="none" stroke-width="1" fill="none" fill-rule="evenodd">
        <path d="M13.0632997,9.94927905 C13.3469319,11.0619899 11.56514,11.3783488 11.0087846,11.5201649 L10.5069739,9.55110312 C11.0633293,9.40928705 12.7669404,8.78747808 13.0632997,9.94927905 M14.3014632,12.89469 C14.6141858,14.1183083 12.4833083,14.5128479 11.8142273,14.6837545 L11.2687808,12.5128775 C11.9360437,12.3437891 13.9832861,11.6165271 14.3087358,12.89469 M14.7960013,9.0402016 C14.3869165,7.90021847 13.2796601,7.76749317 11.9778612,7.97839914 L11.56514,6.3584231 L10.5778819,6.60932848 L10.9796942,8.18748694 C10.7215162,8.25294051 10.4578837,8.32566673 10.1960694,8.39839291 L9.78334822,6.81477999 L8.79790828,7.06204906 L9.21062944,8.68020692 C8.99790531,8.74020604 8.78881749,8.79656884 8.58518416,8.84929534 L8.58518416,8.84929534 L7.22520428,9.19474477 L7.49429119,10.2492746 C7.49429119,10.2492746 8.22155317,10.0492776 8.20882607,10.0674591 C8.47539714,9.96225475 8.77710376,10.0900554 8.88699785,10.3547276 L9.3615363,12.1928822 C9.39622928,12.1839936 9.43145091,12.1773137 9.46698927,12.1728825 L9.36335445,12.2001548 L10.0160721,14.7855711 C10.0514596,14.9822186 9.92155483,15.1705805 9.72516729,15.2073831 C9.74153067,15.2073831 9.00881423,15.3891986 9.00881423,15.3891986 L9.11244908,16.6164531 L10.3960664,16.2891853 L11.1015105,16.1073698 L11.5196862,17.7437092 L12.5051262,17.4928038 L12.0887687,15.8819185 C12.3524011,15.8219194 12.6160336,15.7564658 12.8778479,15.6891941 L13.2887509,17.3037157 L14.2741909,17.0528103 L13.8596515,15.4164709 C15.495991,14.8982967 16.5468845,14.18558 16.294161,12.5928763 C16.0887095,11.3092589 15.3614475,10.9001741 14.3650986,10.9129012 C14.8632731,10.476544 15.0923606,9.87291656 14.7887287,9.0402016 M19.9231982,7.73294823 C21.6502082,10.9384835 21.2755525,14.8688083 18.9740176,17.6903252 C16.6724828,20.5118421 12.8975906,21.6685656 9.41042535,20.6208546 C5.92326003,19.5731436 3.41097428,16.5274515 3.04561386,12.9046719 C2.68025343,9.28189236 4.53381332,5.79590101 7.74156026,4.07300238 C12.1164392,1.72323069 17.5678193,3.36108564 19.9231982,7.73294823" id="bch" fill="#87888C" fill-rule="nonzero"></path>
    </g>
</svg>