<?xml version="1.0" encoding="UTF-8"?>
<svg width="24px" height="24px" viewBox="0 0 24 24" version="1.1" xmlns="http://www.w3.org/2000/svg" xmlns:xlink="http://www.w3.org/1999/xlink">
    <g id="binancesmartchain-circle-icon" stroke="none" stroke-width="1" fill="none" fill-rule="evenodd">
        <circle id="Oval" fill="#FEF1D5" cx="12" cy="12" r="9"></circle>
        <path d="M13.3541544,16.6292585 L13.3541544,18.2074148 L11.9964643,19 L10.6458456,18.2074148 L10.6458456,16.6292585 L11.9964643,17.4218437 L13.3541544,16.6292585 Z M6,11.2074148 L7.35061874,12 L7.35769004,14.7074148 L9.6770772,16.0611222 L9.6770772,17.6462926 L6,15.507014 L6,11.2074148 Z M18,11.2074148 L18,15.507014 L14.3229228,17.6462926 L14.3229228,16.0611222 L16.64231,14.7074148 L16.6493813,12 L18,11.2074148 Z M14.3229228,9.06112224 L15.6806128,9.85370741 L15.6735415,9.85370741 L15.6806128,11.4388778 L13.3541544,12.7925852 L13.3541544,15.507014 L12.0035357,16.2925852 L10.6529169,15.507014 L10.6529169,12.7925852 L8.32645846,11.4388778 L8.32645846,9.85370741 L9.6841485,9.06112224 L11.9964643,10.4218437 L14.3229228,9.06112224 Z M8.32645846,12.5611222 L9.6770772,13.3537074 L9.6770772,14.9318637 L8.32645846,14.1462926 L8.32645846,12.5611222 Z M15.6735415,12.5611222 L15.6735415,14.1462926 L14.3229228,14.9318637 L14.3229228,13.3537074 L15.6735415,12.5611222 Z M7.35061874,7.70741483 L8.70830878,8.5 L7.35061874,9.29258517 L7.35061874,10.8707415 L6,10.0781563 L6,8.5 L7.35061874,7.70741483 Z M16.64231,7.70741483 L18,8.5 L18,10.0781563 L16.64231,10.8707415 L16.64231,9.29258517 L15.2916912,8.5 L16.64231,7.70741483 Z M11.9964643,7.70741483 L13.3541544,8.5 L11.9964643,9.29258517 L10.6458456,8.5 L11.9964643,7.70741483 Z M11.9964643,5 L15.6735415,7.14629259 L14.3229228,7.93887776 L11.9964643,6.57815631 L9.6770772,7.93887776 L8.32645846,7.14629259 L11.9964643,5 Z" id="binancedex" fill="#F9B72D" fill-rule="nonzero"></path>
    </g>
</svg>