<?xml version="1.0" encoding="UTF-8"?>
<svg width="24px" height="24px" viewBox="0 0 24 24" version="1.1" xmlns="http://www.w3.org/2000/svg" xmlns:xlink="http://www.w3.org/1999/xlink">
        <path d="M13.7287575,17.9519038 L13.7287575,19.9809619 L11.9972946,21 L10.2748497,19.9809619 L10.2748497,17.9519038 L11.9972946,18.9709419 L13.7287575,17.9519038 Z M4.35,10.9809619 L6.07244489,12 L6.08146293,15.4809619 L9.03937876,17.2214429 L9.03937876,19.259519 L4.35,16.509018 L4.35,10.9809619 Z M19.6536072,10.9809619 L19.6536072,16.509018 L14.9642285,19.259519 L14.9642285,17.2214429 L17.9221443,15.4809619 L17.9311623,12 L19.6536072,10.9809619 Z M14.9642285,8.22144289 L16.6956914,9.24048096 L16.6866733,9.24048096 L16.6956914,11.2785571 L13.7287575,13.0190381 L13.7287575,16.509018 L12.0063126,17.5190381 L10.2838677,16.509018 L10.2838677,13.0190381 L7.31693387,11.2785571 L7.31693387,9.24048096 L9.04839679,8.22144289 L11.9972946,9.97094188 L14.9642285,8.22144289 Z M7.31693387,12.7214429 L9.03937876,13.740481 L9.03937876,15.7695391 L7.31693387,14.759519 L7.31693387,12.7214429 Z M16.6866733,12.7214429 L16.6866733,14.759519 L14.9642285,15.7695391 L14.9642285,13.740481 L16.6866733,12.7214429 Z M6.07244489,6.48096192 L7.80390782,7.5 L6.07244489,8.51903808 L6.07244489,10.5480962 L4.35,9.52905812 L4.35,7.5 L6.07244489,6.48096192 Z M17.9221443,6.48096192 L19.6536072,7.5 L19.6536072,9.52905812 L17.9221443,10.5480962 L17.9221443,8.51903808 L16.1996994,7.5 L17.9221443,6.48096192 Z M11.9972946,6.48096192 L13.7287575,7.5 L11.9972946,8.51903808 L10.2748497,7.5 L11.9972946,6.48096192 Z M11.9972946,3 L16.6866733,5.75951904 L14.9642285,6.77855711 L11.9972946,5.02905812 L9.03937876,6.77855711 L7.31693387,5.75951904 L11.9972946,3 Z" id="Combined-Shape" fill-rule="nonzero"></path>

</svg>
