<svg width="24px" height="24px" viewBox="0 0 24 24" version="1.1" xmlns="http://www.w3.org/2000/svg">
        <path d="M15.4972224,13.4340982 L17.5315172,15.4663087 L17.5294329,15.468393 L11.999736,21.0001742 L6.47003918,15.4704773 L6.46587054,15.4663087 L8.50433399,13.4361825 L11.999736,16.9315845 L15.4972224,13.4340982 Z M11.999736,9.93452749 L14.0632113,11.9980028 L14.0632113,12.0000871 L11.999736,14.0656467 L9.93417645,12.0000871 L9.93626077,11.9959184 L10.2989322,11.6353314 L10.4740149,11.4602486 L11.999736,9.93452749 Z M18.9661067,9.96681213 L21,12.0007054 L18.9661067,14.0345987 L16.9322134,12.0007054 L18.9661067,9.96681213 Z M5.03389328,9.9653567 L7.06778657,11.99925 L5.03389328,14.0331433 L3,11.99925 L5.03389328,9.9653567 Z M11.999736,3 L17.5294329,8.53178117 L15.4972224,10.566076 L11.999736,7.06858962 L8.50433399,10.5639917 L6.47003918,8.52969686 L11.999736,3 Z" id="Combined-Shape" fill-rule="nonzero"></path>
</svg>