<svg width="24px" height="24px" viewBox="0 0 24 24" version="1.1" xmlns="http://www.w3.org/2000/svg">
    <g id="binancesmartchain-circle-icon" stroke="none" stroke-width="1" fill="none" fill-rule="evenodd">
        <g id="Group" transform="translate(3.000000, 3.000000)">
            <circle id="Oval" fill="#FEF1D5" cx="9" cy="9" r="9"></circle>
            <path d="M11.6229168,10.0755736 L13.1486379,11.5997315 L13.1470747,11.6012947 L8.99980203,15.7501306 L4.85252938,11.602858 L4.84940291,11.5997315 L6.37825049,10.0771369 L8.99980203,12.6986884 L11.6229168,10.0755736 Z M8.99980203,7.45089562 L10.5474085,8.99850207 L10.5474085,9.00006531 L8.99980203,10.549235 L7.45219558,9.00162855 L7.45063234,9.00006531 L7.45219558,8.99693883 L7.72419913,8.72649851 L7.8555112,8.59518645 L8.99980203,7.45089562 Z M14.22458,7.47510909 L15.75,9.00052906 L14.22458,10.525949 L12.6991601,9.00052906 L14.22458,7.47510909 Z M3.77541996,7.47401752 L5.30083992,8.99943749 L3.77541996,10.5248574 L2.25,8.99943749 L3.77541996,7.47401752 Z M8.99980203,2.25 L13.1470747,6.39883588 L11.6229168,7.92455699 L8.99980203,5.30144222 L6.37825049,7.92299375 L4.85252938,6.39727264 L8.99980203,2.25 Z" id="Combined-Shape" fill="#F9B72D" fill-rule="nonzero"></path>
        </g>
    </g>
</svg>