<?xml version="1.0" encoding="UTF-8"?>
<svg width="24px" height="24px" viewBox="0 0 24 24" version="1.1" xmlns="http://www.w3.org/2000/svg">
        <path d="M12,21 C13.1825821,21 14.1418396,19.9927734 14.1418396,18.75 L9.85816036,18.75 C9.85816036,19.9927734 10.8174179,21 12,21 Z M19.2116748,15.7367578 C18.5648038,15.0069141 17.3544317,13.9089844 17.3544317,10.3125 C17.3544317,7.58085938 15.5303356,5.39414063 13.0707524,4.85765625 L13.0707524,4.125 C13.0707524,3.50378906 12.591291,3 12,3 C11.408709,3 10.9292476,3.50378906 10.9292476,4.125 L10.9292476,4.85765625 C8.46966435,5.39414063 6.64556832,7.58085938 6.64556832,10.3125 C6.64556832,13.9089844 5.43519622,15.0069141 4.78832516,15.7367578 C4.58743353,15.9635156 4.49837157,16.2345703 4.50002252,16.5 C4.50372868,17.0765625 4.93464124,17.625 5.57481591,17.625 L18.4251841,17.625 C19.0653588,17.625 19.4966061,17.0765625 19.4999775,16.5 C19.5016284,16.2345703 19.4125665,15.9631641 19.2116748,15.7367578 L19.2116748,15.7367578 Z" fill-rule="nonzero"></path>
</svg>