<svg viewBox="0 0 24 24" version="1.1" xmlns="http://www.w3.org/2000/svg" xmlns:xlink="http://www.w3.org/1999/xlink">
    <path d="M12.0465741,23.9737144 C13.702189,23.9737144 15.0451496,22.6307457 15.0451496,20.9737144 L9.04799861,20.9737144 C9.04799861,22.6307457 10.3909592,23.9737144 12.0465741,23.9737144 Z M22.1429189,16.9560582 C21.2372994,15.9829332 19.5427785,14.5190269 19.5427785,9.72371444 C19.5427785,6.08152694 16.989044,3.16590194 13.5456275,2.45058944 L13.5456275,1.47371444 C13.5456275,0.645433191 12.8743816,-0.0262855595 12.0465741,-0.0262855595 C11.2187666,-0.0262855595 10.5475207,0.645433191 10.5475207,1.47371444 L10.5475207,2.45058944 C7.10410419,3.16590194 4.55036974,6.08152694 4.55036974,9.72371444 C4.55036974,14.5190269 2.85584881,15.9829332 1.95022933,16.9560582 C1.66898104,17.2584019 1.5442943,17.6198082 1.54660563,17.9737144 C1.55179425,18.7424644 2.15507183,19.4737144 3.05131637,19.4737144 L21.0418318,19.4737144 C21.9380764,19.4737144 22.5418227,18.7424644 22.5465426,17.9737144 C22.5488539,17.6198082 22.4241672,17.2579332 22.1429189,16.9560582 L22.1429189,16.9560582 Z"/>
</svg>
