<?xml version="1.0" encoding="UTF-8"?>
<svg width="24px" height="24px" viewBox="0 0 24 24" version="1.1" xmlns="http://www.w3.org/2000/svg" xmlns:xlink="http://www.w3.org/1999/xlink">
    <g id="btc-icon-grey" stroke="none" stroke-width="1" fill="none" fill-rule="evenodd">
        <path d="M13.9084863,10.7001701 C13.6300437,11.8155791 11.9113667,11.2488638 11.3538988,11.1099701 L11.8455423,9.13840824 C12.4030828,9.27733829 14.1984699,9.53663075 13.9084863,10.7001701 M13.6029929,13.8816542 C13.2978275,15.1078504 11.2329902,14.4449472 10.5635336,14.2787481 L11.1058562,12.1050167 C11.7752399,12.2720532 13.9219569,12.6028131 13.6029929,13.8816542 M15.8594419,10.717864 C16.0386381,9.52032029 15.1267093,8.87653089 13.8797973,8.44707095 L14.2842818,6.82483663 L13.2967354,6.57872361 L12.9029543,8.15825221 C12.6433344,8.09352012 12.3766513,8.03253799 12.1116792,7.97206551 L12.5083364,6.38216086 L11.5212992,6.13612066 L11.1165233,7.75777244 C10.9016479,7.70880468 10.6906679,7.66045586 10.4859133,7.60955851 L10.4870421,7.60449792 L9.1250832,7.26445419 L8.86236829,8.31913585 C8.86236829,8.31913585 9.59510084,8.4870461 9.57966404,8.49738576 C9.97963418,8.59721445 10.0519389,8.86189515 10.0398154,9.07171016 L9.57908149,10.9197786 C9.60664178,10.9268416 9.64235738,10.9369629 9.68171356,10.9527272 C9.64880138,10.9445356 9.613632,10.935543 9.57737051,10.9268416 L8.93154229,13.5157249 C8.88257444,13.6372159 8.75853513,13.8194706 8.47896371,13.7502968 C8.48879367,13.7646413 7.76112207,13.5711003 7.76112207,13.5711003 L7.27086196,14.7014363 L8.55603775,15.0217837 C8.79512422,15.08171 9.02944135,15.1444033 9.26008124,15.2034558 L8.85137356,16.8442943 L9.83779156,17.0903709 L10.2425674,15.4669716 C10.5041535,15.5378565 10.7665042,15.605938 11.0296193,15.6711798 L10.6262269,17.2869337 L11.61381,17.5330467 L12.0224813,15.8953029 C13.7064988,16.2139755 14.9728522,16.0854215 15.5058544,14.5624698 C15.9354238,13.3362007 15.4844835,12.6289171 14.5984764,12.1676372 C15.2437224,12.0189136 15.7297591,11.5945142 15.8594419,10.717864 M21,12.0000182 C21,16.970591 16.970591,21 11.9999817,21 C7.02940898,21 3,16.970591 3,12.0000182 C3,7.02944537 7.02940898,3 11.9999817,3 C16.970591,3 21,7.02944537 21,12.0000182" id="btc" fill="#87888C" fill-rule="nonzero"></path>
    </g>
</svg>