<svg width="24px" height="24px" viewBox="0 0 24 24" version="1.1" xmlns="http://www.w3.org/2000/svg" xmlns:xlink="http://www.w3.org/1999/xlink">
        <path d="M11.916805,3.5 L13.4069165,3.86700101 L12.8080907,6.23855095 C13.2081141,6.32875352 13.6107205,6.41971632 14.0026638,6.51627266 L14.0026638,6.51627266 L14.5971477,4.16019996 L16.088028,4.52730959 L15.4773853,6.94708344 C17.3598249,7.58767889 18.7365466,8.54797467 18.4660174,10.3342672 C18.2702377,11.6419052 17.5364773,12.2749521 16.5623616,12.4967927 C17.8999499,13.1848517 18.5807259,14.2398575 17.9322131,16.0689976 C17.1275497,18.3406785 15.2157599,18.5324335 12.6734304,18.0570917 L12.6734304,18.0570917 L12.0564669,20.5 L10.5655313,20.1328904 L11.1745253,17.722783 C10.7773053,17.6254664 10.3812394,17.5239139 9.98632774,17.4181798 L9.98632774,17.4181798 L9.37524531,19.8396914 L7.88606862,19.4726361 L8.5030869,17.0251118 C8.1548942,16.9370272 7.80115004,16.843512 7.44020569,16.7541241 L7.44020569,16.7541241 L5.5,16.2762842 L6.24013646,14.5902408 C6.24013646,14.5902408 7.33868858,14.8789324 7.32384847,14.8575358 C7.74591218,14.9607175 7.93317199,14.6888608 8.00709784,14.5076412 L8.00709784,14.5076412 L8.98209254,10.6459845 C9.03683583,10.6589637 9.08993039,10.6723773 9.13961729,10.6845962 C9.080202,10.6610816 9.02628283,10.6459845 8.98467558,10.6354491 L8.98467558,10.6354491 L9.68023686,7.8788142 C9.69853947,7.56584779 9.58938244,7.17104203 8.98555504,7.02213454 C9.00885968,7.00671159 7.90266715,6.75625157 7.90266715,6.75625157 L7.90266715,6.75625157 L8.2992829,5.18305647 L10.3554066,5.69027599 C10.6628166,5.77374455 10.9813291,5.84586312 11.3057226,5.9189049 L11.3057226,5.9189049 L11.916805,3.5 Z M11.2896186,12.4033861 L10.4708843,15.6457896 C11.4815505,15.8936973 14.5987964,16.8825038 15.059499,15.0534724 C15.5410328,13.1459142 12.3001746,12.6525428 11.2896186,12.4033861 L11.2896186,12.4033861 Z M12.4063088,7.97830308 L11.6640839,10.9191445 C12.5056827,11.1263225 15.1003369,11.9716522 15.5206966,10.3078744 C15.9584794,8.57230384 13.2480173,8.18553536 12.4063088,7.97830308 L12.4063088,7.97830308 Z" id="Combined-Shape"></path>
</svg>