<svg viewBox="0 0 24 24" version="1.1" xmlns="http://www.w3.org/2000/svg">
        <path d="M11.8784074,9.05941988e-14 L14.0562626,0.518119078 L13.1810556,3.86618957 C13.7657052,3.99353438 14.35413,4.12195245 14.9269702,4.25826729 L14.9269702,4.25826729 L15.7958312,0.932047007 L17.9748101,1.45031943 L17.0823323,4.86647074 C19.8335902,5.77084079 21.8457219,7.12655247 21.4503332,9.64837717 C21.1641936,11.4944543 20.0917746,12.3881677 18.668067,12.7013544 C20.6230037,13.6727319 21.617984,15.1621518 20.6701577,17.7444671 C19.4941111,20.9515461 16.6999567,21.2222591 12.9842444,20.5511883 L12.9842444,20.5511883 L12.0825286,24 L9.90346884,23.4817276 L10.7935369,20.0792231 C10.2129846,19.9418349 9.63411915,19.7984666 9.05694054,19.649195 L9.05694054,19.649195 L8.16382006,23.0677996 L5.98733105,22.5496039 L6.889127,19.0942754 C6.38022998,18.9699208 5.86321929,18.8378993 5.33568524,18.7117046 L5.33568524,18.7117046 L2.5,18.0371071 L3.5817379,15.6568106 C3.5817379,15.6568106 5.18731408,16.0643752 5.16562468,16.0341681 C5.78248703,16.1798364 6.05617444,15.7960388 6.16421991,15.5401993 L6.16421991,15.5401993 L7.58921218,10.0884487 C7.6692216,10.1067723 7.74682133,10.1257091 7.81944065,10.1429593 C7.73260292,10.1097623 7.65379798,10.0884487 7.59298738,10.0735752 L7.59298738,10.0735752 L8.60957695,6.18185534 C8.63632692,5.7400204 8.47678972,5.18264757 7.59427275,4.97242523 C7.62833338,4.95065166 6.01159045,4.59706105 6.01159045,4.59706105 L6.01159045,4.59706105 L6.59125963,2.37607972 L9.59636346,3.09215434 L9.5938729,3.10281108 C10.0456551,3.20999231 10.5111733,3.31180675 10.9852869,3.41492457 L10.9852869,3.41492457 L11.8784074,9.05941988e-14 Z M10.9617503,12.5694863 L9.76513866,17.1469971 C11.2422661,17.4969844 15.7982409,18.8929466 16.4715754,16.3107845 C17.1753556,13.6177613 12.4387167,12.9212369 10.9617503,12.5694863 L10.9617503,12.5694863 Z M12.593836,6.32231023 L11.5090457,10.4740864 C12.7390746,10.7665729 16.5312617,11.9599795 17.1456335,9.61111674 C17.7854698,7.16089953 13.8240252,6.61487345 12.593836,6.32231023 L12.593836,6.32231023 Z" id="Combined-Shape"/>
</svg>
