<?xml version="1.0" encoding="UTF-8"?>
<svg width="24px" height="24px" viewBox="0 0 24 24" version="1.1" xmlns="http://www.w3.org/2000/svg" xmlns:xlink="http://www.w3.org/1999/xlink">
    <g id="delete-icon" stroke="none" stroke-width="1" fill="black" fill-rule="evenodd">
        <path d="M19.4053233,4 C20.286093,4 21,4.70764594 21,5.5803049 L21,5.5803049 L21,9.29388051 L13.7831873,9.29388051 C12.2858472,9.29388051 11.0719841,10.4965655 11.0719841,11.980117 C11.0719841,13.4639817 12.2858472,14.6666667 13.7831873,14.6666667 L13.7831873,14.6666667 L21,14.6666667 L21,18.4196951 C21,19.2923541 20.286093,20 19.4053233,20 L19.4053233,20 L4.59499271,20 C3.71422301,20 3,19.2923541 3,18.4196951 L3,18.4196951 L3,5.5803049 C3,4.70764594 3.71422301,4 4.59499271,4 L4.59499271,4 Z M13.7830293,10.6986534 C14.5320154,10.6986534 15.1387889,11.3057429 15.1387889,12.054413 C15.1387889,12.803083 14.5320154,13.4101726 13.7830293,13.4101726 C13.0343593,13.4101726 12.4275857,12.803083 12.4275857,12.054413 C12.4275857,11.3057429 13.0343593,10.6986534 13.7830293,10.6986534 Z" id="Combined-Shape"></path>
        <path d="M3,5.953125 L3,4.96875 C3,4.50117188 3.42991071,4.125 3.96428571,4.125 L8.46428571,4.125 L8.84196429,3.46757813 C9.00267857,3.17929688 9.33616071,3 9.70178571,3 L14.2941964,3 C14.6598214,3 14.9933036,3.17929688 15.1580357,3.46757813 L15.5357143,4.125 L20.0357143,4.125 C20.5700893,4.125 21,4.50117188 21,4.96875 L21,5.953125 C21,6.18515625 20.7830357,6.375 20.5178571,6.375 L3.48214286,6.375 C3.21696429,6.375 3,6.18515625 3,5.953125 Z M19.6821429,7.94648437 L18.8625,19.4179688 C18.7982143,20.3074219 17.9544643,21 16.9379464,21 L7.06205357,21 C6.04553571,21 5.20178571,20.3074219 5.1375,19.4179688 L4.31785714,7.94648437 C4.30178571,7.70390625 4.52276786,7.5 4.8,7.5 L19.2040179,7.5 C19.4772321,7.5 19.6982143,7.70390625 19.6821429,7.94648437 Z" id="Shape" fill-rule="nonzero"></path>
    </g>
</svg>
