<?xml version="1.0" encoding="UTF-8"?>
<svg width="24px" height="24px" viewBox="0 0 24 24" version="1.1" xmlns="http://www.w3.org/2000/svg" xmlns:xlink="http://www.w3.org/1999/xlink">
    <g id="doge-icon-grey" stroke="none" stroke-width="1" fill="none" fill-rule="evenodd">
        <path d="M12,3 C16.97061,3 21,7.02939 21,12 C21,16.97061 16.97061,21 12,21 C7.02939,21 3,16.97061 3,12 C3,7.02939 7.02939,3 12,3 Z M12.0965751,7.13280534 L9.09417,7.13289 L9.09417,11.4663 L7.94532,11.4663 L7.94532,12.52776 L9.09426,12.52776 L9.09426,16.8609 L12.3537,16.8609 C12.3537,16.8609 16.93659,17.24502 16.93659,12.07821 C16.93659,7.37196 13.1786425,7.14117296 12.0965751,7.13280534 Z M12.216,8.931 C12.69696,8.931 15.1167,9.12459 15.1205745,12.11322 C15.1242252,14.935815 12.8955156,15.0577278 12.3558952,15.0625619 L10.93008,15.0627255 L10.93008,12.52767 L12.95319,12.52767 L12.95319,11.46621 L10.93008,11.46621 L10.93008,8.931 Z" id="doge" fill="#87888C" fill-rule="nonzero"></path>
    </g>
</svg>