<?xml version="1.0" encoding="UTF-8"?>
<svg width="24px" height="24px" viewBox="0 0 24 24" version="1.1" xmlns="http://www.w3.org/2000/svg" xmlns:xlink="http://www.w3.org/1999/xlink">
    <g id="dots-icon-grey" stroke="none" stroke-width="1" fill="none" fill-rule="evenodd">
        <path d="M12.4444412,15.1582059 C12.4444412,15.1582059 11.8710882,15.1976471 11.7352941,15.2175 C11.0735294,15.3186176 10.5446471,15.8215588 10.4104412,16.4775 C10.4104412,16.4775 10.2325588,17.3475882 10.2127059,17.4267353 C10.2108529,17.4367941 10.2087353,17.4465882 10.2063529,17.4563824 C10.1290588,17.7795882 9.804,17.9789118 9.48105882,17.9013529 C9.46994118,17.8992353 9.45882353,17.8968529 9.44797059,17.8942059 C9.12661765,17.8153235 8.93020588,17.4910588 9.00908824,17.1697059 C9.00908824,17.1104118 10.4215588,10.5502059 10.4215588,10.5502059 C10.4927647,10.2172059 10.8202059,10.0046471 11.1534706,10.0755882 C11.4867353,10.1467941 11.6992941,10.4742353 11.6280882,10.8075 L11.0348824,13.494 L10.9358824,14.0281765 C10.9247647,14.0432647 10.9247647,14.0639118 10.9358824,14.079 C10.9499118,14.0977941 10.9763824,14.1015 10.9951765,14.0874706 C11.1087353,14.0586176 11.2238824,14.0361176 11.3398235,14.0197059 C11.6561471,13.98 12.2861471,13.9405588 12.2861471,13.9405588 C13.9643824,13.8389118 15.2876471,12.4740882 15.3376765,10.794 C15.3908824,9.00035294 13.98,7.50317647 12.1863529,7.44997059 C10.3927059,7.39676471 8.89579412,8.80764706 8.84258824,10.6012941 C8.82432353,10.9914706 8.88388235,11.3811176 9.01782353,11.7482647 C9.11894118,12.072 8.95058824,12.4187647 8.63347059,12.5392059 C8.30655882,12.6379412 7.95979412,12.4642941 7.84226471,12.1437353 C7.68529412,11.6717647 7.60508824,11.1775588 7.60508824,10.6801765 C7.61435294,8.19697059 9.62532353,6.18626471 12.1082647,6.177 C14.4032647,6.21670588 16.3004118,7.97726471 16.5116471,10.2624706 C16.7403529,12.7374706 14.9197059,14.9295 12.4444412,15.1582059 M12.1458529,18.0220588 C11.7104118,18.0220588 11.3575588,17.6689412 11.3575588,17.2335 C11.3575588,16.7983235 11.7104118,16.4452059 12.1458529,16.4452059 C12.5812941,16.4452059 12.9341471,16.7983235 12.9341471,17.2335 C12.9341471,17.6689412 12.5812941,18.0220588 12.1458529,18.0220588 M12,3 C7.02961765,3 3,7.02961765 3,12 C3,16.9706471 7.02961765,21 12,21 C16.9709118,21 21,16.9706471 21,12 C21,7.02961765 16.9709118,3 12,3" id="Fill-1-Copy" fill="#87888C"></path>
    </g>
</svg>