<svg width="24" height="24" viewBox="0 0 24 24" fill="none" xmlns="http://www.w3.org/2000/svg">
<path d="M11.2891 3.17243C11.7243 2.94252 12.3866 2.94252 12.8218 3.17243L17.2628 5.51836C17.5249 5.65682 17.6689 5.86313 17.6946 6.07613L17.6989 6.07613V17.8679C17.6931 18.1003 17.5478 18.3311 17.2628 18.4816L12.8218 20.8276C12.3866 21.0575 11.7243 21.0575 11.2891 20.8276L6.84811 18.4816C6.5643 18.3317 6.42809 18.0993 6.42134 17.8679C6.42065 17.8442 6.42059 17.8247 6.42132 17.8085L6.42134 6.15553C6.42068 6.13915 6.42067 6.12281 6.42133 6.10655L6.42134 6.07613L6.42333 6.07613C6.44305 5.86079 6.58047 5.65974 6.84811 5.51836L11.2891 3.17243ZM16.9998 12.6547L12.8218 14.8618C12.3866 15.0917 11.7243 15.0917 11.2891 14.8618L7.12034 12.6596V17.8448L11.2891 20.0352C11.5355 20.1668 11.7916 20.2951 12.0411 20.3007L12.0554 20.3009C12.3044 20.3017 12.5461 20.1753 12.7912 20.0556L16.9998 17.8259V12.6547ZM5.69902 17.6116C5.69902 18.0634 5.75152 18.3603 5.85576 18.5695C5.94216 18.7429 6.0718 18.8754 6.30851 19.0367L6.32202 19.0458C6.37397 19.0809 6.43119 19.1176 6.50085 19.1607L6.583 19.211L6.83524 19.3633L6.47345 19.9614L6.19112 19.7909L6.14367 19.7618C6.06204 19.7114 5.99438 19.6681 5.93127 19.6255C5.25664 19.1706 5.00504 18.6747 5.00008 17.643L5 17.6116H5.69902ZM11.7059 9.49414C11.6736 9.50525 11.6432 9.51811 11.6156 9.53272L7.17458 11.8787C7.16991 11.8811 7.16547 11.8836 7.16124 11.886L7.15748 11.8881L7.16445 11.8921L7.17458 11.8976L11.6156 14.2436C11.6432 14.2582 11.6736 14.271 11.7059 14.2821V9.49414ZM12.405 9.49414V14.2821C12.4373 14.271 12.4677 14.2582 12.4953 14.2436L16.9363 11.8976C16.941 11.8952 16.9454 11.8927 16.9497 11.8903L16.9534 11.8881L16.9464 11.8841L16.9363 11.8787L12.4953 9.53272C12.4677 9.51811 12.4373 9.50525 12.405 9.49414ZM16.9998 6.9126L13.0159 9.01708L16.9998 11.1216V6.9126ZM7.12034 6.91752V11.1166L11.0949 9.01708L7.12034 6.91752ZM12.4953 3.79062C12.2644 3.66862 11.8465 3.66862 11.6156 3.79062L7.17458 6.13655C7.16991 6.13901 7.16547 6.14145 7.16124 6.14386L7.15748 6.14604L7.16445 6.15003L7.17458 6.15553L11.6156 8.50146C11.8465 8.62346 12.2644 8.62346 12.4953 8.50146L16.9363 6.15553C16.941 6.15306 16.9454 6.15063 16.9497 6.14822L16.9534 6.14604L16.9464 6.14205L16.9363 6.13655L12.4953 3.79062ZM17.6561 4.04787L17.9384 4.21841L17.9859 4.24755C18.0675 4.29794 18.1352 4.34124 18.1983 4.38379C18.8729 4.83868 19.1245 5.33462 19.1295 6.36629L19.1295 6.39772H18.4305C18.4305 5.94592 18.378 5.64898 18.2738 5.43978C18.1874 5.26639 18.0577 5.13387 17.821 4.97264L17.8075 4.96348C17.7556 4.92845 17.6983 4.89175 17.6287 4.84863L17.5465 4.79831L17.2943 4.64607L17.6561 4.04787Z" fill="#1969FF"/>
</svg>
