<svg width="24" height="24" viewBox="0 0 24 24" fill="none" xmlns="http://www.w3.org/2000/svg">
<path d="M12 21C16.9706 21 21 16.9706 21 12C21 7.02944 16.9706 3 12 3C7.02944 3 3 7.02944 3 12C3 16.9706 7.02944 21 12 21Z" fill="#C6DAFF"/>
<path d="M11.3915 5.13411C11.73 4.9553 12.2451 4.9553 12.5836 5.13411L16.0377 6.95872C16.2416 7.06641 16.3536 7.22688 16.3736 7.39254L16.3769 7.39254V16.564C16.3724 16.7447 16.2594 16.9242 16.0377 17.0413L12.5836 18.8659C12.2451 19.0447 11.73 19.0447 11.3915 18.8659L7.93742 17.0413C7.71668 16.9247 7.61074 16.7439 7.60549 16.564C7.60495 16.5455 7.6049 16.5303 7.60547 16.5178L7.60549 7.4543C7.60497 7.44156 7.60497 7.42886 7.60548 7.41621L7.60549 7.39254L7.60703 7.39254C7.62237 7.22506 7.72926 7.06869 7.93742 6.95872L11.3915 5.13411ZM15.8332 12.5092L12.5836 14.2258C12.2451 14.4046 11.73 14.4046 11.3915 14.2258L8.14915 12.513V16.5459L11.3915 18.2496C11.5831 18.352 11.7824 18.4517 11.9764 18.4561L11.9876 18.4562C12.1812 18.4569 12.3692 18.3586 12.5598 18.2655L15.8332 16.5312V12.5092ZM7.04368 16.3646C7.04368 16.716 7.08452 16.9469 7.16559 17.1096C7.23279 17.2445 7.33362 17.3476 7.51773 17.473L7.52824 17.4801C7.56864 17.5073 7.61315 17.5359 7.66733 17.5694L7.73122 17.6086L7.92741 17.727L7.64602 18.1922L7.42643 18.0596L7.38952 18.0369C7.32603 17.9977 7.2734 17.9641 7.22432 17.931C6.69961 17.5772 6.50392 17.1914 6.50006 16.389L6.5 16.3646H7.04368ZM11.7157 10.051C11.6906 10.0596 11.667 10.0696 11.6455 10.081L8.19134 11.9056C8.18771 11.9075 8.18425 11.9094 8.18096 11.9113L8.17804 11.913L8.18346 11.9161L8.19134 11.9204L11.6455 13.745C11.667 13.7564 11.6906 13.7664 11.7157 13.775V10.051ZM12.2594 10.051V13.775C12.2846 13.7664 12.3082 13.7564 12.3297 13.745L15.7838 11.9204C15.7874 11.9185 15.7909 11.9166 15.7942 11.9147L15.7971 11.913L15.7917 11.9099L15.7838 11.9056L12.3297 10.081C12.3082 10.0696 12.2846 10.0596 12.2594 10.051ZM15.8332 8.04313L12.7346 9.67995L15.8332 11.3168V8.04313ZM8.14915 8.04696V11.3129L11.2405 9.67995L8.14915 8.04696ZM12.3297 5.61492C12.1501 5.52004 11.8251 5.52004 11.6455 5.61492L8.19134 7.43954C8.18771 7.44145 8.18425 7.44335 8.18096 7.44522L8.17804 7.44692L8.18346 7.45002L8.19134 7.4543L11.6455 9.27891C11.8251 9.3738 12.1501 9.3738 12.3297 9.27891L15.7838 7.4543C15.7874 7.45238 15.7909 7.45049 15.7942 7.44862L15.7971 7.44692L15.7917 7.44381L15.7838 7.43954L12.3297 5.61492ZM16.3436 5.81501L16.5632 5.94765L16.6001 5.97031C16.6636 6.00951 16.7162 6.04319 16.7653 6.07628C17.29 6.43008 17.4857 6.81581 17.4896 7.61823L17.4896 7.64267H16.946C16.946 7.29127 16.9051 7.06032 16.824 6.89761C16.7568 6.76274 16.656 6.65968 16.4719 6.53427L16.4614 6.52715C16.421 6.49991 16.3765 6.47136 16.3223 6.43782L16.2584 6.39869L16.0622 6.28028L16.3436 5.81501Z" fill="#1969FF"/>
</svg>