<?xml version="1.0" encoding="UTF-8"?>
<svg width="24px" height="24px" viewBox="0 0 24 24" version="1.1" xmlns="http://www.w3.org/2000/svg" xmlns:xlink="http://www.w3.org/1999/xlink">
    <g id="fil-icon-grey" stroke="none" stroke-width="1" fill="none" fill-rule="evenodd">
        <path d="M11.9842953,3 C7.02281879,2.955 3.04469799,7.005 3,11.955 C3,16.95 7.02281879,21.0000287 11.9395973,21.0000287 C16.8768006,21.0124264 20.8892006,16.9930627 20.9015722,12.0225 C20.9138866,7.05193725 16.9214986,3.01242641 11.9842953,3 Z M16.230604,7.05 C16.0518121,7.185 15.8283221,7.14 15.6495302,6.96 C15.5154362,6.825 15.4260403,6.69 15.2871141,6.555 C15.0189262,6.19013514 14.6166443,6.15 14.3037584,6.465 C14.0607271,6.71124279 13.8638755,6.99965689 13.7226846,7.31635135 C13.4097987,8.26135135 13.1863087,9.25135135 12.877047,10.2352703 L15.3354362,10.6001351 L15.1566443,11.2751351 L12.7852349,10.92 L12.5206711,12.3648649 L15.0684564,12.7297297 L14.8896644,13.4047297 L12.3865772,13.0398649 C12.2077852,13.6248649 12.1183893,14.2560811 11.8948993,14.7948649 C11.6714094,15.4248649 11.4479195,16.0548649 11.1797315,16.6398649 C10.8173154,17.4048649 10.1963758,17.9448649 9.34711409,18.0798649 C8.85543624,18.1698649 8.3190604,18.1248649 7.91677852,17.8098649 C7.7745267,17.7191107 7.67708923,17.5719669 7.64856596,17.4048649 C7.64693538,17.2147581 7.72872231,17.0336111 7.87208054,16.9098649 C7.96147651,16.8648649 8.18496644,16.9098649 8.3190604,16.9548649 C8.46451138,17.1000505 8.58676403,17.2670272 8.68147651,17.4498649 C8.94966443,17.8147297 9.30724832,17.8548649 9.66483221,17.5848649 C10.0671141,17.22 10.290604,16.7335135 10.424698,16.2348649 C10.6928859,15.1548649 10.9610738,14.1198649 11.1845638,13.0398649 L11.1845638,12.8513514 L8.81557047,12.4864865 L8.90496644,11.8114865 L11.3633557,12.1763514 L11.6714094,10.7837838 L9.12362416,10.38 L9.21302013,9.66 L11.8502013,10.0248649 C11.9395973,9.75486486 11.9842953,9.52986486 12.0736913,9.30486486 C12.2971812,8.49486486 12.5206711,7.68486486 13.057047,6.96486486 C13.5934228,6.24486486 14.2191946,5.79486486 15.1578523,5.83986486 C15.5636295,5.82452142 15.9557009,5.9889883 16.230604,6.28986486 C16.3002155,6.34663595 16.3477004,6.4263122 16.364698,6.51486486 C16.364698,6.69 16.364698,6.915 16.230604,7.05 L16.230604,7.05 Z" id="Shape" fill="#87888C"></path>
    </g>
</svg>