<svg width="14" height="13" viewBox="0 0 14 13" fill="none" xmlns="http://www.w3.org/2000/svg">
<path fill-rule="evenodd" clip-rule="evenodd" d="M0 6.45839C0 2.78717 2.91099 0 6.71641 0C10.5218 0 13.6084 2.78717 13.6084 6.45839C13.6084 9.39378 11.7482 11.9057 9.0046 12.7844C8.65616 12.8453 8.52995 12.6362 8.52995 12.4642C8.52995 12.3928 8.53084 12.2257 8.53203 12.0018L8.53205 11.9992L8.53205 11.9984L8.53205 11.9981C8.53449 11.5407 8.53818 10.8486 8.53818 10.2514C8.53818 9.62935 8.32418 9.23232 8.07177 9.02322C9.60546 8.85646 11.2215 8.65265 11.2215 6.09841C11.2215 5.37317 10.9526 5.0079 10.5136 4.5394C10.5849 4.36735 10.8181 3.66064 10.4423 2.74217C9.86884 2.56747 8.54916 3.45683 8.54916 3.45683C8.00043 3.3086 7.41055 3.23184 6.82616 3.23184C6.24176 3.23184 5.65188 3.3086 5.10316 3.45683C5.10316 3.45683 3.78347 2.57012 3.21005 2.74217C2.83417 3.65799 3.06738 4.36735 3.13872 4.5394C2.69973 5.00525 2.49122 5.37052 2.49122 6.09841C2.49122 8.64471 4.03863 8.85911 5.57232 9.02322C5.37478 9.19791 5.19644 9.49171 5.13334 9.91521C4.741 10.0899 3.73408 10.3837 3.13323 9.36202C2.75735 8.73206 2.07419 8.67912 2.07419 8.67912C1.402 8.67118 2.03029 9.08674 2.03029 9.08674C2.48024 9.28526 2.79302 10.0555 2.79302 10.0555C3.19633 11.2413 5.11687 10.8443 5.11687 10.8443C5.11687 11.2044 5.12033 11.7113 5.12276 12.0681C5.12408 12.262 5.1251 12.4117 5.1251 12.4695C5.1251 12.6415 5.00164 12.8506 4.65046 12.7897C1.91506 11.9057 0 9.39378 0 6.45839ZM3.81639 10.3175C3.73408 10.3017 3.67921 10.2408 3.69842 10.1878C3.71762 10.1349 3.79719 10.1084 3.86852 10.127C3.95083 10.1508 4.00296 10.2117 3.9865 10.2646C3.97004 10.3175 3.88773 10.344 3.81639 10.3175ZM4.40902 10.4022C4.48858 10.4022 4.55169 10.3599 4.55169 10.307C4.55169 10.2461 4.48035 10.2037 4.39804 10.2117C4.31848 10.2117 4.25537 10.254 4.25537 10.307C4.25537 10.3678 4.31848 10.4102 4.40902 10.4022ZM4.9111 10.1428C4.83154 10.1614 4.77666 10.2117 4.78489 10.2725C4.79313 10.3255 4.86446 10.3599 4.94677 10.3414C5.02633 10.3228 5.08121 10.2725 5.07298 10.2196C5.06474 10.1693 4.99067 10.1349 4.9111 10.1428ZM2.66681 9.12909C2.63114 9.15556 2.63937 9.21644 2.68602 9.26673C2.72991 9.30908 2.79302 9.32761 2.82868 9.2932C2.86435 9.26673 2.85612 9.20585 2.80948 9.15556C2.76558 9.11321 2.70248 9.09468 2.66681 9.12909ZM2.4336 9.01792C2.37873 8.99145 2.35129 8.9491 2.3705 8.91469C2.3897 8.88823 2.4336 8.88029 2.48847 8.89617C2.54335 8.92264 2.57078 8.96498 2.55158 8.99939C2.53237 9.03645 2.4775 9.04439 2.4336 9.01792ZM3.25943 9.85698C3.21554 9.89139 3.232 9.9708 3.2951 10.0211C3.35821 10.082 3.43777 10.0899 3.47344 10.0476C3.50911 10.0131 3.49264 9.93374 3.43777 9.88345C3.37741 9.82257 3.2951 9.81463 3.25943 9.85698ZM2.94666 9.62406C2.90276 9.56318 2.90276 9.49436 2.94666 9.46789C2.99056 9.43348 3.06189 9.45995 3.1003 9.52083C3.1442 9.58171 3.1442 9.65053 3.1003 9.68494C3.06464 9.71141 2.99056 9.68494 2.94666 9.62406Z" fill="#585861"/>
</svg>
