<?xml version="1.0" encoding="UTF-8"?>
<svg width="47px" height="24px" viewBox="0 0 47 24" version="1.1" xmlns="http://www.w3.org/2000/svg" xmlns:xlink="http://www.w3.org/1999/xlink">
    <title>icon-beta</title>
    <g id="RenBridge_v2" stroke="none" stroke-width="1" fill="none" fill-rule="evenodd">
        <g id="Minting-5-Copy-3" transform="translate(-262.000000, -50.000000)" fill="#8A8A90" fill-rule="nonzero">
            <g id="icon-beta" transform="translate(262.000000, 50.000000)">
                <path d="M40,0.25 L7,0.25 C3.27207794,0.25 0.25,3.27207794 0.25,7 L0.25,17 C0.25,20.7279221 3.27207794,23.75 7,23.75 L40,23.75 C43.7279221,23.75 46.75,20.7279221 46.75,17 L46.75,7 C46.75,3.27207794 43.7279221,0.25 40,0.25 Z M7,1.75 L40,1.75 C42.8994949,1.75 45.25,4.10050506 45.25,7 L45.25,17 C45.25,19.8994949 42.8994949,22.25 40,22.25 L7,22.25 C4.10050506,22.25 1.75,19.8994949 1.75,17 L1.75,7 C1.75,4.10050506 4.10050506,1.75 7,1.75 Z" id="Rectangle"></path>
                <path d="M10.152,17 C12.21,17 13.862,16.16 13.862,14.004 C13.862,12.702 13.246,12.002 12.336,11.596 C12.994,11.218 13.456,10.35 13.456,9.398 C13.456,7.34 11.72,6.85 9.858,6.85 L6.12,6.85 L6.12,17 L10.152,17 Z M10.054,11.148 L7.716,11.148 L7.716,8.166 L10.054,8.166 C11.118,8.166 11.846,8.628 11.846,9.594 C11.846,10.686 11.146,11.148 10.054,11.148 Z M10.194,15.684 L7.716,15.684 L7.716,12.38 L10.11,12.38 C11.552,12.38 12.224,12.884 12.224,14.004 C12.224,15.082 11.552,15.684 10.194,15.684 Z M23.028,17 L23.028,15.642 L17.596,15.642 L17.596,12.45 L22.72,12.45 L22.72,11.106 L17.596,11.106 L17.596,8.208 L23.028,8.208 L23.028,6.85 L16,6.85 L16,17 L23.028,17 Z M28.862,17 L28.862,8.208 L32.11,8.208 L32.11,6.85 L24.004,6.85 L24.004,8.208 L27.266,8.208 L27.266,17 L28.862,17 Z M33.254,17 L34.038,14.774 L38.448,14.774 L39.246,17 L40.982,17 L37.16,6.85 L35.396,6.85 L31.63,17 L33.254,17 Z M37.958,13.43 L34.514,13.43 L36.222,8.586 L37.958,13.43 Z" id="BETA"></path>
            </g>
        </g>
    </g>
</svg>