<?xml version="1.0" encoding="UTF-8"?>
<svg width="24px" height="24px" viewBox="0 0 24 24" version="1.1" xmlns="http://www.w3.org/2000/svg" xmlns:xlink="http://www.w3.org/1999/xlink">
    <g id="luna-icon-nocolour" stroke="none" stroke-width="1" fill="none" fill-rule="evenodd">
        <path d="M20.8190873,10.7124255 C20.5021724,9.9803617 20.5021724,9.9803617 12.0105767,6.91270213 C7.73615116,5.36891489 6.94300222,3.8783617 10.0367044,3.20374468 C10.1874065,3.171 10.3392575,3.1422766 10.4926405,3.11719149 C10.9656192,3.04021277 11.4512363,3 11.9460448,3 C16.4730448,3 20.2151299,6.3552766 20.8190873,10.7124255" id="Fill-7"></path>
        <path d="M20.8175746,10.7088638 C20.5707448,10.1386085 20.5079363,10.0114596 16.4292129,8.51535319 C17.290915,10.6943106 18.8096171,11.8602894 20.791915,13.3740128 C20.8658299,12.9109915 20.9043192,12.4360979 20.9043192,11.9520128 C20.9043192,11.5301617 20.8742554,11.1152043 20.8175746,10.7088638" id="Fill-4"></path>
        <path d="M12.8126107,14.1893362 C8.91561073,12.4475489 6.48350435,8.91265532 6.34161073,5.35497447 C6.33548307,5.20484681 6.15701499,5.13016596 6.04403627,5.22935745 C4.16035542,6.88516596 2.97790861,9.31842128 3.00031286,12.0276128 C3.04014265,16.8512298 6.95878095,20.8112298 11.7858448,20.9027617 C15.6834192,20.9762936 19.0268235,18.5629532 20.3329724,15.1437191 C20.3846746,15.0087191 20.2646107,14.8691234 20.124249,14.9043574 C17.8537597,15.4753787 15.2617597,15.2840809 12.8126107,14.1893362" id="Fill-1"></path>
    </g>
</svg>