<?xml version="1.0" encoding="UTF-8"?>
<svg width="24px" height="24px" viewBox="0 0 24 24" version="1.1" xmlns="http://www.w3.org/2000/svg" xmlns:xlink="http://www.w3.org/1999/xlink">
    <!-- Generator: Sketch 63.1 (92452) - https://sketch.com -->
    <title>medium-logo</title>
    <desc>Created with Sketch.</desc>
    <g id="medium-logo" stroke="none" stroke-width="1" fill="none" fill-rule="evenodd">
        <path d="M8.07662677,7 C10.8803791,7 13.1530811,9.23870021 13.1530811,12.0000844 C13.1530811,14.7614685 10.8802066,17 8.07662677,17 C5.27304696,17 3,14.7609624 3,12.0000844 C3,9.23920636 5.27287449,7 8.07662677,7 Z M16.1836379,7.29289197 C17.585514,7.29289197 18.7219513,9.40016197 18.7219513,12.0000844 L18.7221237,12.0000844 C18.7221237,14.5993319 17.5856865,16.7072767 16.1838104,16.7072767 C14.7819342,16.7072767 13.645497,14.5993319 13.645497,12.0000844 C13.645497,9.40083683 14.7817617,7.29289197 16.1836379,7.29289197 Z M20.1072698,7.78318233 C20.6002031,7.78318233 21,9.67112078 21,12.0000844 C21,14.3283731 20.6003756,16.2169864 20.1072698,16.2169864 C19.614164,16.2169864 19.2147121,14.3288792 19.2147121,12.0000844 C19.2147121,9.6712895 19.6143365,7.78318233 20.1072698,7.78318233 Z" id="Combined-Shape" fill-rule="nonzero"></path>
    </g>
</svg>