<svg width="86" height="104" viewBox="0 0 86 104" fill="none" xmlns="http://www.w3.org/2000/svg">
<path d="M63.2899 98.5306C85.1878 99.5663 87.3958 80.4205 80.9812 69.2713C74.7669 58.4702 65.4455 54.7713 50.37 56.1901C35.2946 57.6089 50.4349 82.1694 60.7776 80.3682C65.4699 79.5511 61.3981 98.4411 63.2899 98.5306Z" fill="white" stroke="black" stroke-width="2.5"/>
<path d="M22.7085 98.5306C0.810564 99.5663 -1.39744 80.4205 5.01716 69.2713C11.2315 58.4702 20.5529 54.7713 35.6283 56.1901C50.7038 57.6089 35.5635 82.1694 25.2208 80.3682C20.5285 79.5511 24.6003 98.4411 22.7085 98.5306Z" fill="white" stroke="black" stroke-width="2.5"/>
<path d="M45.7408 1.46948C53.2261 1.46948 58.0869 2.67249 62.306 4.93148C66.5251 7.19047 69.8363 10.5054 72.0927 14.7294C74.3249 18.9079 75.5248 23.7152 75.5508 31.0728V35.5437C75.5508 43.0376 74.3491 47.904 72.0927 52.1279C69.8363 56.3519 66.5251 59.6669 62.306 61.9259C58.0869 64.1848 53.2261 65.3879 45.7408 65.3879H40.2587C32.7734 65.3879 27.9126 64.1848 23.6935 61.9259C19.4743 59.6669 16.1632 56.3519 13.9068 52.1279C11.6504 47.904 10.4487 43.0376 10.4487 35.5437V31.3136C10.4487 23.8197 11.6504 18.9533 13.9068 14.7294C16.1632 10.5054 19.4743 7.19047 23.6935 4.93148C27.8672 2.69678 32.669 1.49548 40.0182 1.46948H45.7408Z" fill="white" stroke="black" stroke-width="2.5"/>
<path d="M39.0369 19.8164H46.9631C50.9788 19.8164 54.0899 20.5569 56.701 21.9473C59.3122 23.3377 61.3614 25.3781 62.7579 27.978C64.1543 30.5779 64.898 33.6756 64.898 37.674V38.6527C64.898 42.6511 64.1543 45.7488 62.7579 48.3487C61.3614 50.9485 59.3122 52.989 56.701 54.3794C54.0899 55.7698 50.9788 56.5103 46.9631 56.5103H39.0369C35.0212 56.5103 31.9101 55.7698 29.299 54.3794C26.6879 52.989 24.6386 50.9485 23.2422 48.3487C21.8457 45.7488 21.1021 42.6511 21.1021 38.6527V37.674C21.1021 33.6756 21.8457 30.5779 23.2422 27.978C24.6386 25.3781 26.6879 23.3377 29.299 21.9473C31.9101 20.5569 35.0212 19.8164 39.0369 19.8164Z" fill="white" stroke="black" stroke-width="2.5"/>
<path d="M29.0916 43.194C31.7065 43.194 33.8263 41.0742 33.8263 38.4593C33.8263 35.8444 31.7065 33.7246 29.0916 33.7246C26.4767 33.7246 24.3569 35.8444 24.3569 38.4593C24.3569 41.0742 26.4767 43.194 29.0916 43.194Z" fill="black"/>
<path d="M56.908 43.194C59.5229 43.194 61.6427 41.0742 61.6427 38.4593C61.6427 35.8444 59.5229 33.7246 56.908 33.7246C54.2931 33.7246 52.1733 35.8444 52.1733 38.4593C52.1733 41.0742 54.2931 43.194 56.908 43.194Z" fill="black"/>
<path d="M37.9692 37.5715C37.9692 40.1864 40.2215 42.3062 42.9999 42.3062C45.7782 42.3062 48.0305 40.1864 48.0305 37.5715" stroke="black" stroke-width="2.5" stroke-linecap="round"/>
<path d="M10.3706 19.9027C11.7858 20.1026 13.0134 20.6148 13.9992 21.3668C14.985 22.1189 15.7289 23.1109 16.1767 24.2703C16.6245 25.4298 16.7761 26.7567 16.5772 28.1786L16.3961 29.4734C16.1972 30.8953 15.6875 32.1288 14.939 33.1193C14.1905 34.1098 13.2032 34.8573 12.0493 35.3072C10.8954 35.7572 9.57483 35.9095 8.15968 35.7097C6.74454 35.5098 5.51691 34.9976 4.53112 34.2456C3.54533 33.4935 2.80139 32.5015 2.35361 31.3421C1.90584 30.1826 1.75423 28.8557 1.95311 27.4338L2.13422 26.139C2.3331 24.7171 2.84284 23.4836 3.59133 22.4931C4.33982 21.5026 5.32707 20.7551 6.48098 20.3052C7.63489 19.8552 8.95547 19.7029 10.3706 19.9027Z" fill="white" stroke="black" stroke-width="2.5"/>
<path d="M8.54693 24.869L7.88619 29.1378" stroke="#D8D8D8" stroke-width="3.2551" stroke-linecap="round" stroke-linejoin="round"/>
<path d="M75.5983 19.9005C74.1874 20.0944 72.9647 20.5897 71.9837 21.3172C71.0026 22.0447 70.2632 23.0044 69.8186 24.1272C69.3739 25.2501 69.2241 26.536 69.4224 27.9159L69.6748 29.6719C69.8731 31.0518 70.3795 32.2475 71.1233 33.207C71.8672 34.1664 72.8485 34.8896 73.9966 35.3245C75.1447 35.7593 76.4595 35.9058 77.8705 35.7119C79.2814 35.518 80.504 35.0227 81.4851 34.2952C82.4661 33.5677 83.2056 32.608 83.6502 31.4852C84.0948 30.3623 84.2446 29.0764 84.0463 27.6965L83.794 25.9405C83.5957 24.5606 83.0893 23.3649 82.3454 22.4054C81.6016 21.446 80.6203 20.7228 79.4722 20.2879C78.3241 19.8531 77.0093 19.7066 75.5983 19.9005Z" fill="white" stroke="black" stroke-width="2.5"/>
<path d="M77.4453 24.869L78.106 29.1378" stroke="#D8D8D8" stroke-width="3.2551" stroke-linecap="round" stroke-linejoin="round"/>
<path d="M42.9998 50.592C28.7806 50.592 17.2549 62.1189 17.2549 76.3369C17.2549 90.555 28.7818 102.082 42.9998 102.082C57.2178 102.082 68.7447 90.555 68.7447 76.3369C68.7447 62.1189 57.2195 50.592 42.9998 50.592Z" fill="#07A6B3"/>
<path d="M42.9998 50.592C28.7806 50.592 17.2549 62.1189 17.2549 76.3369C17.2549 90.555 28.7818 102.082 42.9998 102.082C57.2178 102.082 68.7447 90.555 68.7447 76.3369C68.7447 62.1189 57.2195 50.592 42.9998 50.592Z" stroke="black" stroke-width="2.5" fill="transparent"/>
<path d="M27.8295 70.5254L34.826 73.5012C34.8034 73.5988 34.7746 73.7269 34.7424 73.8708C34.533 74.5522 34.4098 75.2572 34.3756 75.9692C34.3605 76.1102 34.3552 76.2522 34.3598 76.394L34.366 76.4916C34.3974 79.0935 35.6094 81.5407 37.6612 83.145C39.713 84.7493 42.383 85.3375 44.9204 84.7442L48.8976 91.4874C47.025 92.2332 45.027 92.6151 43.0109 92.6125C34.2422 92.6125 26.7241 85.5149 26.7241 76.7574C26.7241 74.7013 27.1157 72.3281 27.8295 70.5254ZM43.0126 60.0615C51.7813 60.0615 59.2751 67.2906 59.2751 76.0459C59.2736 78.2602 59.0053 80.4695 58.2076 82.3963L58.0401 82.7765L40.2804 75.2633L51.6723 75.2136C51.2631 71.0879 47.0164 67.7341 43.0115 67.7341C42.1033 67.7333 41.2013 67.8836 40.3425 68.1787L36.4009 61.497C38.4754 60.548 40.7308 60.0583 43.0126 60.0615Z" fill="white"/>
<path d="M15.4694 93.1218L13.5493 87.7362C12.0877 83.6364 14.2757 79.1433 18.4364 77.7007L18.53 77.6689C22.7759 76.2548 27.3845 78.4676 28.8697 82.6336L30.7897 88.0192C32.2514 92.1191 30.0634 96.6121 25.9027 98.0547L25.8091 98.0865C21.5632 99.5007 16.9546 97.2878 15.4694 93.1218Z" fill="white" stroke="black" stroke-width="2.5"/>
<path d="M27.8784 82.3435L21.9897 84.3267" stroke="black" stroke-width="2.5" stroke-linecap="round"/>
<path d="M30.1113 87.3349L24.2485 89.3953" stroke="black" stroke-width="2.5" stroke-linecap="round"/>
<path d="M70.5941 93.1218L72.5141 87.7362C73.9758 83.6364 71.7878 79.1433 67.6271 77.7007L67.5335 77.6689C63.2876 76.2548 58.679 78.4676 57.1938 82.6336L55.2738 88.0192C53.8121 92.1191 56.0001 96.6121 60.1608 98.0547L60.2544 98.0865C64.5003 99.5007 69.1089 97.2878 70.5941 93.1218Z" fill="white" stroke="black" stroke-width="2.5"/>
<path d="M58.185 82.3435L64.0738 84.3267" stroke="black" stroke-width="2.5" stroke-linecap="round"/>
<path d="M55.9522 87.3349L61.8149 89.3953" stroke="black" stroke-width="2.5" stroke-linecap="round"/>
</svg>
