<svg width="24" height="24" viewBox="0 0 24 24" fill="none" xmlns="http://www.w3.org/2000/svg">
<path d="M16.583 8.93658C16.2509 8.73679 15.8192 8.73679 15.4539 8.93658L12.8635 10.4683L11.1033 11.4672L8.51292 12.9989C8.18081 13.1987 7.74908 13.1987 7.38376 12.9989L5.32472 11.8002C4.99262 11.6004 4.76015 11.2341 4.76015 10.8346V8.4704C4.76015 8.07082 4.95941 7.70455 5.32472 7.50476L7.35055 6.33932C7.68266 6.13953 8.11439 6.13953 8.4797 6.33932L10.5055 7.50476C10.8376 7.70455 11.0701 8.07082 11.0701 8.4704V10.0021L12.8303 8.96987V7.43816C12.8303 7.03858 12.631 6.6723 12.2657 6.47252L8.51292 4.27484C8.18081 4.07505 7.74908 4.07505 7.38376 4.27484L3.56458 6.47252C3.19926 6.6723 3 7.03858 3 7.43816V11.8668C3 12.2664 3.19926 12.6327 3.56458 12.8325L7.38376 15.0301C7.71587 15.2299 8.1476 15.2299 8.51292 15.0301L11.1033 13.5317L12.8635 12.4995L15.4539 11.0011C15.786 10.8013 16.2177 10.8013 16.583 11.0011L18.6089 12.1665C18.941 12.3663 19.1734 12.7326 19.1734 13.1321V15.4963C19.1734 15.8959 18.9742 16.2622 18.6089 16.4619L16.583 17.6607C16.2509 17.8605 15.8192 17.8605 15.4539 17.6607L13.428 16.4952C13.0959 16.2955 12.8635 15.9292 12.8635 15.5296V13.9979L11.1033 15.0301V16.5618C11.1033 16.9614 11.3026 17.3277 11.6679 17.5275L15.4871 19.7252C15.8192 19.9249 16.2509 19.9249 16.6162 19.7252L20.4354 17.5275C20.7675 17.3277 21 16.9614 21 16.5618V12.1332C21 11.7336 20.8007 11.3673 20.4354 11.1675L16.583 8.93658Z" />
</svg>
