<svg width="24" height="24" viewBox="0 0 24 24" fill="none" xmlns="http://www.w3.org/2000/svg">
<path d="M12 21C16.9706 21 21 16.9706 21 12C21 7.02944 16.9706 3 12 3C7.02944 3 3 7.02944 3 12C3 16.9706 7.02944 21 12 21Z" fill="#E9DFFA"/>
<path d="M15.0554 10.055C14.8339 9.92812 14.5461 9.92812 14.3026 10.055L12.5756 11.0275L11.4022 11.6617L9.67528 12.6342C9.45387 12.7611 9.16605 12.7611 8.92251 12.6342L7.54982 11.8731C7.32841 11.7463 7.17343 11.5137 7.17343 11.26V9.75899C7.17343 9.50529 7.30627 9.27273 7.54982 9.14588L8.90037 8.40592C9.12177 8.27907 9.40959 8.27907 9.65314 8.40592L11.0037 9.14588C11.2251 9.27273 11.3801 9.50529 11.3801 9.75899V10.7315L12.5535 10.0761V9.10359C12.5535 8.84989 12.4207 8.61734 12.1771 8.49049L9.67528 7.09514C9.45387 6.96829 9.16605 6.96829 8.92251 7.09514L6.37638 8.49049C6.13284 8.61734 6 8.84989 6 9.10359V11.9154C6 12.1691 6.13284 12.4017 6.37638 12.5285L8.92251 13.9239C9.14391 14.0507 9.43173 14.0507 9.67528 13.9239L11.4022 12.9725L12.5756 12.3171L14.3026 11.3658C14.524 11.2389 14.8118 11.2389 15.0554 11.3658L16.4059 12.1057C16.6273 12.2326 16.7823 12.4651 16.7823 12.7188V14.2199C16.7823 14.4736 16.6494 14.7061 16.4059 14.833L15.0554 15.5941C14.8339 15.7209 14.5461 15.7209 14.3026 15.5941L12.952 14.8541C12.7306 14.7273 12.5756 14.4947 12.5756 14.241V13.2685L11.4022 13.9239V14.8964C11.4022 15.1501 11.5351 15.3827 11.7786 15.5095L14.3247 16.9049C14.5461 17.0317 14.8339 17.0317 15.0775 16.9049L17.6236 15.5095C17.845 15.3827 18 15.1501 18 14.8964V12.0846C18 11.8309 17.8672 11.5983 17.6236 11.4715L15.0554 10.055Z" fill="#8247E5"/>
</svg>