<svg width="24" height="24" viewBox="0 0 24 24" fill="none" xmlns="http://www.w3.org/2000/svg">
<path d="M16.583 8.88795C16.2509 8.68499 15.8192 8.68499 15.4539 8.88795L12.8635 10.444L11.1033 11.4588L8.51292 13.0148C8.18081 13.2178 7.74908 13.2178 7.38376 13.0148L5.32472 11.797C4.99262 11.5941 4.76015 11.222 4.76015 10.8161V8.41438C4.76015 8.00846 4.95941 7.63636 5.32472 7.4334L7.35055 6.24947C7.68266 6.04651 8.11439 6.04651 8.4797 6.24947L10.5055 7.4334C10.8376 7.63636 11.0701 8.00846 11.0701 8.41438V9.9704L12.8303 8.92178V7.36575C12.8303 6.95983 12.631 6.58774 12.2657 6.38478L8.51292 4.15222C8.18081 3.94926 7.74908 3.94926 7.38376 4.15222L3.56458 6.38478C3.19926 6.58774 3 6.95983 3 7.36575V11.8647C3 12.2706 3.19926 12.6427 3.56458 12.8457L7.38376 15.0782C7.71587 15.2812 8.1476 15.2812 8.51292 15.0782L11.1033 13.556L12.8635 12.5074L15.4539 10.9852C15.786 10.7822 16.2177 10.7822 16.583 10.9852L18.6089 12.1691C18.941 12.3721 19.1734 12.7442 19.1734 13.1501V15.5518C19.1734 15.9577 18.9742 16.3298 18.6089 16.5328L16.583 17.7505C16.2509 17.9535 15.8192 17.9535 15.4539 17.7505L13.428 16.5666C13.0959 16.3636 12.8635 15.9915 12.8635 15.5856V14.0296L11.1033 15.0782V16.6342C11.1033 17.0402 11.3026 17.4123 11.6679 17.6152L15.4871 19.8478C15.8192 20.0507 16.2509 20.0507 16.6162 19.8478L20.4354 17.6152C20.7675 17.4123 21 17.0402 21 16.6342V12.1353C21 11.7294 20.8007 11.3573 20.4354 11.1543L16.583 8.88795Z" fill="#8247E5"/>
</svg>
