<svg width="24px" height="24px" viewBox="0 0 24 24" version="1.1" xmlns="http://www.w3.org/2000/svg" xmlns:xlink="http://www.w3.org/1999/xlink">
        <path d="M17,13 L15,13 L15,11 L13,11 L13,13 L11,13 L11,15 L13,15 L13,17 L11,17 L9,17 L9,15 L9,13 L7,13 L5,13 L5,11 L5,9 L5,7 L5,5 L7,5 L9,5 L11,5 L13,5 L13,7 L13,9 L15,9 L15,7 L17,7 L17,9 L19,9 L19,11 L19,13 L19,15 L17,15 L17,13 Z M7,7 L7,9 L7,11 L9,11 L11,11 L11,9 L11,7 L9,7 L7,7 Z M17,5 L19,5 L19,7 L17,7 L17,5 Z M13,13 L15,13 L15,15 L13,15 L13,13 Z M5,15 L7,15 L7,17 L5,17 L5,15 Z M7,17 L9,17 L9,19 L7,19 L7,17 Z M17,17 L19,17 L19,19 L17,19 L17,17 Z M13,17 L15,17 L15,19 L13,19 L13,17 Z M8,8 L10,8 L10,10 L8,10 L8,8 Z" fill-rule="nonzero"></path>
</svg>