<svg width="15" height="14" viewBox="0 0 15 14" fill="none" xmlns="http://www.w3.org/2000/svg">
<path fill-rule="evenodd" clip-rule="evenodd" d="M11.8648 5.55334C12.1648 5.26605 12.573 5.08242 13.0369 5.08242C14.7471 5.08242 15.3162 7.27709 13.7729 8.03531C13.841 8.26929 13.8688 8.52993 13.8688 8.77872C13.8688 11.2607 10.9494 13.2717 7.34955 13.2717C3.76519 13.2717 0.845747 11.2607 0.845747 8.77872C0.845747 8.52993 0.870488 8.28114 0.926155 8.04716C-0.647993 7.2919 -0.0851347 5.08242 1.63437 5.08242C2.09826 5.08242 2.52195 5.26605 2.82194 5.56519C3.9291 4.83363 5.40119 4.3627 7.03719 4.29754L7.97735 0.222134C8.01755 0.0770063 8.166 -0.026656 8.31754 0.0118471L11.3298 0.651592C11.5339 0.275446 11.9452 0 12.4215 0C13.1049 0 13.6492 0.536082 13.6492 1.17583C13.6492 1.81557 13.1018 2.35165 12.4215 2.35165C11.7534 2.35165 11.2091 1.83038 11.2091 1.19064L8.48145 0.604203L7.62479 4.30051C9.27316 4.35086 10.7607 4.82178 11.8648 5.55334ZM4.64968 7.02831C3.96621 7.02831 3.42191 7.55254 3.42191 8.20413C3.42191 8.84388 3.9693 9.36811 4.64968 9.36515C5.31769 9.36515 5.86199 8.84388 5.86199 8.20413C5.86199 7.54958 5.31769 7.02831 4.64968 7.02831ZM10.0494 10.9734C8.92369 12.0515 5.74756 12.0515 4.62185 10.9734C4.49814 10.8697 4.49814 10.6861 4.62185 10.5676C4.73009 10.464 4.92183 10.464 5.03007 10.5676C5.88982 11.4117 8.74123 11.4265 9.63809 10.5676C9.74633 10.464 9.93808 10.464 10.0463 10.5676C10.1731 10.6861 10.1731 10.8697 10.0494 10.9734ZM8.81236 8.20709C8.81236 8.84684 9.35666 9.36811 10.0247 9.36811C10.705 9.36811 11.2494 8.84388 11.2524 8.20709C11.2524 7.55254 10.705 7.03127 10.0247 7.03127C9.35666 7.03127 8.81236 7.5555 8.81236 8.20709Z" fill="#585861"/>
</svg>
