<svg width="115px" height="23px" viewBox="0 0 115 23" version="1.1" xmlns="http://www.w3.org/2000/svg" xmlns:xlink="http://www.w3.org/1999/xlink">
    <g id="RenBridge_v2-MultiWallet" stroke="none" stroke-width="1" fill="none" fill-rule="evenodd">
        <g id="connect-Wallet-Copy" transform="translate(-140.000000, -52.000000)" fill="#3F3F41" fill-rule="nonzero">
            <g id="renbridge-black-2" transform="translate(140.000000, 52.000000)">
                <g id="renbridge-black">
                    <path d="M26.4572,7.5166 C27.4589,8.7913 27.9671,10.5637 27.9671,12.8317 L18.5339,12.8317 C18.6326,14.0014 18.9539,14.9065 19.4894,15.5155 C20.084329,16.1509531 20.9302688,16.4900981 21.7994,16.4416 C22.5347609,16.4750272 23.261181,16.2694783 23.87,15.8557 C24.357162,15.4373088 24.7409621,14.9119196 24.9914,14.3206 L27.7676,14.3206 C27.4943239,15.4560561 26.8820024,16.4814747 26.012,17.2606 C24.8346491,18.2369191 23.3406935,18.7485989 21.812,18.6991 C19.9346,18.6991 18.452,18.1132 17.3516,16.9708 C16.1819,15.7759 15.596,14.14 15.596,12.0442 C15.596,10.1668 16.1315,8.6065 17.2529,7.3381 C18.326,6.0445 19.8002,5.4271 21.6902,5.4271 C23.765,5.4103 25.3484,6.0949 26.4446,7.5061 M19.607,8.47 C19.0387844,9.10141105 18.6813315,9.8941198 18.5843,10.738 L25.0691,10.738 C24.8255,8.6884 23.7272,7.6909 21.7763,7.6909 C20.9765459,7.63924257 20.1911435,7.92131836 19.607,8.47 L19.607,8.47 Z" id="Shape"></path>
                    <path d="M41.4743,10.591 L41.4743,18.361 L38.696,18.361 L38.696,10.8346 C38.696,8.7598 37.7405,7.7371 35.8274,7.7371 C35.1534537,7.73321039 34.5054777,7.99678108 34.0256,8.47 C33.4112932,9.08619471 33.0507949,9.91061918 33.0155,10.78 L33.0155,18.3631 L30.2372,18.3631 L30.2372,5.7631 L33.0155,5.7631 L33.0155,7.2331 C33.4657839,6.67275817 34.0307236,6.21522144 34.6724,5.8912 C35.3165889,5.57629515 36.0260489,5.41799779 36.743,5.4292 C39.8804,5.4292 41.4743,7.1344 41.4743,10.5973" id="Path"></path>
                    <path d="M14.798,18.3694 L9.8126,11.137 C10.7366902,11.0051694 11.6131061,10.6442074 12.362,10.087 C13.4351,9.205 14,7.9387 14,6.2776 L14,5.95 C14,4.2931 13.4393,3.0268 12.3662,2.1469 C11.3435,1.3426 9.9281,0.952 8.1473,0.952 L0.3773,0.952 L0.3773,18.3589 L3.2459,18.3589 L3.2459,11.2735 L6.2951,11.2735 L11.1629,18.3694 L14.798,18.3694 Z M3.248,3.3985 L7.7588,3.3985 C8.8802,3.3985 9.7349,3.6421 10.3082,4.1041 C10.8540829,4.62704756 11.1466725,5.36081951 11.1104,6.1159 C11.1463351,6.87030783 10.8537508,7.60330041 10.3082,8.1256 C9.7223,8.5876 8.8718,8.8333 7.7588,8.8333 L3.2396,8.8333 L3.248,3.3985 Z" id="Shape"></path>
                    <path d="M51.45,0.6706 C54.6819,0.6706 57.6933,1.5106 57.6933,5.0932 C57.6933,6.7438 56.8911,8.2432 55.7487,8.9068 C57.33,9.6103 58.4031,10.8262 58.4031,13.09 C58.4031,16.8322 55.5366,18.2896 51.9666,18.2896 L44.9694,18.2896 L44.9694,0.6706 L51.45,0.6706 Z M51.7902,8.1298 C53.6802,8.1298 54.9003,7.3276 54.9003,5.4334 C54.9003,3.7534 53.6403,2.9554 51.7902,2.9554 L47.7393,2.9554 L47.7393,8.1298 L51.7902,8.1298 Z M52.0338,15.9985 C54.39,15.9985 55.5555,14.9485 55.5555,13.0837 C55.5555,11.1412 54.39,10.2655 51.8868,10.2655 L47.7393,10.2655 L47.7393,15.9985 L52.0338,15.9985 Z" id="Shape"></path>
                    <path d="M66.1857,7.7392 C64.2411,7.7392 63.2226,8.6884 63.2226,11.4331 L63.2226,18.2833 L60.69,18.2833 L60.69,5.2129 L63.1659,5.2129 L63.1659,7.5229 C63.7895623,6.08132876 65.2156631,5.15320518 66.7863,5.1667 C67.0217808,5.16254903 67.2573153,5.17096098 67.4919,5.1919 L67.4919,7.8127 C67.0580545,7.7657434 66.6220746,7.74121077 66.1857,7.7392 L66.1857,7.7392 Z" id="Path"></path>
                    <path d="M71.4105,3.4657 L68.88,3.4657 L68.88,0.6706 L71.4,0.6706 L71.4105,3.4657 Z M71.4105,18.2833 L68.88,18.2833 L68.88,5.2129 L71.4,5.2129 L71.4105,18.2833 Z" id="Shape"></path>
                    <path d="M85.6506,0.6706 L85.6506,18.2833 L83.1306,18.2833 L83.1306,16.4374 C82.3284,17.773 80.9697,18.5983 79.0503,18.5983 C76.0137,18.5983 73.4139,16.0489 73.4139,11.7733 C73.4139,7.4977 76.0137,4.9714 79.0503,4.9714 C80.9697,4.9714 82.3284,5.7967 83.1306,7.1323 L83.1306,0.6706 L85.6506,0.6706 Z M76.104,11.7733 C76.104,14.7133 77.5362,16.4857 79.6257,16.4857 C81.5703,16.4857 83.2209,15.0031 83.2209,11.7733 C83.2209,8.5435 81.5703,7.084 79.6257,7.084 C77.5362,7.084 76.104,8.8333 76.104,11.7733 Z" id="Shape"></path>
                    <path d="M99.7689,5.2129 L99.7689,16.7629 C99.7689,19.1674 99.2607,20.4547 98.3598,21.3535 C97.3644,22.4035 95.7852,22.9327 93.7944,22.9327 C90.8796,22.9327 88.7418,21.6727 88.3344,18.9259 L90.93,18.9259 C91.1967,20.1145 91.9506,20.8159 93.8448,20.8159 C95.0838,20.8159 95.9448,20.4757 96.4677,19.8688 C96.978,19.3102 97.2447,18.6298 97.2447,17.2942 L97.2447,15.9082 C96.4446,17.2438 95.1321,18.0712 93.2127,18.0712 C90.1761,18.0712 87.6498,15.6667 87.6498,11.5108 C87.6498,7.3549 90.1698,4.9777 93.2127,4.9777 C95.1321,4.9777 96.4446,5.803 97.2447,7.1386 L97.2447,5.2129 L99.7689,5.2129 Z M90.3441,11.5129 C90.3441,14.3563 91.7049,16.0069 93.7944,16.0069 C95.7369,16.0069 97.3413,14.6482 97.3413,11.5129 C97.3413,8.3776 95.7369,7.06926809 93.7944,7.06926809 C91.7049,7.0609 90.3441,8.7115 90.3441,11.5045 L90.3441,11.5129 Z" id="Shape"></path>
                    <path d="M114.1434,14.4445 C113.5365,16.6075 111.594,18.5983 108.2634,18.5983 C104.0361,18.5983 101.7534,15.5134 101.7534,11.725 C101.7534,7.6678 104.4834,4.9714 108.1899,4.9714 C112.2219,4.9714 114.5802,8.2747 114.3114,12.5314 L104.3532,12.5314 C104.5968,14.9359 106.1277,16.4437 108.1689,16.4437 C109.9896,16.4437 111.0585,15.6898 111.594,14.4508 L114.1434,14.4445 Z M111.6906,10.5343 C111.6171,8.5897 110.2584,7.0357 108.1689,7.0357 C106.2012,7.0357 104.7438,8.0563 104.4036,10.5343 L111.6906,10.5343 Z" id="Shape"></path>
                </g>
            </g>
        </g>
    </g>
</svg>