<?xml version="1.0" encoding="UTF-8"?>
<svg width="124px" height="29px" viewBox="0 0 124 29" version="1.1" xmlns="http://www.w3.org/2000/svg" xmlns:xlink="http://www.w3.org/1999/xlink">
    <!-- Generator: Sketch 63.1 (92452) - https://sketch.com -->
    <title>renvm-logo</title>
    <desc>Created with Sketch.</desc>
    <g id="RenBridge_v2" stroke="none" stroke-width="1" fill="none" fill-rule="evenodd">
        <g id="About-2-Light" transform="translate(-666.000000, -702.000000)" fill="#3F3F41" fill-rule="nonzero">
            <g id="Group-15" transform="translate(494.000000, 686.000000)">
                <g id="renvm-logo" transform="translate(172.800000, 16.800000)">
                    <path d="M40.476528,10.174752 C42.028944,12.152352 42.819984,14.901216 42.819984,18.421344 L28.1808,18.421344 C28.334064,20.235792 28.82352,21.639888 29.664,22.584192 C30.5892078,23.5734156 31.9060498,24.1005146 33.258288,24.022896 C34.3994928,24.0735722 35.5265719,23.7545221 36.471888,23.1132 C37.2278839,22.4635985 37.8234842,21.6480322 38.212176,20.730192 L42.5184,20.730192 C42.0991399,22.4986066 41.1484853,24.0962584 39.794256,25.308336 C37.9711051,26.8226876 35.6568303,27.6175601 33.287952,27.543024 C30.375936,27.543024 28.067088,26.633328 26.366352,24.858432 C24.551904,23.004432 23.642208,20.46816 23.642208,17.215008 C23.642208,14.302992 24.4728,11.880432 26.213088,9.91272 C27.879216,7.905456 30.168288,6.94632 33.10008,6.94632 C36.318624,6.9216 38.775792,7.98456 40.476528,10.174752 Z M29.846928,11.657952 C28.9657878,12.6384315 28.4111962,13.8685538 28.259904,15.17808 L38.320944,15.17808 C37.9452,11.999088 36.23952,10.451616 33.213792,10.451616 C31.9735778,10.3686914 30.7544935,10.8036951 29.846928,11.653008 L29.846928,11.657952 Z" id="Shape"></path>
                    <path d="M63.7776,14.945712 L63.7776,27.009072 L59.466432,27.009072 L59.466432,15.3264 C59.466432,12.107856 57.983232,10.520832 55.016832,10.520832 C53.9703619,10.5147511 52.9641328,10.9236428 52.218528,11.657952 C51.2667825,12.6150824 50.7076973,13.8937471 50.65128,15.242352 L50.65128,27.009072 L46.340112,27.009072 L46.340112,7.455552 L50.65128,7.455552 L50.65128,9.724848 C51.3497227,8.85536374 52.2263593,8.14562523 53.22216,7.643424 C54.2215123,7.15345462 55.3229159,6.90775689 56.43576,6.926544 C61.3056,6.9216 63.7776,9.571584 63.7776,14.945712 Z" id="Path"></path>
                    <path d="M22.386432,27.014016 L14.649072,15.791136 C16.0833334,15.5840968 17.4430108,15.0215303 18.604272,14.154672 C20.2704,12.795072 21.140544,10.82736 21.140544,8.251536 L21.140544,7.757136 C21.140544,5.186256 20.2704,3.218544 18.604272,1.854 C17.017248,0.608112 14.832,0 12.058416,0 L0,0 L0,27.009072 L4.4496,27.009072 L4.4496,16.003728 L9.181008,16.003728 L16.73544,27.014016 L22.386432,27.014016 Z M4.4496,3.78216 L11.450304,3.78216 C13.190592,3.78216 14.515584,4.162848 15.405504,4.879728 C16.2523611,5.69054147 16.7067319,6.82827166 16.651392,7.999392 C16.7067319,9.17051234 16.2523611,10.3082425 15.405504,11.119056 C14.495808,11.835936 13.17576,12.216624 11.450304,12.216624 L4.4496,12.216624 L4.4496,3.78216 Z" id="Shape"></path>
                    <polygon id="Path" points="70.77336 0 78.456336 22.39632 78.570048 22.39632 86.208528 0 90.658128 0 80.987664 27.014016 75.994224 27.014016 66.308928 0"></polygon>
                    <polygon id="Path" points="98.968992 0 108.392256 21.639888 108.505968 21.639888 117.884736 0 122.764464 0 122.764464 27.014016 118.656 27.014016 118.656 7.732416 118.502736 7.732416 110.216592 27.014016 106.661856 27.014016 98.3856 7.717584 98.232336 7.717584 98.232336 26.999184 94.10904 26.999184 94.10904 0"></polygon>
                </g>
            </g>
        </g>
    </g>
</svg>