<svg width="24px" height="24px" viewBox="0 0 24 24" version="1.1" xmlns="http://www.w3.org/2000/svg">
        <path d="M12,3 C16.9705627,3 21,7.02943725 21,12 C21,16.9705627 16.9705627,21 12,21 C7.02943725,21 3,16.9705627 3,12 C3,7.02943725 7.02943725,3 12,3 Z M12,4.8 C8.0235498,4.8 4.8,8.0235498 4.8,12 C4.8,15.9764502 8.0235498,19.2 12,19.2 C15.9764502,19.2 19.2,15.9764502 19.2,12 C19.2,8.0235498 15.9764502,4.8 12,4.8 Z M13,11 L13,16 L11,16 L11,11 L13,11 Z M13,8 L13,10 L11,10 L11,8 L13,8 Z" id="Combined-Shape" fill-rule="nonzero"></path>
</svg>