<?xml version="1.0" encoding="UTF-8"?>
<svg width="24px" height="24px" viewBox="0 0 24 24" version="1.1" xmlns="http://www.w3.org/2000/svg" xmlns:xlink="http://www.w3.org/1999/xlink">
    <!-- Generator: Sketch 63.1 (92452) - https://sketch.com -->
    <title>tooltip</title>
    <desc>Created with Sketch.</desc>
        <g id="Group" transform="translate(3.000000, 3.000000)" fill-rule="nonzero">
            <path d="M9,0 C4.02943725,0 0,4.02943725 0,9 C0,13.9705627 4.02943725,18 9,18 C13.9705627,18 18,13.9705627 18,9 C18,4.02943725 13.9705627,0 9,0 Z M9,1.8 C12.9764502,1.8 16.2,5.0235498 16.2,9 C16.2,12.9764502 12.9764502,16.2 9,16.2 C5.0235498,16.2 1.8,12.9764502 1.8,9 C1.8,5.0235498 5.0235498,1.8 9,1.8 Z" id="Oval-Copy-2"></path>
            <polygon id="Line-5-Copy-4" points="10 8 10 13 8 13 8 8"></polygon>
            <polygon id="Line-5-Copy-5" points="10 5 10 7 8 7 8 5"></polygon>
    </g>
</svg>
