<?xml version="1.0" encoding="UTF-8"?>
<svg width="24px" height="24px" viewBox="0 0 24 24" version="1.1" xmlns="http://www.w3.org/2000/svg" xmlns:xlink="http://www.w3.org/1999/xlink">
    <!-- Generator: Sketch 63.1 (92452) - https://sketch.com -->
    <title>tx-history</title>
    <desc>Created with Sketch.</desc>
        <g id="Group" transform="translate(3.500000, 6.000000)" fill-rule="nonzero">
            <polygon id="Path" points="2.42857143 7.2 -5.77315973e-15 7.2 -5.77315973e-15 4.8 2.42857143 4.8"></polygon>
            <polygon id="Path" points="2.42857143 9.6 -5.77315973e-15 9.6 -5.77315973e-15 12 2.42857143 12"></polygon>
            <polygon id="Path" points="2.42857143 -1.13242749e-14 -5.77315973e-15 -1.13242749e-14 -5.77315973e-15 2.4 2.42857143 2.4"></polygon>
            <polygon id="Path" points="4.85714286 7.2 17 7.2 17 4.8 4.85714286 4.8"></polygon>
            <polygon id="Path" points="4.85714286 -1.13242749e-14 4.85714286 2.4 17 2.4 17 -1.13242749e-14"></polygon>
            <polygon id="Path" points="4.85714286 12 17 12 17 9.6 4.85714286 9.6"></polygon>
        </g>
</svg>
