<svg width="24px" height="24px" viewBox="0 0 24 24" version="1.1" xmlns="http://www.w3.org/2000/svg" xmlns:xlink="http://www.w3.org/1999/xlink">
        <path d="M5.92857143,13.2 L3.5,13.2 L3.5,10.8 L5.92857143,10.8 L5.92857143,13.2 Z M5.92857143,15.6 L3.5,15.6 L3.5,18 L5.92857143,18 L5.92857143,15.6 Z M5.92857143,6 L3.5,6 L3.5,8.4 L5.92857143,8.4 L5.92857143,6 Z M8.35714286,13.2 L20.5,13.2 L20.5,10.8 L8.35714286,10.8 L8.35714286,13.2 Z M8.35714286,6 L8.35714286,8.4 L20.5,8.4 L20.5,6 L8.35714286,6 Z M8.35714286,18 L20.5,18 L20.5,15.6 L8.35714286,15.6 L8.35714286,18 Z" id="Shape" fill-rule="nonzero"></path>
</svg>