<svg viewBox="0 0 24 24" version="1.1" xmlns="http://www.w3.org/2000/svg">
        <path d="M3.42857143,13.7857143 L0,13.7857143 L0,10.3571429 L3.42857143,10.3571429 L3.42857143,13.7857143 Z M3.42857143,17.2142857 L0,17.2142857 L0,20.6428571 L3.42857143,20.6428571 L3.42857143,17.2142857 Z M3.42857143,3.5 L0,3.5 L0,6.92857143 L3.42857143,6.92857143 L3.42857143,3.5 Z M6.85714286,13.7857143 L24,13.7857143 L24,10.3571429 L6.85714286,10.3571429 L6.85714286,13.7857143 Z M6.85714286,3.5 L6.85714286,6.92857143 L24,6.92857143 L24,3.5 L6.85714286,3.5 Z M6.85714286,20.6428571 L24,20.6428571 L24,17.2142857 L6.85714286,17.2142857 L6.85714286,20.6428571 Z"/>
</svg>
