<?xml version="1.0" encoding="UTF-8"?>
<svg width="24px" height="24px" viewBox="0 0 24 24" version="1.1" xmlns="http://www.w3.org/2000/svg">
            <path d="M3.68631257,2.17537567 C6.62098602,-0.697914306 11.3790318,-0.697914306 14.3137051,2.17537567 L14.6668978,2.52118072 C14.8136315,2.6648452 14.8136315,2.89777139 14.6668978,3.04143594 L13.4586961,4.22436612 C13.3853293,4.29619843 13.2663781,4.29619843 13.1930113,4.22436612 L12.7069762,3.74849725 C10.6596747,1.74401834 7.34034306,1.74401834 5.29304149,3.74849725 L4.77253812,4.25811355 C4.69917122,4.3299458 4.58022006,4.3299458 4.50685328,4.25811355 L3.29865159,3.07518337 C3.15191792,2.93151881 3.15191792,2.69859263 3.29865159,2.55492814 L3.68631257,2.17537567 Z M16.8123803,4.62180037 L17.8876822,5.67461419 C18.0344151,5.818278 18.0344159,6.0512028 17.887684,6.19486758 L13.0390738,10.9421356 C12.8923411,11.0858012 12.6544388,11.0858028 12.5077042,10.9421393 C12.5077036,10.9421387 12.5077028,10.942138 12.5077022,10.9421374 L9.06645366,7.5728631 C9.02977026,7.53694698 8.97029466,7.53694698 8.93361126,7.5728631 C8.93361102,7.57286334 8.93361084,7.57286358 8.9336106,7.57286376 L5.49243533,10.9421356 C5.34570312,11.0858015 5.1078008,11.0858039 4.96106566,10.9421408 C4.9610648,10.94214 4.96106388,10.9421392 4.96106296,10.9421382 L0.112317796,6.1948071 C-0.0344158163,6.05114262 -0.0344158163,5.81821641 0.112317796,5.67455192 L1.18762157,4.62173988 C1.33435519,4.47807539 1.57225751,4.47807539 1.71899119,4.62173988 L5.16028984,7.9910613 C5.19697328,8.02697742 5.25644878,8.02697742 5.29313222,7.9910613 C5.29313278,7.99106076 5.29313327,7.99106028 5.29313381,7.99105986 L8.73426,4.62173988 C8.8809903,4.47807208 9.11889264,4.47806669 9.26562966,4.62172788 C9.2656317,4.6217299 9.26563374,4.62173192 9.26563572,4.62173394 L12.7069298,7.99105986 C12.7436132,8.02697592 12.8030888,8.02697592 12.8397722,7.99105986 L16.2810107,4.62180037 C16.4277444,4.47813581 16.6656467,4.47813581 16.8123803,4.62180037 Z" id="WalletConnect"></path>
</svg>
