<svg width="24px" height="24px" viewBox="0 0 24 24" version="1.1" xmlns="http://www.w3.org/2000/svg" xmlns:xlink="http://www.w3.org/1999/xlink">
        <path d="M12,3 C7.03098592,3 3,7.03098592 3,12 C3,16.9690141 7.03098592,21 12,21 C16.9690141,21 21,16.9690141 21,12 C21,7.03098592 16.9690141,3 12,3 Z M12,19.5042254 C7.84225352,19.5042254 4.49577465,16.1323944 4.49577465,12 C4.49577465,7.86760563 7.84225352,4.49577465 12,4.49577465 C16.1577465,4.49577465 19.5042254,7.86760563 19.5042254,12 C19.5042254,16.1577465 16.1577465,19.5042254 12,19.5042254 Z" id="Shape" fill="#000000" fill-rule="nonzero"></path>
        <path d="M12,4.90140845 C8.07042254,4.90140845 4.90140845,8.07042254 4.90140845,12 C4.90140845,15.9295775 8.07042254,19.0985915 12,19.0985915 C15.9295775,19.0985915 19.0985915,15.9295775 19.0985915,12 L19.0985915,12 C19.0985915,8.09577465 15.9295775,4.90140845 12,4.90140845 Z" id="Path" fill="#F3B63B" fill-rule="nonzero"></path>
        <polygon id="Path" fill="#000000" fill-rule="nonzero" points="15.2197183 9.18591549 11.4169014 14.3577465 15.2197183 14.3577465 15.2197183 16.1830986 12.7605634 16.1830986 12.7605634 17.6788732 11.2394366 17.6788732 11.2394366 16.1830986 8.78028169 16.1830986 8.78028169 14.7887324 12.5830986 9.64225352 8.78028169 9.64225352 8.78028169 7.81690141 11.2394366 7.81690141 11.2394366 6.32112676 12.7605634 6.32112676 12.7605634 7.81690141 15.2197183 7.81690141"></polygon>
</svg>