<svg width="257" height="256" viewBox="0 0 257 256" fill="none" xmlns="http://www.w3.org/2000/svg">
<path fill-rule="evenodd" clip-rule="evenodd" d="M19.866 194.93C21.9711 198.355 24.2328 201.674 26.6413 204.875L42.365 195.797C39.8912 192.641 37.5861 189.345 35.4635 185.925L19.866 194.93ZM225.93 75.9595C227.825 79.4833 229.535 83.1222 231.044 86.8632L246.769 77.7846C245.188 74.0815 243.437 70.4682 241.527 66.9543L225.93 75.9595ZM235.306 56.6897L219.674 65.7149C217.381 62.3832 214.909 59.1841 212.273 56.1316L228.103 46.9917C230.652 50.1055 233.056 53.3415 235.306 56.6897ZM29.7005 175.396L14.0682 184.421C12.2971 180.821 10.6902 177.124 9.25729 173.343L25.0901 164.202C26.4253 168.034 27.9665 171.77 29.7005 175.396ZM2.55881 107.928C3.41325 102.503 4.60851 97.1906 6.12198 92.0143L31.2387 77.5132C28.2548 83.2791 25.7661 89.3427 23.8287 95.6477L2.55881 107.928ZM47.2117 54.4348C62.5078 37.4412 83.0244 25.2401 106.236 20.3571L140.597 0.518788C136.775 0.175408 132.905 0 128.994 0C77.4683 0 33.0532 30.445 12.7567 74.3274L47.2117 54.4348ZM153.553 20.7517C147.262 19.3172 140.766 18.4219 134.116 18.1171L159.261 3.59946C164.595 4.89255 169.798 6.51972 174.847 8.45756L153.553 20.7517ZM108.826 254.42C115.396 255.46 122.132 256 128.994 256C183.574 256 230.175 221.839 248.583 173.732L219.517 190.513C201.247 216.918 171.723 234.941 137.879 237.646L108.826 254.42ZM230.58 170.269L253.715 156.912C254.871 151.905 255.734 146.786 256.283 141.574L236.086 153.234C234.707 159.108 232.858 164.8 230.58 170.269ZM114.831 237.097L91.6657 250.471C86.6678 248.95 81.7996 247.131 77.0817 245.035L97.2966 233.364C102.963 235.067 108.821 236.324 114.831 237.097ZM5.46949 161.673C4.37511 157.649 3.47211 153.546 2.77087 149.375L19.6044 139.656C20.0568 143.952 20.7566 148.174 21.6892 152.309L5.46949 161.673ZM203.677 47.2378C200.543 44.3376 197.239 41.6176 193.782 39.0944L210.601 29.3838C213.835 32.0629 216.935 34.898 219.889 37.8776L203.677 47.2378ZM182.398 31.8105L200.132 21.5721C196.329 19.0256 192.383 16.6774 188.307 14.5424L169.194 25.5772C173.752 27.3674 178.161 29.453 182.398 31.8105ZM1.26459 136.388L19.0095 126.143C19.0912 121.207 19.498 116.351 20.2093 111.594L1.10501 122.624C1.03134 124.407 0.994141 126.199 0.994141 128C0.994141 130.818 1.08522 133.615 1.26459 136.388ZM53.1646 231.131C56.7623 233.781 60.5037 236.247 64.3748 238.515L82.8173 227.868C78.5413 225.887 74.4138 223.64 70.4564 221.148L53.1646 231.131ZM238.919 123.886C238.969 125.251 238.994 126.623 238.994 128C238.994 131.356 238.844 134.676 238.55 137.955L256.992 127.308C256.968 122.777 256.709 118.302 256.226 113.894L238.919 123.886ZM254.187 101.214L237.651 110.761C236.992 106.574 236.097 102.464 234.979 98.4477L251.006 89.1945C252.254 93.1223 253.318 97.1323 254.187 101.214ZM59.748 213.474L43.2236 223.014C40.1468 220.235 37.2057 217.308 34.4113 214.246L50.4336 204.995C53.3732 207.994 56.4833 210.826 59.748 213.474Z" fill="#B3BDC7"/>
<path d="M128.998 228C184.228 228 228.998 183.23 228.998 128C228.998 72.77 184.228 28 128.998 28C73.768 28 28.998 72.77 28.998 128C28.998 183.23 73.768 228 128.998 228Z" fill="#272C33"/>
<path fill-rule="evenodd" clip-rule="evenodd" d="M86.9495 160.434C87.3618 159.951 87.864 159.565 88.4242 159.301C88.9839 159.036 89.5901 158.9 90.2023 158.899L190.57 158.987C190.998 158.988 191.415 159.121 191.773 159.37C192.131 159.619 192.413 159.974 192.585 160.391C192.758 160.807 192.812 161.269 192.743 161.718C192.674 162.167 192.484 162.586 192.196 162.922L170.823 187.998C170.41 188.481 169.908 188.867 169.347 189.131C168.787 189.396 168.181 189.532 167.567 189.532L67.2024 189.445C66.775 189.444 66.357 189.311 65.9993 189.061C65.6415 188.812 65.3594 188.458 65.1871 188.041C65.0149 187.624 64.9599 187.163 65.029 186.714C65.098 186.264 65.288 185.846 65.576 185.509L86.9495 160.434ZM192.196 139.56C192.484 139.896 192.674 140.315 192.743 140.764C192.812 141.213 192.758 141.675 192.585 142.091C192.413 142.508 192.131 142.863 191.773 143.112C191.415 143.361 190.998 143.494 190.57 143.495L90.2051 143.583C89.5923 143.583 88.9861 143.446 88.4253 143.182C87.8645 142.918 87.3618 142.531 86.9495 142.048L65.576 116.958C65.288 116.622 65.098 116.203 65.029 115.754C64.9599 115.305 65.0149 114.843 65.1871 114.426C65.3594 114.01 65.6415 113.655 65.9993 113.406C66.357 113.157 66.775 113.024 67.2024 113.023L167.57 112.935C168.183 112.936 168.788 113.072 169.349 113.336C169.909 113.601 170.411 113.986 170.823 114.47L192.196 139.56ZM86.9495 68.5346C87.3618 68.0516 87.864 67.6656 88.4242 67.4014C88.9839 67.1372 89.5901 67.0004 90.2023 67L190.57 67.0875C190.998 67.0885 191.415 67.2216 191.773 67.4708C192.131 67.72 192.413 68.0746 192.585 68.4913C192.758 68.9082 192.812 69.3693 192.743 69.8187C192.674 70.2681 192.484 70.6865 192.196 71.0231L170.823 96.0985C170.41 96.5816 169.908 96.9679 169.347 97.2322C168.787 97.4966 168.181 97.6331 167.567 97.6331L67.2024 97.5456C66.775 97.5444 66.357 97.4114 65.9993 97.1622C65.6415 96.9131 65.3594 96.5583 65.1871 96.1417C65.0149 95.7251 64.9599 95.2635 65.029 94.8143C65.098 94.365 65.288 93.9466 65.576 93.6099L86.9495 68.5346Z" fill="url(#paint0_linear)"/>
<defs>
<linearGradient id="paint0_linear" x1="68.8782" y1="192.205" x2="196.498" y2="72.4296" gradientUnits="userSpaceOnUse">
<stop stop-color="#9945FF"/>
<stop offset="0.2" stop-color="#7962E7"/>
<stop offset="1" stop-color="#00D18C"/>
</linearGradient>
</defs>
</svg>
