<svg width="257" height="256" viewBox="0 0 257 256" fill="none" xmlns="http://www.w3.org/2000/svg">
<path fill-rule="evenodd" clip-rule="evenodd" d="M19.866 194.93C21.9711 198.355 24.2328 201.674 26.6413 204.875L42.365 195.797C39.8912 192.641 37.5861 189.345 35.4635 185.925L19.866 194.93ZM225.93 75.9595C227.825 79.4833 229.535 83.1222 231.044 86.8632L246.769 77.7846C245.188 74.0815 243.437 70.4682 241.527 66.9543L225.93 75.9595ZM235.306 56.6897L219.674 65.7149C217.381 62.3832 214.909 59.1841 212.273 56.1316L228.103 46.9917C230.652 50.1055 233.056 53.3415 235.306 56.6897ZM29.7005 175.396L14.0682 184.421C12.2971 180.821 10.6902 177.124 9.25729 173.343L25.0901 164.202C26.4253 168.034 27.9665 171.77 29.7005 175.396ZM2.55881 107.928C3.41325 102.503 4.60851 97.1906 6.12198 92.0143L31.2387 77.5132C28.2548 83.2791 25.7661 89.3427 23.8287 95.6477L2.55881 107.928ZM47.2117 54.4348C62.5078 37.4412 83.0244 25.2401 106.236 20.3571L140.597 0.518788C136.775 0.175408 132.905 0 128.994 0C77.4683 0 33.0532 30.445 12.7567 74.3274L47.2117 54.4348ZM153.553 20.7517C147.262 19.3172 140.766 18.4219 134.116 18.1171L159.261 3.59946C164.595 4.89255 169.798 6.51972 174.847 8.45756L153.553 20.7517ZM108.826 254.42C115.396 255.46 122.132 256 128.994 256C183.574 256 230.175 221.839 248.583 173.732L219.517 190.513C201.247 216.918 171.723 234.941 137.879 237.646L108.826 254.42ZM230.58 170.269L253.715 156.912C254.871 151.905 255.734 146.786 256.283 141.574L236.086 153.234C234.707 159.108 232.858 164.8 230.58 170.269ZM114.831 237.097L91.6657 250.471C86.6678 248.95 81.7996 247.131 77.0817 245.035L97.2966 233.364C102.963 235.067 108.821 236.324 114.831 237.097ZM5.46949 161.673C4.37511 157.649 3.47211 153.546 2.77087 149.375L19.6044 139.656C20.0568 143.952 20.7566 148.174 21.6892 152.309L5.46949 161.673ZM203.677 47.2378C200.543 44.3376 197.239 41.6176 193.782 39.0944L210.601 29.3838C213.835 32.0629 216.935 34.898 219.889 37.8776L203.677 47.2378ZM182.398 31.8105L200.132 21.5721C196.329 19.0256 192.383 16.6774 188.307 14.5424L169.194 25.5772C173.752 27.3674 178.161 29.453 182.398 31.8105ZM1.26459 136.388L19.0095 126.143C19.0912 121.207 19.498 116.351 20.2093 111.594L1.10501 122.624C1.03134 124.407 0.994141 126.199 0.994141 128C0.994141 130.818 1.08522 133.615 1.26459 136.388ZM53.1646 231.131C56.7623 233.781 60.5037 236.247 64.3748 238.515L82.8173 227.868C78.5413 225.887 74.4138 223.64 70.4564 221.148L53.1646 231.131ZM238.919 123.886C238.969 125.251 238.994 126.623 238.994 128C238.994 131.356 238.844 134.676 238.55 137.955L256.992 127.308C256.968 122.777 256.709 118.302 256.226 113.894L238.919 123.886ZM254.187 101.214L237.651 110.761C236.992 106.574 236.097 102.464 234.979 98.4477L251.006 89.1945C252.254 93.1223 253.318 97.1323 254.187 101.214ZM59.748 213.474L43.2236 223.014C40.1468 220.235 37.2057 217.308 34.4113 214.246L50.4336 204.995C53.3732 207.994 56.4833 210.826 59.748 213.474Z" fill="#B3BDC7"/>
<path d="M129 227C184.23 227 229 182.23 229 127C229 71.77 184.23 27 129 27C73.77 27 29 71.77 29 127C29 182.23 73.77 227 129 227Z" fill="#272C33"/>
<path d="M103.08 53.1743C101.01 52.8785 100.911 52.7799 101.897 52.6812C103.771 52.3854 108.109 52.7799 111.166 53.4701C118.266 55.1465 124.676 59.4853 131.48 67.0781L133.255 69.1489L135.819 68.7545C146.764 66.9795 158.006 68.36 167.373 72.6988C169.937 73.8821 173.98 76.2488 174.473 76.8404C174.67 77.0376 174.966 78.3195 175.164 79.6015C175.854 84.2361 175.558 87.6874 174.079 90.3498C173.29 91.829 173.29 92.2234 173.783 93.5053C174.177 94.4914 175.361 95.1816 176.445 95.1816C178.812 95.1816 181.277 91.4345 182.461 86.2082L182.954 84.1375L183.841 85.1236C188.87 90.7443 192.814 98.5344 193.406 104.056L193.603 105.536L192.716 104.254C191.237 101.986 189.856 100.507 187.983 99.2246C184.63 96.9566 181.08 96.2663 171.712 95.7733C163.232 95.2803 158.4 94.59 153.667 93.0123C145.581 90.3498 141.439 86.8985 131.874 74.178C127.634 68.5573 124.972 65.5004 122.309 62.9366C116.491 57.3159 110.673 54.3576 103.08 53.1743Z" fill="#FF007A"/>
<path d="M176.544 65.698C176.742 61.9508 177.235 59.4856 178.319 57.2176C178.714 56.3301 179.108 55.5412 179.207 55.5412C179.305 55.5412 179.108 56.2315 178.812 57.0204C178.024 59.1898 177.925 62.2466 178.418 65.698C179.108 70.1354 179.404 70.727 184.137 75.5588C186.307 77.8269 188.87 80.6865 189.857 81.8698L191.533 84.0392L189.857 82.4615C187.786 80.4893 183.053 76.7421 181.968 76.2491C181.278 75.8547 181.179 75.8547 180.686 76.3477C180.292 76.7421 180.193 77.3338 180.193 80.1935C180.094 84.6309 179.503 87.3919 178.024 90.2516C177.235 91.7307 177.136 91.4349 177.826 89.7585C178.319 88.4766 178.418 87.8849 178.418 83.6448C178.418 75.0658 177.432 72.995 171.417 69.5437C169.938 68.6562 167.374 67.3743 165.895 66.684C164.317 65.9938 163.134 65.4021 163.232 65.4021C163.429 65.2049 169.247 66.8813 171.515 67.8674C174.967 69.2479 175.558 69.3465 175.953 69.2479C176.249 68.952 176.446 68.1632 176.544 65.698Z" fill="#FF007A"/>
<path d="M107.123 80.3905C102.981 74.6712 100.319 65.7964 100.91 59.1896L101.108 57.1188L102.094 57.316C103.869 57.6118 106.926 58.7951 108.405 59.6826C112.349 62.0492 114.124 65.3033 115.8 73.3893C116.293 75.7559 116.984 78.5169 117.28 79.4044C117.773 80.8835 119.646 84.3348 121.224 86.5042C122.309 88.082 121.618 88.8708 119.153 88.6736C115.406 88.2792 110.377 84.8279 107.123 80.3905Z" fill="#FF007A"/>
<path d="M171.514 123.286C151.989 115.397 145.087 108.593 145.087 97.0556C145.087 95.3792 145.185 93.9987 145.185 93.9987C145.284 93.9987 145.974 94.5903 146.862 95.2806C150.806 98.4361 155.243 99.8166 167.569 101.592C174.768 102.676 178.91 103.465 182.657 104.747C194.588 108.691 201.984 116.777 203.759 127.723C204.252 130.878 203.956 136.894 203.167 140.049C202.477 142.514 200.505 147.05 200.012 147.149C199.913 147.149 199.716 146.656 199.716 145.867C199.519 141.725 197.448 137.781 193.997 134.724C189.855 131.174 184.53 128.512 171.514 123.286Z" fill="#FF007A"/>
<path d="M157.709 126.539C157.511 125.06 157.018 123.187 156.722 122.398L156.229 120.919L157.117 122.003C158.399 123.483 159.385 125.258 160.272 127.723C160.963 129.596 160.963 130.188 160.963 133.245C160.963 136.203 160.864 136.893 160.272 138.57C159.286 141.232 158.103 143.106 156.131 145.177C152.581 148.825 147.946 150.797 141.339 151.685C140.156 151.783 136.803 152.079 133.845 152.276C126.45 152.671 121.519 153.46 117.082 155.037C116.49 155.235 115.898 155.432 115.8 155.333C115.603 155.136 118.659 153.361 121.125 152.178C124.576 150.501 128.126 149.614 135.916 148.233C139.762 147.642 143.706 146.853 144.692 146.458C154.454 143.402 159.286 135.809 157.709 126.539Z" fill="#FF007A"/>
<path d="M166.683 142.415C164.119 136.795 163.528 131.47 164.908 126.441C165.105 125.948 165.302 125.455 165.5 125.455C165.697 125.455 166.289 125.751 166.88 126.145C168.064 126.934 170.529 128.314 176.84 131.766C184.827 136.104 189.363 139.457 192.519 143.303C195.28 146.656 196.956 150.501 197.745 155.235C198.238 157.897 197.942 164.307 197.252 166.969C195.082 175.351 190.152 182.056 182.953 185.902C181.869 186.494 180.981 186.888 180.883 186.888C180.784 186.888 181.178 185.902 181.77 184.719C184.137 179.69 184.433 174.858 182.658 169.434C181.573 166.082 179.305 162.039 174.769 155.235C169.345 147.346 168.064 145.275 166.683 142.415Z" fill="#FF007A"/>
<path d="M93.2191 172.59C100.516 166.476 109.49 162.137 117.773 160.757C121.323 160.165 127.239 160.362 130.493 161.25C135.72 162.63 140.453 165.589 142.918 169.237C145.285 172.787 146.369 175.844 147.454 182.648C147.848 185.31 148.341 188.072 148.44 188.663C149.229 192.213 150.807 194.974 152.779 196.453C155.836 198.721 161.161 198.82 166.387 196.848C167.274 196.552 168.063 196.256 168.063 196.355C168.26 196.552 165.598 198.327 163.823 199.214C161.358 200.496 159.386 200.891 156.723 200.891C151.99 200.891 147.947 198.425 144.693 193.495C144.003 192.509 142.622 189.649 141.439 186.987C137.988 179 136.213 176.633 132.17 173.97C128.62 171.702 124.084 171.209 120.632 172.886C116.096 175.055 114.913 180.873 118.069 184.423C119.35 185.902 121.717 187.085 123.689 187.381C127.338 187.874 130.493 185.015 130.493 181.366C130.493 179 129.606 177.619 127.239 176.534C124.084 175.154 120.632 176.732 120.731 179.788C120.731 181.07 121.323 181.859 122.605 182.451C123.393 182.845 123.393 182.845 122.802 182.747C119.942 182.155 119.252 178.605 121.52 176.337C124.281 173.576 130.099 174.759 132.071 178.605C132.86 180.183 132.958 183.338 132.268 185.31C130.592 189.649 125.859 191.917 121.027 190.635C117.773 189.748 116.392 188.86 112.448 184.817C105.545 177.718 102.883 176.337 93.0219 174.858L91.1483 174.562L93.2191 172.59Z" fill="#FF007A"/>
<path fill-rule="evenodd" clip-rule="evenodd" d="M41.3512 13.9282C64.3271 41.8345 99.7277 85.2224 101.503 87.589C102.982 89.5612 102.39 91.4347 99.9249 92.8153C98.5444 93.6041 95.6847 94.393 94.3042 94.393C92.7264 94.393 90.8529 93.6041 89.571 92.3222C88.6835 91.4347 84.8377 85.814 76.1602 72.3046C69.5534 61.9507 63.9327 53.3717 63.834 53.2731C63.4396 53.0759 63.4396 53.0759 75.4699 74.5726C83.0628 88.082 85.528 92.9139 85.528 93.5055C85.528 94.7874 85.1336 95.4777 83.5558 97.2527C80.8934 100.211 79.7101 103.564 78.8226 110.565C77.8365 118.355 75.1741 123.877 67.5812 133.245C63.1438 138.767 62.4535 139.753 61.3688 142.021C59.9883 144.782 59.5939 146.36 59.3967 149.91C59.1994 153.657 59.5939 156.024 60.6786 159.573C61.6647 162.729 62.7493 164.8 65.4118 168.843C67.6798 172.393 69.0603 175.055 69.0603 176.041C69.0603 176.83 69.2575 176.83 72.8075 176.041C81.2878 174.069 88.289 170.716 92.1348 166.575C94.5014 164.011 95.0931 162.63 95.0931 159.08C95.0931 156.812 94.9944 156.319 94.4028 154.939C93.4167 152.769 91.5431 150.994 87.5002 148.233C82.1753 144.585 79.9073 141.627 79.3156 137.682C78.8226 134.33 79.4142 132.062 82.3725 125.849C85.4294 119.44 86.2183 116.777 86.7113 110.269C87.0071 106.127 87.5002 104.451 88.6835 103.169C89.9654 101.789 91.0501 101.296 94.107 100.901C99.136 100.211 102.39 98.929 104.954 96.4638C107.222 94.393 108.208 92.3222 108.307 89.2653L108.405 86.9973L107.123 85.6168C102.489 80.2919 38.2944 9.68799 37.9985 9.68799C37.8999 9.68799 39.4777 11.5616 41.3512 13.9282ZM71.6241 154.15C72.7088 152.276 72.1172 149.91 70.3422 148.726C68.6659 147.642 66.1021 148.135 66.1021 149.614C66.1021 150.008 66.2993 150.403 66.8909 150.6C67.7784 151.093 67.877 151.586 67.1867 152.671C66.4965 153.756 66.4965 154.742 67.384 155.432C68.7645 156.517 70.6381 155.925 71.6241 154.15Z" fill="#FF007A"/>
<path fill-rule="evenodd" clip-rule="evenodd" d="M111.56 102.282C109.193 102.972 106.925 105.536 106.235 108.1C105.841 109.677 106.038 112.537 106.728 113.424C107.813 114.805 108.799 115.199 111.56 115.199C116.984 115.199 121.618 112.833 122.111 109.973C122.604 107.607 120.534 104.352 117.674 102.873C116.195 102.084 113.138 101.789 111.56 102.282ZM117.871 107.212C118.66 106.029 118.364 104.747 116.885 103.859C114.223 102.183 110.18 103.564 110.18 106.127C110.18 107.409 112.25 108.79 114.223 108.79C115.504 108.79 117.279 108.001 117.871 107.212Z" fill="#FF007A"/>
</svg>
