<svg width="257" height="256" viewBox="0 0 257 256" fill="none" xmlns="http://www.w3.org/2000/svg">
<path fill-rule="evenodd" clip-rule="evenodd" d="M19.8699 194.93C21.975 198.355 24.2367 201.674 26.6452 204.875L42.3689 195.797C39.8951 192.641 37.59 189.345 35.4674 185.925L19.8699 194.93ZM225.934 75.9595C227.829 79.4833 229.538 83.1222 231.048 86.8632L246.773 77.7846C245.192 74.0815 243.441 70.4682 241.531 66.9543L225.934 75.9595ZM235.31 56.6897L219.678 65.7149C217.385 62.3832 214.913 59.1841 212.277 56.1316L228.107 46.9917C230.655 50.1055 233.06 53.3415 235.31 56.6897ZM29.7044 175.396L14.0721 184.421C12.301 180.821 10.6941 177.124 9.2612 173.343L25.094 164.202C26.4292 168.034 27.9704 171.77 29.7044 175.396ZM2.56271 107.928C3.41716 102.503 4.61242 97.1906 6.12589 92.0143L31.2426 77.5132C28.2587 83.2791 25.77 89.3427 23.8326 95.6477L2.56271 107.928ZM47.2156 54.4348C62.5117 37.4412 83.0283 25.2401 106.24 20.3571L140.601 0.518788C136.779 0.175408 132.909 0 128.998 0C77.4722 0 33.0572 30.445 12.7606 74.3274L47.2156 54.4348ZM153.556 20.7517C147.266 19.3172 140.77 18.4219 134.12 18.1171L159.265 3.59946C164.598 4.89255 169.801 6.51972 174.85 8.45756L153.556 20.7517ZM108.83 254.42C115.4 255.46 122.136 256 128.998 256C183.578 256 230.179 221.839 248.587 173.732L219.52 190.513C201.251 216.918 171.727 234.941 137.883 237.646L108.83 254.42ZM230.584 170.269L253.719 156.912C254.875 151.905 255.737 146.786 256.287 141.574L236.09 153.234C234.711 159.108 232.862 164.8 230.584 170.269ZM114.835 237.097L91.6696 250.471C86.6717 248.95 81.8035 247.131 77.0856 245.035L97.3005 233.364C102.967 235.067 108.825 236.324 114.835 237.097ZM5.4734 161.673C4.37901 157.649 3.47601 153.546 2.77478 149.375L19.6083 139.656C20.0607 143.952 20.7605 148.174 21.6931 152.309L5.4734 161.673ZM203.681 47.2378C200.546 44.3376 197.243 41.6176 193.786 39.0944L210.605 29.3838C213.839 32.0629 216.939 34.898 219.893 37.8776L203.681 47.2378ZM182.402 31.8105L200.135 21.5721C196.333 19.0256 192.387 16.6774 188.311 14.5424L169.198 25.5772C173.756 27.3674 178.165 29.453 182.402 31.8105ZM1.26849 136.388L19.0134 126.143C19.0951 121.207 19.5019 116.351 20.2132 111.594L1.10891 122.624C1.03524 124.407 0.998047 126.199 0.998047 128C0.998047 130.818 1.08912 133.615 1.26849 136.388ZM53.1685 231.131C56.7662 233.781 60.5076 236.247 64.3788 238.515L82.8213 227.868C78.5452 225.887 74.4177 223.64 70.4603 221.148L53.1685 231.131ZM238.923 123.886C238.973 125.251 238.998 126.623 238.998 128C238.998 131.356 238.848 134.676 238.554 137.955L256.996 127.308C256.972 122.777 256.713 118.302 256.23 113.894L238.923 123.886ZM254.191 101.214L237.655 110.761C236.996 106.574 236.101 102.464 234.983 98.4477L251.01 89.1945C252.258 93.1223 253.322 97.1323 254.191 101.214ZM59.7519 213.474L43.2276 223.014C40.1507 220.235 37.2096 217.308 34.4152 214.246L50.4375 204.995C53.3771 207.994 56.4872 210.826 59.7519 213.474Z" fill="#B3BDC7"/>
<circle cx="128.998" cy="128" r="100" fill="white"/>
<path d="M140.812 105.206C143.964 117.568 124.166 121.083 117.985 122.659L112.409 100.782C118.591 99.2068 137.52 92.2985 140.812 105.206ZM154.57 137.929C158.045 151.524 134.368 155.907 126.934 157.806L120.873 133.688C128.287 131.809 151.035 123.729 154.651 137.929H154.57ZM160.065 95.1063C155.519 82.4411 143.216 80.9666 128.752 83.3097L124.166 65.3119L113.197 68.0994L117.661 85.6327C114.793 86.3599 111.863 87.1678 108.954 87.9758L104.369 70.382L93.4192 73.1291L98.005 91.1068C95.6414 91.7734 93.3182 92.3995 91.0556 92.9853L75.9448 96.8232L78.9346 108.539C78.9346 108.539 87.0153 106.317 86.8739 106.519C89.8358 105.35 93.1881 106.77 94.4091 109.711L99.6818 130.132C100.067 130.034 100.459 129.959 100.853 129.91L99.702 130.213L106.954 158.937C107.348 161.122 105.904 163.214 103.722 163.623C103.904 163.623 95.7626 165.643 95.7626 165.643L96.9141 179.278L111.177 175.642L119.015 173.622L123.661 191.802L134.611 189.014L129.984 171.117C132.914 170.451 135.843 169.724 138.752 168.976L143.317 186.913L154.267 184.126L149.661 165.946C167.842 160.189 179.519 152.271 176.711 134.576C174.428 120.315 166.347 115.77 155.277 115.912C160.812 111.064 163.358 104.358 159.984 95.1063H160.065ZM217.034 80.5828C236.223 116.196 232.06 159.862 206.487 191.209C180.915 222.556 138.971 235.407 100.225 223.767C61.4787 212.127 33.5644 178.289 29.5049 138.04C25.4453 97.7914 46.0404 59.0623 81.682 39.921C130.292 13.8152 190.863 32.0116 217.034 80.5828Z" fill="#6CC64B"/>
</svg>
