<svg width="256" height="256" viewBox="0 0 256 256" fill="none" xmlns="http://www.w3.org/2000/svg">
<path fill-rule="evenodd" clip-rule="evenodd" d="M18.8719 194.93C20.9769 198.355 23.2387 201.674 25.6471 204.875L41.3708 195.797C38.897 192.641 36.592 189.345 34.4693 185.925L18.8719 194.93ZM224.936 75.9595C226.831 79.4833 228.54 83.1222 230.05 86.8632L245.775 77.7846C244.194 74.0815 242.443 70.4682 240.533 66.9543L224.936 75.9595ZM234.312 56.6897L218.68 65.7149C216.387 62.3832 213.915 59.1841 211.279 56.1316L227.109 46.9917C229.657 50.1055 232.062 53.3415 234.312 56.6897ZM28.7063 175.396L13.074 184.421C11.3029 180.821 9.69602 177.124 8.26315 173.343L24.096 164.202C25.4311 168.034 26.9723 171.77 28.7063 175.396ZM1.56467 107.928C2.41911 102.503 3.61437 97.1906 5.12784 92.0143L30.2446 77.5132C27.2607 83.2791 24.7719 89.3427 22.8346 95.6477L1.56467 107.928ZM46.2176 54.4348C61.5136 37.4412 82.0303 25.2401 105.242 20.3571L139.603 0.518788C135.781 0.175408 131.911 0 128 0C76.4741 0 32.0591 30.445 11.7626 74.3274L46.2176 54.4348ZM152.558 20.7517C146.268 19.3172 139.772 18.4219 133.122 18.1171L158.267 3.59946C163.6 4.89255 168.803 6.51972 173.852 8.45756L152.558 20.7517ZM107.832 254.42C114.402 255.46 121.138 256 128 256C182.58 256 229.181 221.839 247.589 173.732L218.522 190.513C200.253 216.918 170.729 234.941 136.885 237.646L107.832 254.42ZM229.585 170.269L252.721 156.912C253.877 151.905 254.739 146.786 255.289 141.574L235.092 153.234C233.713 159.108 231.864 164.8 229.585 170.269ZM113.837 237.097L90.6715 250.471C85.6737 248.95 80.8055 247.131 76.0876 245.035L96.3025 233.364C101.969 235.067 107.827 236.324 113.837 237.097ZM4.47535 161.673C3.38097 157.649 2.47797 153.546 1.77673 149.375L18.6102 139.656C19.0627 143.952 19.7625 148.174 20.695 152.309L4.47535 161.673ZM202.683 47.2378C199.548 44.3376 196.245 41.6176 192.788 39.0944L209.607 29.3838C212.841 32.0629 215.941 34.898 218.895 37.8776L202.683 47.2378ZM181.404 31.8105L199.137 21.5721C195.335 19.0256 191.389 16.6774 187.313 14.5424L168.2 25.5772C172.758 27.3674 177.167 29.453 181.404 31.8105ZM0.270447 136.388L18.0154 126.143C18.0971 121.207 18.5038 116.351 19.2152 111.594L0.110865 122.624C0.0371971 124.407 0 126.199 0 128C0 130.818 0.0910766 133.615 0.270447 136.388ZM52.1704 231.131C55.7681 233.781 59.5095 236.247 63.3807 238.515L81.8232 227.868C77.5471 225.887 73.4197 223.64 69.4622 221.148L52.1704 231.131ZM237.924 123.886C237.975 125.251 238 126.623 238 128C238 131.356 237.85 134.676 237.556 137.955L255.998 127.308C255.974 122.777 255.715 118.302 255.232 113.894L237.924 123.886ZM253.193 101.214L236.657 110.761C235.998 106.574 235.103 102.464 233.985 98.4477L250.012 89.1945C251.26 93.1223 252.324 97.1323 253.193 101.214ZM58.7539 213.474L42.2295 223.014C39.1527 220.235 36.2115 217.308 33.4171 214.246L49.4394 204.995C52.3791 207.994 55.4891 210.826 58.7539 213.474Z" fill="#B3BDC7"/>
<path d="M128 27.6799C183.234 27.6799 228 72.4554 228 127.68C228 182.913 183.234 227.68 128 227.68C72.7754 227.68 28 182.909 28 127.68C28 72.4554 72.7754 27.6799 128 27.6799Z" fill="#F5AC37"/>
<path d="M131.652 134.741H169.651C170.461 134.741 170.843 134.741 170.902 133.679C171.212 129.814 171.212 125.926 170.902 122.056C170.902 121.304 170.528 120.994 169.714 120.994H94.0905C93.1545 120.994 92.9025 121.304 92.9025 122.182V133.306C92.9025 134.741 92.9025 134.741 94.401 134.741H131.652V134.741ZM166.658 107.993C166.766 107.71 166.766 107.399 166.658 107.12C166.024 105.739 165.272 104.42 164.399 103.183C163.085 101.067 161.537 99.119 159.773 97.3685C158.941 96.3109 157.978 95.3614 156.898 94.5559C151.489 89.9524 145.058 86.6943 138.146 85.0563C134.658 84.2733 131.094 83.8998 127.521 83.9313H93.96C93.024 83.9313 92.898 84.3048 92.898 85.1193V107.305C92.898 108.241 92.898 108.493 94.086 108.493H166.208C166.208 108.493 166.834 108.367 166.96 107.993H166.654H166.658ZM166.658 147.742C165.596 147.625 164.525 147.625 163.463 147.742H94.1535C93.2175 147.742 92.9025 147.742 92.9025 148.993V170.683C92.9025 171.682 92.9025 171.934 94.1535 171.934H126.153C127.683 172.051 129.213 171.943 130.712 171.624C135.356 171.291 139.923 170.283 144.28 168.622C145.864 168.073 147.394 167.358 148.838 166.498H149.275C156.776 162.597 162.869 156.468 166.712 148.943C166.712 148.943 167.149 147.998 166.658 147.751V147.742ZM80.3429 183.18V182.806V168.244V163.308V148.619C80.3429 147.805 80.3429 147.683 79.3439 147.683H65.7808C65.0293 147.683 64.7188 147.683 64.7188 146.684V134.809H79.2179C80.0279 134.809 80.3429 134.809 80.3429 133.747V121.997C80.3429 121.246 80.3429 121.061 79.3439 121.061H65.7808C65.0293 121.061 64.7188 121.061 64.7188 120.062V109.064C64.7188 108.376 64.7188 108.191 65.7178 108.191H79.1549C80.0909 108.191 80.3429 108.191 80.3429 107.003V73.3157C80.3429 72.3167 80.3429 72.0647 81.5939 72.0647H128.466C131.868 72.1997 135.248 72.5732 138.591 73.1897C145.481 74.4632 152.101 76.9247 158.153 80.4393C162.167 82.8018 165.862 85.6548 169.151 88.9399C171.626 91.5094 173.858 94.2904 175.838 97.2515C177.805 100.253 179.438 103.462 180.721 106.814C180.878 107.687 181.715 108.277 182.588 108.128H193.776C195.211 108.128 195.211 108.128 195.274 109.505V119.756C195.274 120.755 194.901 121.007 193.897 121.007H185.27C184.397 121.007 184.145 121.007 184.208 122.132C184.55 125.939 184.55 129.76 184.208 133.567C184.208 134.629 184.208 134.755 185.401 134.755H195.27C195.706 135.317 195.27 135.88 195.27 136.447C195.333 137.171 195.333 137.905 195.27 138.629V146.194C195.27 147.256 194.959 147.571 194.019 147.571H182.206C181.382 147.413 180.581 147.94 180.392 148.759C177.58 156.072 173.08 162.628 167.266 167.884C165.142 169.797 162.91 171.597 160.579 173.257C158.077 174.697 155.642 176.196 153.077 177.384C148.357 179.508 143.407 181.074 138.326 182.068C133.502 182.932 128.61 183.324 123.701 183.256H80.3249V183.193L80.3429 183.18Z" fill="#FEFEFD"/>
</svg>
