<svg width="257" height="256" viewBox="0 0 257 256" fill="none" xmlns="http://www.w3.org/2000/svg">
<path fill-rule="evenodd" clip-rule="evenodd" d="M19.866 194.93C21.9711 198.355 24.2328 201.674 26.6413 204.875L42.365 195.797C39.8912 192.641 37.5861 189.345 35.4635 185.925L19.866 194.93ZM225.93 75.9595C227.825 79.4833 229.535 83.1222 231.044 86.8632L246.769 77.7846C245.188 74.0815 243.437 70.4682 241.527 66.9543L225.93 75.9595ZM235.306 56.6897L219.674 65.7149C217.381 62.3832 214.909 59.1841 212.273 56.1316L228.103 46.9917C230.652 50.1055 233.056 53.3415 235.306 56.6897ZM29.7005 175.396L14.0682 184.421C12.2971 180.821 10.6902 177.124 9.25729 173.343L25.0901 164.202C26.4253 168.034 27.9665 171.77 29.7005 175.396ZM2.55881 107.928C3.41325 102.503 4.60851 97.1906 6.12198 92.0143L31.2387 77.5132C28.2548 83.2791 25.7661 89.3427 23.8287 95.6477L2.55881 107.928ZM47.2117 54.4348C62.5078 37.4412 83.0244 25.2401 106.236 20.3571L140.597 0.518788C136.775 0.175408 132.905 0 128.994 0C77.4683 0 33.0532 30.445 12.7567 74.3274L47.2117 54.4348ZM153.553 20.7517C147.262 19.3172 140.766 18.4219 134.116 18.1171L159.261 3.59946C164.595 4.89255 169.798 6.51972 174.847 8.45756L153.553 20.7517ZM108.826 254.42C115.396 255.46 122.132 256 128.994 256C183.574 256 230.175 221.839 248.583 173.732L219.517 190.513C201.247 216.918 171.723 234.941 137.879 237.646L108.826 254.42ZM230.58 170.269L253.715 156.912C254.871 151.905 255.734 146.786 256.283 141.574L236.086 153.234C234.707 159.108 232.858 164.8 230.58 170.269ZM114.831 237.097L91.6657 250.471C86.6678 248.95 81.7996 247.131 77.0817 245.035L97.2966 233.364C102.963 235.067 108.821 236.324 114.831 237.097ZM5.46949 161.673C4.37511 157.649 3.47211 153.546 2.77087 149.375L19.6044 139.656C20.0568 143.952 20.7566 148.174 21.6892 152.309L5.46949 161.673ZM203.677 47.2378C200.543 44.3376 197.239 41.6176 193.782 39.0944L210.601 29.3838C213.835 32.0629 216.935 34.898 219.889 37.8776L203.677 47.2378ZM182.398 31.8105L200.132 21.5721C196.329 19.0256 192.383 16.6774 188.307 14.5424L169.194 25.5772C173.752 27.3674 178.161 29.453 182.398 31.8105ZM1.26459 136.388L19.0095 126.143C19.0912 121.207 19.498 116.351 20.2093 111.594L1.10501 122.624C1.03134 124.407 0.994141 126.199 0.994141 128C0.994141 130.818 1.08522 133.615 1.26459 136.388ZM53.1646 231.131C56.7623 233.781 60.5037 236.247 64.3748 238.515L82.8173 227.868C78.5413 225.887 74.4138 223.64 70.4564 221.148L53.1646 231.131ZM238.919 123.886C238.969 125.251 238.994 126.623 238.994 128C238.994 131.356 238.844 134.676 238.55 137.955L256.992 127.308C256.968 122.777 256.709 118.302 256.226 113.894L238.919 123.886ZM254.187 101.214L237.651 110.761C236.992 106.574 236.097 102.464 234.979 98.4477L251.006 89.1945C252.254 93.1223 253.318 97.1323 254.187 101.214ZM59.748 213.474L43.2236 223.014C40.1468 220.235 37.2057 217.308 34.4113 214.246L50.4336 204.995C53.3732 207.994 56.4833 210.826 59.748 213.474Z" fill="#B3BDC7"/>
<path d="M128.998 228C184.228 228 228.998 183.23 228.998 128C228.998 72.77 184.228 28 128.998 28C73.768 28 28.998 72.77 28.998 128C28.998 183.23 73.768 228 128.998 228Z" fill="#272C33"/>
<path d="M100.746 76.0076C131.824 75.9975 162.905 75.9975 193.987 76.0076C193.997 86.7115 193.997 97.4135 193.987 108.114C162.908 108.124 131.827 108.124 100.746 108.114C100.736 97.4098 100.736 86.7078 100.746 76.0076Z" fill="#02A6C2"/>
<path d="M64.0331 120.192C74.0599 120.137 84.0884 120.137 94.1186 120.192C94.1706 130.876 94.1706 141.561 94.1186 152.248C84.0888 152.303 74.0603 152.304 64.0331 152.251C63.9811 141.566 63.9811 130.88 64.0331 120.192Z" fill="#5FCADE"/>
<path d="M100.768 120.192C123.201 120.141 145.631 120.141 168.06 120.192C168.108 130.876 168.108 141.561 168.06 152.248C145.628 152.298 123.198 152.298 100.768 152.248C100.722 141.564 100.722 130.879 100.768 120.192Z" fill="#5FCADE"/>
<path d="M100.797 164.387C110.807 164.271 120.815 164.271 130.821 164.387C130.925 175.046 130.927 185.709 130.826 196.378C120.816 196.483 110.808 196.482 100.802 196.373C100.698 185.715 100.696 175.053 100.797 164.387Z" fill="#ABEBF4"/>
</svg>
