<svg width="257" height="256" viewBox="0 0 257 256" fill="none" xmlns="http://www.w3.org/2000/svg">
<path fill-rule="evenodd" clip-rule="evenodd" d="M19.868 194.93C21.973 198.355 24.2348 201.674 26.6432 204.875L42.3669 195.797C39.8931 192.641 37.5881 189.345 35.4654 185.925L19.868 194.93ZM225.932 75.9595C227.827 79.4833 229.537 83.1222 231.046 86.8632L246.771 77.7846C245.19 74.0815 243.439 70.4682 241.529 66.9543L225.932 75.9595ZM235.308 56.6897L219.676 65.7149C217.383 62.3832 214.911 59.1841 212.275 56.1316L228.105 46.9917C230.653 50.1055 233.058 53.3415 235.308 56.6897ZM29.7024 175.396L14.0701 184.421C12.299 180.821 10.6921 177.124 9.25924 173.343L25.0921 164.202C26.4272 168.034 27.9684 171.77 29.7024 175.396ZM2.56076 107.928C3.41521 102.503 4.61047 97.1906 6.12393 92.0143L31.2407 77.5132C28.2568 83.2791 25.768 89.3427 23.8307 95.6477L2.56076 107.928ZM47.2137 54.4348C62.5097 37.4412 83.0264 25.2401 106.238 20.3571L140.599 0.518788C136.777 0.175408 132.907 0 128.996 0C77.4702 0 33.0552 30.445 12.7587 74.3274L47.2137 54.4348ZM153.554 20.7517C147.264 19.3172 140.768 18.4219 134.118 18.1171L159.263 3.59946C164.597 4.89255 169.799 6.51972 174.848 8.45756L153.554 20.7517ZM108.828 254.42C115.398 255.46 122.134 256 128.996 256C183.576 256 230.177 221.839 248.585 173.732L219.519 190.513C201.249 216.918 171.725 234.941 137.881 237.646L108.828 254.42ZM230.582 170.269L253.717 156.912C254.873 151.905 255.736 146.786 256.285 141.574L236.088 153.234C234.709 159.108 232.86 164.8 230.582 170.269ZM114.833 237.097L91.6676 250.471C86.6698 248.95 81.8016 247.131 77.0837 245.035L97.2986 233.364C102.965 235.067 108.823 236.324 114.833 237.097ZM5.47145 161.673C4.37706 157.649 3.47406 153.546 2.77283 149.375L19.6063 139.656C20.0588 143.952 20.7586 148.174 21.6911 152.309L5.47145 161.673ZM203.679 47.2378C200.545 44.3376 197.241 41.6176 193.784 39.0944L210.603 29.3838C213.837 32.0629 216.937 34.898 219.891 37.8776L203.679 47.2378ZM182.4 31.8105L200.133 21.5721C196.331 19.0256 192.385 16.6774 188.309 14.5424L169.196 25.5772C173.754 27.3674 178.163 29.453 182.4 31.8105ZM1.26654 136.388L19.0115 126.143C19.0932 121.207 19.4999 116.351 20.2113 111.594L1.10696 122.624C1.03329 124.407 0.996094 126.199 0.996094 128C0.996094 130.818 1.08717 133.615 1.26654 136.388ZM53.1665 231.131C56.7642 233.781 60.5056 236.247 64.3768 238.515L82.8193 227.868C78.5432 225.887 74.4158 223.64 70.4583 221.148L53.1665 231.131ZM238.921 123.886C238.971 125.251 238.996 126.623 238.996 128C238.996 131.356 238.846 134.676 238.552 137.955L256.994 127.308C256.97 122.777 256.711 118.302 256.228 113.894L238.921 123.886ZM254.189 101.214L237.653 110.761C236.994 106.574 236.099 102.464 234.981 98.4477L251.008 89.1945C252.256 93.1223 253.32 97.1323 254.189 101.214ZM59.75 213.474L43.2256 223.014C40.1488 220.235 37.2076 217.308 34.4132 214.246L50.4355 204.995C53.3752 207.994 56.4852 210.826 59.75 213.474Z" fill="#B3BDC7"/>
<path d="M129 228C184.228 228 229 183.228 229 128C229 72.7715 184.228 28 129 28C73.7715 28 29 72.7715 29 128C29 183.228 73.7715 228 129 228Z" fill="#1969FF"/>
<path d="M123.658 57.5288C126.904 55.7056 131.843 55.7056 135.088 57.5288L168.21 76.134C170.165 77.232 171.238 78.8683 171.431 80.5575H171.462V174.076C171.419 175.918 170.336 177.749 168.21 178.943L135.088 197.548C131.843 199.371 126.904 199.371 123.658 197.548L90.5364 178.943C88.4197 177.754 87.4038 175.911 87.3535 174.076C87.3484 173.887 87.3479 173.732 87.3534 173.605L87.3535 81.1871C87.3486 81.0571 87.3485 80.9277 87.3534 80.7988L87.3535 80.5575H87.3683C87.5154 78.8496 88.5403 77.2551 90.5364 76.134L123.658 57.5288ZM166.194 132.551L135.078 150.086C131.837 151.913 126.905 151.913 123.664 150.086L92.6183 132.59V173.787L123.664 191.19C125.499 192.236 127.407 193.255 129.264 193.3L129.371 193.301C131.225 193.308 133.025 192.303 134.85 191.352L166.194 173.637V132.551ZM82.1604 172.049C82.1604 175.634 82.548 177.99 83.3175 179.65C83.9554 181.026 84.9124 182.077 86.6599 183.357L86.7596 183.429C87.1431 183.707 87.5655 183.999 88.0798 184.341L88.6862 184.74L90.5484 185.948L87.8775 190.695L85.7933 189.342L85.4429 189.11C84.8403 188.71 84.3408 188.367 83.8749 188.029C78.8946 184.42 77.0372 180.485 77.0006 172.298L77 172.049H82.1604ZM126.866 107.689C126.625 107.777 126.399 107.88 126.193 107.996L93.1219 126.661C93.0872 126.68 93.0541 126.7 93.0226 126.719L92.9946 126.736L93.0466 126.768L93.1219 126.812L126.193 145.477C126.399 145.593 126.625 145.695 126.866 145.784V107.689ZM132.134 107.689V145.784C132.376 145.695 132.601 145.593 132.807 145.477L165.878 126.812C165.913 126.792 165.946 126.773 165.977 126.754L166.005 126.736L165.953 126.705L165.878 126.661L132.807 107.996C132.601 107.88 132.376 107.777 132.134 107.689ZM166.194 87.2384L136.462 103.88L166.194 120.521V87.2384ZM92.6183 87.2384V120.521L122.349 103.88L92.6183 87.2384ZM132.778 62.5025C131.057 61.5329 127.943 61.5329 126.222 62.5025L93.122 81.1481C93.0873 81.1677 93.0542 81.187 93.0227 81.2063L92.9946 81.2235L93.0466 81.2552L93.122 81.2989L126.222 99.9444C127.943 100.914 131.057 100.914 132.778 99.9444L165.878 81.2989C165.913 81.2793 165.946 81.26 165.977 81.2409L166.005 81.2235L165.953 81.1918L165.878 81.1481L132.778 62.5025ZM171.122 64.3818L173.207 65.735L173.557 65.9662C174.16 66.3661 174.659 66.7096 175.125 67.0473C180.105 70.6568 181.963 74.5921 181.999 82.7786L182 83.028H176.84C176.84 79.4428 176.452 77.0866 175.682 75.4265C175.045 74.0507 174.088 72.9992 172.34 71.7198L172.24 71.6471C171.857 71.3692 171.435 71.078 170.92 70.7358L170.314 70.3365L168.452 69.1285L171.122 64.3818Z" fill="white"/>
</svg>
