<svg width="257" height="256" viewBox="0 0 257 256" fill="none" xmlns="http://www.w3.org/2000/svg">
<path fill-rule="evenodd" clip-rule="evenodd" d="M19.8699 194.93C21.975 198.355 24.2367 201.674 26.6452 204.875L42.3689 195.797C39.8951 192.641 37.59 189.345 35.4674 185.925L19.8699 194.93ZM225.934 75.9595C227.829 79.4833 229.538 83.1222 231.048 86.8632L246.773 77.7846C245.192 74.0815 243.441 70.4682 241.531 66.9543L225.934 75.9595ZM235.31 56.6897L219.678 65.7149C217.385 62.3832 214.913 59.1841 212.277 56.1316L228.107 46.9917C230.655 50.1055 233.06 53.3415 235.31 56.6897ZM29.7044 175.396L14.0721 184.421C12.301 180.821 10.6941 177.124 9.2612 173.343L25.094 164.202C26.4292 168.034 27.9704 171.77 29.7044 175.396ZM2.56271 107.928C3.41716 102.503 4.61242 97.1906 6.12589 92.0143L31.2426 77.5132C28.2587 83.2791 25.77 89.3427 23.8326 95.6477L2.56271 107.928ZM47.2156 54.4348C62.5117 37.4412 83.0283 25.2401 106.24 20.3571L140.601 0.518788C136.779 0.175408 132.909 0 128.998 0C77.4722 0 33.0572 30.445 12.7606 74.3274L47.2156 54.4348ZM153.556 20.7517C147.266 19.3172 140.77 18.4219 134.12 18.1171L159.265 3.59946C164.598 4.89255 169.801 6.51972 174.85 8.45756L153.556 20.7517ZM108.83 254.42C115.4 255.46 122.136 256 128.998 256C183.578 256 230.179 221.839 248.587 173.732L219.52 190.513C201.251 216.918 171.727 234.941 137.883 237.646L108.83 254.42ZM230.584 170.269L253.719 156.912C254.875 151.905 255.737 146.786 256.287 141.574L236.09 153.234C234.711 159.108 232.862 164.8 230.584 170.269ZM114.835 237.097L91.6696 250.471C86.6717 248.95 81.8035 247.131 77.0856 245.035L97.3005 233.364C102.967 235.067 108.825 236.324 114.835 237.097ZM5.4734 161.673C4.37901 157.649 3.47601 153.546 2.77478 149.375L19.6083 139.656C20.0607 143.952 20.7605 148.174 21.6931 152.309L5.4734 161.673ZM203.681 47.2378C200.546 44.3376 197.243 41.6176 193.786 39.0944L210.605 29.3838C213.839 32.0629 216.939 34.898 219.893 37.8776L203.681 47.2378ZM182.402 31.8105L200.135 21.5721C196.333 19.0256 192.387 16.6774 188.311 14.5424L169.198 25.5772C173.756 27.3674 178.165 29.453 182.402 31.8105ZM1.26849 136.388L19.0134 126.143C19.0951 121.207 19.5019 116.351 20.2132 111.594L1.10891 122.624C1.03524 124.407 0.998047 126.199 0.998047 128C0.998047 130.818 1.08912 133.615 1.26849 136.388ZM53.1685 231.131C56.7662 233.781 60.5076 236.247 64.3788 238.515L82.8213 227.868C78.5452 225.887 74.4177 223.64 70.4603 221.148L53.1685 231.131ZM238.923 123.886C238.973 125.251 238.998 126.623 238.998 128C238.998 131.356 238.848 134.676 238.554 137.955L256.996 127.308C256.972 122.777 256.713 118.302 256.23 113.894L238.923 123.886ZM254.191 101.214L237.655 110.761C236.996 106.574 236.101 102.464 234.983 98.4477L251.01 89.1945C252.258 93.1223 253.322 97.1323 254.191 101.214ZM59.7519 213.474L43.2276 223.014C40.1507 220.235 37.2096 217.308 34.4152 214.246L50.4375 204.995C53.3771 207.994 56.4872 210.826 59.7519 213.474Z" fill="#B3BDC7"/>
<path d="M129 228C184.23 228 229 183.23 229 128C229 72.77 184.23 28 129 28C73.77 28 29 72.77 29 128C29 183.23 73.77 228 129 228Z" fill="#272C33"/>
<path d="M192.076 69.9733L186.585 75.4648C199.689 89.7945 206.955 108.509 206.955 127.927C206.955 147.344 199.689 166.059 186.585 180.389L192.076 185.88C206.649 170.074 214.74 149.362 214.74 127.863C214.74 106.364 206.649 85.6519 192.076 69.8452V69.9733Z" fill="#5A5564"/>
<path d="M76.5903 70.4491C90.92 57.3455 109.635 50.0788 129.052 50.0788C148.47 50.0788 167.185 57.3455 181.514 70.4491L187.006 64.9576C171.199 50.385 150.487 42.2944 128.988 42.2944C107.489 42.2944 86.7774 50.385 70.9707 64.9576L76.5903 70.4491Z" fill="#5A5564"/>
<path d="M71.4466 180.444C58.3585 166.117 51.1015 147.414 51.1015 128.009C51.1015 108.604 58.3585 89.901 71.4466 75.5745L65.9551 70.083C51.3825 85.8897 43.292 106.601 43.292 128.101C43.292 149.6 51.3825 170.311 65.9551 186.118L71.4466 180.444Z" fill="#5A5564"/>
<path d="M181.444 185.514C167.114 198.618 148.399 205.884 128.982 205.884C109.564 205.884 90.8495 198.618 76.5198 185.514L71.0283 191.006C86.835 205.578 107.547 213.669 129.046 213.669C150.545 213.669 171.257 205.578 187.063 191.006L181.444 185.514Z" fill="#5A5564"/>
<path d="M163.666 109.677C162.568 98.2178 152.683 94.3737 140.181 93.2022V77.4233H130.516V92.9093C127.971 92.9093 125.372 92.9093 122.791 92.9093V77.4233H113.199V93.312H93.5947V103.654C93.5947 103.654 100.734 103.526 100.624 103.654C101.911 103.513 103.203 103.876 104.227 104.669C105.252 105.461 105.929 106.62 106.115 107.901V151.394C106.088 151.846 105.97 152.287 105.769 152.693C105.568 153.099 105.287 153.46 104.944 153.755C104.607 154.056 104.213 154.286 103.785 154.43C103.357 154.575 102.905 154.632 102.454 154.597C102.582 154.707 95.4252 154.597 95.4252 154.597L93.5947 166.147H113.016V182.292H122.681V166.385H130.406V182.219H140.089V166.257C156.417 165.269 167.803 161.242 169.231 145.957C170.384 133.656 164.6 128.165 155.356 125.95C160.975 123.186 164.453 118.06 163.666 109.677ZM150.12 144.053C150.12 156.061 129.546 154.689 122.992 154.689V133.382C129.546 133.4 150.12 131.514 150.12 144.053ZM145.636 114.033C145.636 125.016 128.466 123.68 123.011 123.68V104.313C128.466 104.313 145.636 102.593 145.636 114.033Z" fill="#F09242"/>
<path d="M128.98 228C109.203 227.996 89.8717 222.129 73.4296 211.139C56.9875 200.15 44.1731 184.532 36.6066 166.26C29.0401 147.988 27.0614 127.883 30.9205 108.487C34.7796 89.0901 44.3033 71.2735 58.2874 57.2894C72.2715 43.3052 90.0882 33.7815 109.485 29.9224C128.881 26.0633 148.986 28.0421 167.258 35.6086C185.53 43.1751 201.148 55.9895 212.137 72.4316C223.127 88.8737 228.994 108.205 228.998 127.982C229 141.117 226.415 154.124 221.389 166.26C216.364 178.396 208.997 189.423 199.709 198.711C190.421 207.999 179.394 215.366 167.258 220.391C155.122 225.417 142.115 228.002 128.98 228ZM128.98 35.798C110.759 35.8124 92.9524 41.2282 77.8093 51.3606C62.6662 61.493 50.8669 75.8873 43.9026 92.7242C36.9384 109.561 35.1219 128.085 38.6827 145.953C42.2435 163.822 51.0218 180.235 63.908 193.116C76.7943 205.997 93.2101 214.769 111.08 218.323C128.951 221.876 147.474 220.052 164.308 213.081C181.142 206.111 195.531 194.305 205.658 179.158C215.784 164.011 221.193 146.202 221.2 127.982C221.205 115.872 218.823 103.879 214.189 92.6904C209.556 81.5015 202.763 71.3358 194.198 62.7743C185.633 54.2128 175.465 47.4235 164.274 42.7947C153.083 38.1659 141.09 35.7883 128.98 35.798Z" fill="#5A5564"/>
</svg>
