<?xml version="1.0" encoding="UTF-8"?>
<svg width="24px" height="24px" viewBox="0 0 24 24" version="1.1" xmlns="http://www.w3.org/2000/svg" xmlns:xlink="http://www.w3.org/1999/xlink">
    <!-- Generator: Sketch 63.1 (92452) - https://sketch.com -->
    <title>metamask-icon-colour</title>
    <desc>Created with Sketch.</desc>
    <g id="metamask-icon-colour" stroke="none" stroke-width="1" fill="none" fill-rule="evenodd">
        <g id="Group" transform="translate(3.000000, 3.560000)" fill-rule="nonzero" stroke-width="0.5">
            <polygon id="Path" stroke="#E4761B" fill="#E4761B" stroke-linecap="round" stroke-linejoin="round" points="5.285412 14.53248 1.427544 15.593904 0.3321 11.831292"></polygon>
            <polygon id="Path" stroke="#E4761B" fill="#E4761B" stroke-linecap="round" stroke-linejoin="round" points="17.396532 11.831292 16.294284 15.593904 12.436416 14.53248"></polygon>
            <polygon id="Path" stroke="#763D16" fill="#763D16" stroke-linecap="round" stroke-linejoin="round" points="16.205832 8.143524 12.64734 7.102512 13.892472 6.77592"></polygon>
            <polygon id="Path" stroke="#763D16" fill="#763D16" stroke-linecap="round" stroke-linejoin="round" points="1.515996 8.143524 3.83616 6.77592 5.074488 7.102512"></polygon>
            <polygon id="Path" stroke="#763D16" fill="#763D16" stroke-linecap="round" stroke-linejoin="round" points="1.073736 6.98004 0.94446 6.156756 3.83616 6.77592"></polygon>
            <polygon id="Path" stroke="#763D16" fill="#763D16" stroke-linecap="round" stroke-linejoin="round" points="16.648092 6.98004 13.892472 6.77592 16.777368 6.156756"></polygon>
            <polygon id="Path" stroke="#763D16" fill="#763D16" stroke-linecap="round" stroke-linejoin="round" points="16.648092 6.98004 16.205832 8.143524 13.892472 6.77592"></polygon>
            <polygon id="Path" stroke="#763D16" fill="#763D16" stroke-linecap="round" stroke-linejoin="round" points="1.073736 6.98004 3.83616 6.77592 1.515996 8.143524"></polygon>
            <polygon id="Path" stroke="#763D16" fill="#763D16" stroke-linecap="round" stroke-linejoin="round" points="13.892472 6.77592 16.961076 5.469552 16.777368 6.156756"></polygon>
            <polygon id="Path" stroke="#763D16" fill="#763D16" stroke-linecap="round" stroke-linejoin="round" points="3.83616 6.77592 0.94446 6.156756 0.767556 5.469552"></polygon>
            <polygon id="Path" stroke="#F6851B" fill="#F6851B" stroke-linecap="round" stroke-linejoin="round" points="6.564564 2.176416 11.157264 2.176416 10.12986 4.97286"></polygon>
            <polygon id="Path" stroke="#F6851B" fill="#F6851B" stroke-linecap="round" stroke-linejoin="round" points="10.12986 4.97286 7.591968 4.97286 6.564564 2.176416"></polygon>
            <polygon id="Path" stroke="#763D16" fill="#763D16" stroke-linecap="round" stroke-linejoin="round" points="16.961076 5.469552 13.892472 6.77592 13.83804 3.265056"></polygon>
            <polygon id="Path" stroke="#763D16" fill="#763D16" stroke-linecap="round" stroke-linejoin="round" points="5.074488 7.102512 3.83616 6.77592 3.883788 3.265056"></polygon>
            <polygon id="Path" stroke="#763D16" fill="#763D16" stroke-linecap="round" stroke-linejoin="round" points="3.883788 3.265056 3.83616 6.77592 0.767556 5.469552"></polygon>
            <polygon id="Path" stroke="#763D16" fill="#763D16" stroke-linecap="round" stroke-linejoin="round" points="13.83804 3.265056 13.892472 6.77592 12.64734 7.102512"></polygon>
            <polygon id="Path" stroke="#E4761B" fill="#E4761B" stroke-linecap="round" stroke-linejoin="round" points="7.591968 4.97286 1.04652 0.114804 6.564564 2.176416"></polygon>
            <polygon id="Path" stroke="#E2761B" fill="#E2761B" stroke-linecap="round" stroke-linejoin="round" points="16.675308 0.114804 10.12986 4.97286 11.157264 2.176416"></polygon>
            <polygon id="Path" stroke="#E4761B" fill="#E4761B" stroke-linecap="round" stroke-linejoin="round" points="12.436416 14.53248 14.239476 11.831292 17.396532 11.831292"></polygon>
            <polygon id="Path" stroke="#E4761B" fill="#E4761B" stroke-linecap="round" stroke-linejoin="round" points="0.3321 11.831292 3.489156 11.831292 5.285412 14.53248"></polygon>
            <polygon id="Path" stroke="#F6851B" fill="#F6851B" stroke-linecap="round" stroke-linejoin="round" points="13.722372 8.728668 17.396532 11.831292 14.239476 11.831292"></polygon>
            <polygon id="Path" stroke="#F6851B" fill="#F6851B" stroke-linecap="round" stroke-linejoin="round" points="3.999456 8.728668 0.3321 11.831292 1.515996 8.143524"></polygon>
            <polygon id="Path" stroke="#F6851B" fill="#F6851B" stroke-linecap="round" stroke-linejoin="round" points="3.489156 11.831292 0.3321 11.831292 3.999456 8.728668"></polygon>
            <polygon id="Path" stroke="#F6851B" fill="#F6851B" stroke-linecap="round" stroke-linejoin="round" points="13.722372 8.728668 16.205832 8.143524 17.396532 11.831292"></polygon>
            <polygon id="Path" stroke="#763D16" fill="#763D16" stroke-linecap="round" stroke-linejoin="round" points="3.883788 3.265056 7.591968 4.97286 5.074488 7.102512"></polygon>
            <polygon id="Path" stroke="#763D16" fill="#763D16" stroke-linecap="round" stroke-linejoin="round" points="12.64734 7.102512 10.12986 4.97286 13.83804 3.265056"></polygon>
            <polygon id="Path" stroke="#763D16" fill="#763D16" stroke-linecap="round" stroke-linejoin="round" points="16.205832 8.143524 16.648092 6.98004 16.988292 7.224984"></polygon>
            <polygon id="Path" stroke="#763D16" fill="#763D16" stroke-linecap="round" stroke-linejoin="round" points="1.515996 8.143524 0.733536 7.224984 1.073736 6.98004"></polygon>
            <polygon id="Path" stroke="#763D16" fill="#763D16" stroke-linecap="round" stroke-linejoin="round" points="16.648092 6.98004 16.777368 6.156756 17.192412 6.483348"></polygon>
            <polygon id="Path" stroke="#763D16" fill="#763D16" stroke-linecap="round" stroke-linejoin="round" points="1.073736 6.98004 0.529416 6.483348 0.94446 6.156756"></polygon>
            <polygon id="Path" stroke="#763D16" fill="#763D16" stroke-linecap="round" stroke-linejoin="round" points="0.40014 5.741712 0.767556 5.469552 0.94446 6.156756"></polygon>
            <polygon id="Path" stroke="#763D16" fill="#763D16" stroke-linecap="round" stroke-linejoin="round" points="17.321688 5.741712 16.777368 6.156756 16.961076 5.469552"></polygon>
            <polygon id="Path" stroke="#F6851B" fill="#F6851B" stroke-linecap="round" stroke-linejoin="round" points="1.515996 8.143524 5.074488 7.102512 3.999456 8.728668"></polygon>
            <polygon id="Path" stroke="#F6851B" fill="#F6851B" stroke-linecap="round" stroke-linejoin="round" points="16.205832 8.143524 13.722372 8.728668 12.64734 7.102512"></polygon>
            <polygon id="Path" stroke="#763D16" fill="#763D16" stroke-linecap="round" stroke-linejoin="round" points="0.767556 5.469552 0.189216 2.69352 3.883788 3.265056"></polygon>
            <polygon id="Path" stroke="#763D16" fill="#763D16" stroke-linecap="round" stroke-linejoin="round" points="13.83804 3.265056 17.532612 2.69352 16.961076 5.469552"></polygon>
            <polygon id="Path" stroke="#E4761B" fill="#E4761B" stroke-linecap="round" stroke-linejoin="round" points="5.074488 7.102512 7.591968 4.97286 7.823304 8.898768"></polygon>
            <polygon id="Path" stroke="#E4761B" fill="#E4761B" stroke-linecap="round" stroke-linejoin="round" points="12.64734 7.102512 13.722372 8.728668 9.898524 8.898768"></polygon>
            <polygon id="Path" stroke="#E4761B" fill="#E4761B" stroke-linecap="round" stroke-linejoin="round" points="9.898524 8.898768 10.12986 4.97286 12.64734 7.102512"></polygon>
            <polygon id="Path" stroke="#E4761B" fill="#E4761B" stroke-linecap="round" stroke-linejoin="round" points="7.823304 8.898768 3.999456 8.728668 5.074488 7.102512"></polygon>
            <polygon id="Path" stroke="#763D16" fill="#763D16" stroke-linecap="round" stroke-linejoin="round" points="16.675308 0.114804 17.532612 2.69352 13.83804 3.265056"></polygon>
            <polygon id="Path" stroke="#763D16" fill="#763D16" stroke-linecap="round" stroke-linejoin="round" points="1.04652 0.114804 7.591968 4.97286 3.883788 3.265056"></polygon>
            <polygon id="Path" stroke="#763D16" fill="#763D16" stroke-linecap="round" stroke-linejoin="round" points="13.83804 3.265056 10.12986 4.97286 16.675308 0.114804"></polygon>
            <polygon id="Path" stroke="#763D16" fill="#763D16" stroke-linecap="round" stroke-linejoin="round" points="3.883788 3.265056 0.189216 2.69352 1.04652 0.114804"></polygon>
            <polygon id="Path" stroke="#CD6116" fill="#CD6116" stroke-linecap="round" stroke-linejoin="round" points="5.285412 14.53248 3.489156 11.831292 5.6052 11.858508"></polygon>
            <polygon id="Path" stroke="#CD6116" fill="#CD6116" stroke-linecap="round" stroke-linejoin="round" points="12.436416 14.53248 12.116628 11.858508 14.239476 11.831292"></polygon>
            <polygon id="Path" stroke="#F6851B" fill="#F6851B" stroke-linecap="round" stroke-linejoin="round" points="9.898524 8.898768 7.823304 8.898768 7.591968 4.97286"></polygon>
            <polygon id="Path" stroke="#F6851B" fill="#F6851B" stroke-linecap="round" stroke-linejoin="round" points="7.591968 4.97286 10.12986 4.97286 9.898524 8.898768"></polygon>
            <polygon id="Path" stroke="#C0AD9E" fill="#C0AD9E" stroke-linecap="round" stroke-linejoin="round" points="6.033852 15.14484 5.285412 14.53248 7.428672 15.546276"></polygon>
            <polygon id="Path" stroke="#C0AD9E" fill="#C0AD9E" stroke-linecap="round" stroke-linejoin="round" points="10.293156 15.546276 12.436416 14.53248 11.687976 15.14484"></polygon>
            <polygon id="Path" stroke="#D7C1B3" fill="#D7C1B3" stroke-linecap="round" stroke-linejoin="round" points="7.415064 14.913504 7.428672 15.546276 5.285412 14.53248"></polygon>
            <polygon id="Path" stroke="#D7C1B3" fill="#D7C1B3" stroke-linecap="round" stroke-linejoin="round" points="10.313568 14.913504 12.436416 14.53248 10.293156 15.546276"></polygon>
            <polygon id="Path" stroke="#F6851B" fill="#F6851B" stroke-linecap="round" stroke-linejoin="round" points="3.999456 8.728668 5.6052 11.858508 3.489156 11.831292"></polygon>
            <polygon id="Path" stroke="#F6851B" fill="#F6851B" stroke-linecap="round" stroke-linejoin="round" points="14.239476 11.831292 12.116628 11.858508 13.722372 8.728668"></polygon>
            <polygon id="Path" stroke="#E4751F" fill="#E4751F" stroke-linecap="round" stroke-linejoin="round" points="3.999456 8.728668 5.550768 10.300392 5.6052 11.858508"></polygon>
            <polygon id="Path" stroke="#E4751F" fill="#E4751F" stroke-linecap="round" stroke-linejoin="round" points="13.722372 8.728668 12.116628 11.858508 12.177864 10.300392"></polygon>
            <polygon id="Path" stroke="#D7C1B3" fill="#D7C1B3" stroke-linecap="round" stroke-linejoin="round" points="5.285412 14.53248 7.591968 13.40982 7.415064 14.913504"></polygon>
            <polygon id="Path" stroke="#D7C1B3" fill="#D7C1B3" stroke-linecap="round" stroke-linejoin="round" points="12.436416 14.53248 10.313568 14.913504 10.12986 13.40982"></polygon>
            <polygon id="Path" stroke="#E4761B" fill="#E4761B" stroke-linecap="round" stroke-linejoin="round" points="7.591968 13.40982 5.285412 14.53248 5.6052 11.858508"></polygon>
            <polygon id="Path" stroke="#E4761B" fill="#E4761B" stroke-linecap="round" stroke-linejoin="round" points="10.12986 13.40982 12.116628 11.858508 12.436416 14.53248"></polygon>
            <polygon id="Path" stroke="#CD6116" fill="#CD6116" stroke-linecap="round" stroke-linejoin="round" points="9.898524 8.898768 13.722372 8.728668 12.177864 10.300392"></polygon>
            <polygon id="Path" stroke="#CD6116" fill="#CD6116" stroke-linecap="round" stroke-linejoin="round" points="5.550768 10.300392 3.999456 8.728668 7.823304 8.898768"></polygon>
            <polygon id="Path" stroke="#CD6116" fill="#CD6116" stroke-linecap="round" stroke-linejoin="round" points="7.823304 8.898768 6.904764 9.681228 5.550768 10.300392"></polygon>
            <polygon id="Path" stroke="#CD6116" fill="#CD6116" stroke-linecap="round" stroke-linejoin="round" points="12.177864 10.300392 10.817064 9.681228 9.898524 8.898768"></polygon>
            <polygon id="Path" stroke="#F6851B" fill="#F6851B" stroke-linecap="round" stroke-linejoin="round" points="12.116628 11.858508 10.252332 10.865124 12.177864 10.300392"></polygon>
            <polygon id="Path" stroke="#F6851B" fill="#F6851B" stroke-linecap="round" stroke-linejoin="round" points="5.6052 11.858508 5.550768 10.300392 7.469496 10.865124"></polygon>
            <polygon id="Path" stroke="#233447" fill="#233447" stroke-linecap="round" stroke-linejoin="round" points="7.469496 10.865124 5.550768 10.300392 6.904764 9.681228"></polygon>
            <polygon id="Path" stroke="#233447" fill="#233447" stroke-linecap="round" stroke-linejoin="round" points="10.252332 10.865124 10.817064 9.681228 12.177864 10.300392"></polygon>
            <polygon id="Path" stroke="#CD6116" fill="#CD6116" stroke-linecap="round" stroke-linejoin="round" points="10.817064 9.681228 10.252332 10.865124 9.898524 8.898768"></polygon>
            <polygon id="Path" stroke="#CD6116" fill="#CD6116" stroke-linecap="round" stroke-linejoin="round" points="6.904764 9.681228 7.823304 8.898768 7.469496 10.865124"></polygon>
            <polygon id="Path" stroke="#C0AD9E" fill="#C0AD9E" stroke-linecap="round" stroke-linejoin="round" points="11.687976 15.14484 10.16388 16.19946 10.293156 15.546276"></polygon>
            <polygon id="Path" stroke="#C0AD9E" fill="#C0AD9E" stroke-linecap="round" stroke-linejoin="round" points="7.428672 15.546276 7.557948 16.19946 6.033852 15.14484"></polygon>
            <polygon id="Path" stroke="#E2761B" fill="#E2761B" stroke-linecap="round" stroke-linejoin="round" points="10.252332 10.865124 9.810072 10.137096 9.898524 8.898768"></polygon>
            <polygon id="Path" stroke="#E4751F" fill="#E4751F" stroke-linecap="round" stroke-linejoin="round" points="7.469496 10.865124 7.823304 8.898768 7.911756 10.137096"></polygon>
            <polygon id="Path" stroke="#F6851B" fill="#F6851B" stroke-linecap="round" stroke-linejoin="round" points="9.898524 8.898768 9.810072 10.137096 7.911756 10.137096"></polygon>
            <polygon id="Path" stroke="#F6851B" fill="#F6851B" stroke-linecap="round" stroke-linejoin="round" points="7.911756 10.137096 7.823304 8.898768 9.898524 8.898768"></polygon>
            <polygon id="Path" stroke="#F6851B" fill="#F6851B" stroke-linecap="round" stroke-linejoin="round" points="10.252332 10.865124 12.116628 11.858508 10.12986 13.40982"></polygon>
            <polygon id="Path" stroke="#F6851B" fill="#F6851B" stroke-linecap="round" stroke-linejoin="round" points="7.591968 13.40982 5.6052 11.858508 7.469496 10.865124"></polygon>
            <polygon id="Path" stroke="#F6851B" fill="#F6851B" stroke-linecap="round" stroke-linejoin="round" points="7.469496 10.865124 7.91856 13.185288 7.591968 13.40982"></polygon>
            <polygon id="Path" stroke="#F6851B" fill="#F6851B" stroke-linecap="round" stroke-linejoin="round" points="10.12986 13.40982 9.803268 13.185288 10.252332 10.865124"></polygon>
            <polygon id="Path" stroke="#E4751F" fill="#E4751F" stroke-linecap="round" stroke-linejoin="round" points="9.810072 10.137096 10.252332 10.865124 9.803268 13.185288"></polygon>
            <polygon id="Path" stroke="#E4751F" fill="#E4751F" stroke-linecap="round" stroke-linejoin="round" points="7.911756 10.137096 7.91856 13.185288 7.469496 10.865124"></polygon>
            <polygon id="Path" stroke="#F6851B" fill="#F6851B" stroke-linecap="round" stroke-linejoin="round" points="7.911756 10.137096 9.810072 10.137096 9.803268 13.185288"></polygon>
            <polygon id="Path" stroke="#F6851B" fill="#F6851B" stroke-linecap="round" stroke-linejoin="round" points="9.803268 13.185288 7.91856 13.185288 7.911756 10.137096"></polygon>
            <polygon id="Path" stroke="#C0AD9E" fill="#C0AD9E" stroke-linecap="round" stroke-linejoin="round" points="10.313568 14.913504 10.293156 15.546276 10.16388 16.19946"></polygon>
            <polygon id="Path" stroke="#C0AD9E" fill="#C0AD9E" stroke-linecap="round" stroke-linejoin="round" points="7.557948 16.19946 7.428672 15.546276 7.415064 14.913504"></polygon>
            <polygon id="Path" stroke="#C0AD9E" fill="#C0AD9E" stroke-linecap="round" stroke-linejoin="round" points="7.415064 14.913504 7.57836 14.763816 7.557948 16.19946"></polygon>
            <polygon id="Path" stroke="#C0AD9E" fill="#C0AD9E" stroke-linecap="round" stroke-linejoin="round" points="10.16388 16.19946 10.143468 14.763816 10.313568 14.913504"></polygon>
            <polygon id="Path" stroke="#C0AD9E" fill="#C0AD9E" stroke-linecap="round" stroke-linejoin="round" points="7.557948 16.19946 7.57836 14.763816 10.143468 14.763816"></polygon>
            <polygon id="Path" stroke="#C0AD9E" fill="#C0AD9E" stroke-linecap="round" stroke-linejoin="round" points="10.143468 14.763816 10.16388 16.19946 7.557948 16.19946"></polygon>
            <polygon id="Path" stroke="#161616" fill="#161616" stroke-linecap="round" stroke-linejoin="round" points="10.12986 13.40982 10.313568 14.913504 10.143468 14.763816"></polygon>
            <polygon id="Path" stroke="#161616" fill="#161616" stroke-linecap="round" stroke-linejoin="round" points="7.57836 14.763816 7.415064 14.913504 7.591968 13.40982"></polygon>
            <polygon id="Path" stroke="#161616" fill="#161616" stroke-linecap="round" stroke-linejoin="round" points="7.591968 13.40982 7.694028 13.729608 7.57836 14.763816"></polygon>
            <polygon id="Path" stroke="#161616" fill="#161616" stroke-linecap="round" stroke-linejoin="round" points="10.143468 14.763816 10.0278 13.729608 10.12986 13.40982"></polygon>
            <polygon id="Path" stroke="#161616" fill="#161616" stroke-linecap="round" stroke-linejoin="round" points="7.898148 13.491468 7.694028 13.729608 7.591968 13.40982"></polygon>
            <polygon id="Path" stroke="#161616" fill="#161616" stroke-linecap="round" stroke-linejoin="round" points="10.12986 13.40982 10.0278 13.729608 9.82368 13.491468"></polygon>
            <polygon id="Path" stroke="#161616" fill="#161616" stroke-linecap="round" stroke-linejoin="round" points="9.82368 13.491468 9.803268 13.185288 10.12986 13.40982"></polygon>
            <polygon id="Path" stroke="#161616" fill="#161616" stroke-linecap="round" stroke-linejoin="round" points="7.591968 13.40982 7.91856 13.185288 7.898148 13.491468"></polygon>
            <polygon id="Path" stroke="#161616" fill="#161616" stroke-linecap="round" stroke-linejoin="round" points="9.803268 13.185288 9.82368 13.491468 7.898148 13.491468"></polygon>
            <polygon id="Path" stroke="#161616" fill="#161616" stroke-linecap="round" stroke-linejoin="round" points="7.898148 13.491468 7.91856 13.185288 9.803268 13.185288"></polygon>
            <polygon id="Path" stroke="#161616" fill="#161616" stroke-linecap="round" stroke-linejoin="round" points="7.694028 13.729608 10.0278 13.729608 10.143468 14.763816"></polygon>
            <polygon id="Path" stroke="#161616" fill="#161616" stroke-linecap="round" stroke-linejoin="round" points="10.143468 14.763816 7.57836 14.763816 7.694028 13.729608"></polygon>
            <polygon id="Path" stroke="#161616" fill="#161616" stroke-linecap="round" stroke-linejoin="round" points="7.694028 13.729608 7.898148 13.491468 9.82368 13.491468"></polygon>
            <polygon id="Path" stroke="#161616" fill="#161616" stroke-linecap="round" stroke-linejoin="round" points="9.82368 13.491468 10.0278 13.729608 7.694028 13.729608"></polygon>
            <polygon id="Path" stroke="#161616" fill="#161616" points="16.988292 7.224984 16.648092 6.98004 17.192412 6.483348 16.777368 6.156756 17.321688 5.741712 16.961076 5.469552 17.532612 2.69352 16.675308 0.114804 11.157264 2.176416 6.564564 2.176416 1.04652 0.114804 0.189216 2.69352 0.767556 5.469552 0.40014 5.741712 0.94446 6.156756 0.529416 6.483348 1.073736 6.98004 0.733536 7.224984 1.515996 8.143524 0.3321 11.831292 1.427544 15.593904 5.285412 14.53248 6.033852 15.14484 7.557948 16.19946 10.16388 16.19946 11.687976 15.14484 12.436416 14.53248 16.294284 15.593904 17.396532 11.831292 16.205832 8.143524"></polygon>
            <polygon id="Path" stroke="#E4761B" fill="#E4761B" stroke-linecap="round" stroke-linejoin="round" points="5.285412 14.53248 1.427544 15.593904 0.3321 11.831292"></polygon>
            <polygon id="Path" stroke="#E4761B" fill="#E4761B" stroke-linecap="round" stroke-linejoin="round" points="17.396532 11.831292 16.294284 15.593904 12.436416 14.53248"></polygon>
            <polygon id="Path" stroke="#763D16" fill="#763D16" stroke-linecap="round" stroke-linejoin="round" points="16.205832 8.143524 12.64734 7.102512 13.892472 6.77592"></polygon>
            <polygon id="Path" stroke="#763D16" fill="#763D16" stroke-linecap="round" stroke-linejoin="round" points="1.515996 8.143524 3.83616 6.77592 5.074488 7.102512"></polygon>
            <polygon id="Path" stroke="#763D16" fill="#763D16" stroke-linecap="round" stroke-linejoin="round" points="1.073736 6.98004 0.94446 6.156756 3.83616 6.77592"></polygon>
            <polygon id="Path" stroke="#763D16" fill="#763D16" stroke-linecap="round" stroke-linejoin="round" points="16.648092 6.98004 13.892472 6.77592 16.777368 6.156756"></polygon>
            <polygon id="Path" stroke="#763D16" fill="#763D16" stroke-linecap="round" stroke-linejoin="round" points="16.648092 6.98004 16.205832 8.143524 13.892472 6.77592"></polygon>
            <polygon id="Path" stroke="#763D16" fill="#763D16" stroke-linecap="round" stroke-linejoin="round" points="1.073736 6.98004 3.83616 6.77592 1.515996 8.143524"></polygon>
            <polygon id="Path" stroke="#763D16" fill="#763D16" stroke-linecap="round" stroke-linejoin="round" points="13.892472 6.77592 16.961076 5.469552 16.777368 6.156756"></polygon>
            <polygon id="Path" stroke="#763D16" fill="#763D16" stroke-linecap="round" stroke-linejoin="round" points="3.83616 6.77592 0.94446 6.156756 0.767556 5.469552"></polygon>
            <polygon id="Path" stroke="#F6851B" fill="#F6851B" stroke-linecap="round" stroke-linejoin="round" points="6.564564 2.176416 11.157264 2.176416 10.12986 4.97286"></polygon>
            <polygon id="Path" stroke="#F6851B" fill="#F6851B" stroke-linecap="round" stroke-linejoin="round" points="10.12986 4.97286 7.591968 4.97286 6.564564 2.176416"></polygon>
            <polygon id="Path" stroke="#763D16" fill="#763D16" stroke-linecap="round" stroke-linejoin="round" points="16.961076 5.469552 13.892472 6.77592 13.83804 3.265056"></polygon>
            <polygon id="Path" stroke="#763D16" fill="#763D16" stroke-linecap="round" stroke-linejoin="round" points="5.074488 7.102512 3.83616 6.77592 3.883788 3.265056"></polygon>
            <polygon id="Path" stroke="#763D16" fill="#763D16" stroke-linecap="round" stroke-linejoin="round" points="3.883788 3.265056 3.83616 6.77592 0.767556 5.469552"></polygon>
            <polygon id="Path" stroke="#763D16" fill="#763D16" stroke-linecap="round" stroke-linejoin="round" points="13.83804 3.265056 13.892472 6.77592 12.64734 7.102512"></polygon>
            <polygon id="Path" stroke="#E4761B" fill="#E4761B" stroke-linecap="round" stroke-linejoin="round" points="7.591968 4.97286 1.04652 0.114804 6.564564 2.176416"></polygon>
            <polygon id="Path" stroke="#E2761B" fill="#E2761B" stroke-linecap="round" stroke-linejoin="round" points="16.675308 0.114804 10.12986 4.97286 11.157264 2.176416"></polygon>
            <polygon id="Path" stroke="#E4761B" fill="#E4761B" stroke-linecap="round" stroke-linejoin="round" points="12.436416 14.53248 14.239476 11.831292 17.396532 11.831292"></polygon>
            <polygon id="Path" stroke="#E4761B" fill="#E4761B" stroke-linecap="round" stroke-linejoin="round" points="0.3321 11.831292 3.489156 11.831292 5.285412 14.53248"></polygon>
            <polygon id="Path" stroke="#F6851B" fill="#F6851B" stroke-linecap="round" stroke-linejoin="round" points="13.722372 8.728668 17.396532 11.831292 14.239476 11.831292"></polygon>
            <polygon id="Path" stroke="#F6851B" fill="#F6851B" stroke-linecap="round" stroke-linejoin="round" points="3.999456 8.728668 0.3321 11.831292 1.515996 8.143524"></polygon>
            <polygon id="Path" stroke="#F6851B" fill="#F6851B" stroke-linecap="round" stroke-linejoin="round" points="3.489156 11.831292 0.3321 11.831292 3.999456 8.728668"></polygon>
            <polygon id="Path" stroke="#F6851B" fill="#F6851B" stroke-linecap="round" stroke-linejoin="round" points="13.722372 8.728668 16.205832 8.143524 17.396532 11.831292"></polygon>
            <polygon id="Path" stroke="#763D16" fill="#763D16" stroke-linecap="round" stroke-linejoin="round" points="3.883788 3.265056 7.591968 4.97286 5.074488 7.102512"></polygon>
            <polygon id="Path" stroke="#763D16" fill="#763D16" stroke-linecap="round" stroke-linejoin="round" points="12.64734 7.102512 10.12986 4.97286 13.83804 3.265056"></polygon>
            <polygon id="Path" stroke="#763D16" fill="#763D16" stroke-linecap="round" stroke-linejoin="round" points="16.205832 8.143524 16.648092 6.98004 16.988292 7.224984"></polygon>
            <polygon id="Path" stroke="#763D16" fill="#763D16" stroke-linecap="round" stroke-linejoin="round" points="1.515996 8.143524 0.733536 7.224984 1.073736 6.98004"></polygon>
            <polygon id="Path" stroke="#763D16" fill="#763D16" stroke-linecap="round" stroke-linejoin="round" points="16.648092 6.98004 16.777368 6.156756 17.192412 6.483348"></polygon>
            <polygon id="Path" stroke="#763D16" fill="#763D16" stroke-linecap="round" stroke-linejoin="round" points="1.073736 6.98004 0.529416 6.483348 0.94446 6.156756"></polygon>
            <polygon id="Path" stroke="#763D16" fill="#763D16" stroke-linecap="round" stroke-linejoin="round" points="0.40014 5.741712 0.767556 5.469552 0.94446 6.156756"></polygon>
            <polygon id="Path" stroke="#763D16" fill="#763D16" stroke-linecap="round" stroke-linejoin="round" points="17.321688 5.741712 16.777368 6.156756 16.961076 5.469552"></polygon>
            <polygon id="Path" stroke="#F6851B" fill="#F6851B" stroke-linecap="round" stroke-linejoin="round" points="1.515996 8.143524 5.074488 7.102512 3.999456 8.728668"></polygon>
            <polygon id="Path" stroke="#F6851B" fill="#F6851B" stroke-linecap="round" stroke-linejoin="round" points="16.205832 8.143524 13.722372 8.728668 12.64734 7.102512"></polygon>
            <polygon id="Path" stroke="#763D16" fill="#763D16" stroke-linecap="round" stroke-linejoin="round" points="0.767556 5.469552 0.189216 2.69352 3.883788 3.265056"></polygon>
            <polygon id="Path" stroke="#763D16" fill="#763D16" stroke-linecap="round" stroke-linejoin="round" points="13.83804 3.265056 17.532612 2.69352 16.961076 5.469552"></polygon>
            <polygon id="Path" stroke="#E4761B" fill="#E4761B" stroke-linecap="round" stroke-linejoin="round" points="5.074488 7.102512 7.591968 4.97286 7.823304 8.898768"></polygon>
            <polygon id="Path" stroke="#E4761B" fill="#E4761B" stroke-linecap="round" stroke-linejoin="round" points="12.64734 7.102512 13.722372 8.728668 9.898524 8.898768"></polygon>
            <polygon id="Path" stroke="#E4761B" fill="#E4761B" stroke-linecap="round" stroke-linejoin="round" points="9.898524 8.898768 10.12986 4.97286 12.64734 7.102512"></polygon>
            <polygon id="Path" stroke="#E4761B" fill="#E4761B" stroke-linecap="round" stroke-linejoin="round" points="7.823304 8.898768 3.999456 8.728668 5.074488 7.102512"></polygon>
            <polygon id="Path" stroke="#763D16" fill="#763D16" stroke-linecap="round" stroke-linejoin="round" points="16.675308 0.114804 17.532612 2.69352 13.83804 3.265056"></polygon>
            <polygon id="Path" stroke="#763D16" fill="#763D16" stroke-linecap="round" stroke-linejoin="round" points="1.04652 0.114804 7.591968 4.97286 3.883788 3.265056"></polygon>
            <polygon id="Path" stroke="#763D16" fill="#763D16" stroke-linecap="round" stroke-linejoin="round" points="13.83804 3.265056 10.12986 4.97286 16.675308 0.114804"></polygon>
            <polygon id="Path" stroke="#763D16" fill="#763D16" stroke-linecap="round" stroke-linejoin="round" points="3.883788 3.265056 0.189216 2.69352 1.04652 0.114804"></polygon>
            <polygon id="Path" stroke="#CD6116" fill="#CD6116" stroke-linecap="round" stroke-linejoin="round" points="5.285412 14.53248 3.489156 11.831292 5.6052 11.858508"></polygon>
            <polygon id="Path" stroke="#CD6116" fill="#CD6116" stroke-linecap="round" stroke-linejoin="round" points="12.436416 14.53248 12.116628 11.858508 14.239476 11.831292"></polygon>
            <polygon id="Path" stroke="#F6851B" fill="#F6851B" stroke-linecap="round" stroke-linejoin="round" points="9.898524 8.898768 7.823304 8.898768 7.591968 4.97286"></polygon>
            <polygon id="Path" stroke="#F6851B" fill="#F6851B" stroke-linecap="round" stroke-linejoin="round" points="7.591968 4.97286 10.12986 4.97286 9.898524 8.898768"></polygon>
            <polygon id="Path" stroke="#C0AD9E" fill="#C0AD9E" stroke-linecap="round" stroke-linejoin="round" points="6.033852 15.14484 5.285412 14.53248 7.428672 15.546276"></polygon>
            <polygon id="Path" stroke="#C0AD9E" fill="#C0AD9E" stroke-linecap="round" stroke-linejoin="round" points="10.293156 15.546276 12.436416 14.53248 11.687976 15.14484"></polygon>
            <polygon id="Path" stroke="#D7C1B3" fill="#D7C1B3" stroke-linecap="round" stroke-linejoin="round" points="7.415064 14.913504 7.428672 15.546276 5.285412 14.53248"></polygon>
            <polygon id="Path" stroke="#D7C1B3" fill="#D7C1B3" stroke-linecap="round" stroke-linejoin="round" points="10.313568 14.913504 12.436416 14.53248 10.293156 15.546276"></polygon>
            <polygon id="Path" stroke="#F6851B" fill="#F6851B" stroke-linecap="round" stroke-linejoin="round" points="3.999456 8.728668 5.6052 11.858508 3.489156 11.831292"></polygon>
            <polygon id="Path" stroke="#F6851B" fill="#F6851B" stroke-linecap="round" stroke-linejoin="round" points="14.239476 11.831292 12.116628 11.858508 13.722372 8.728668"></polygon>
            <polygon id="Path" stroke="#E4751F" fill="#E4751F" stroke-linecap="round" stroke-linejoin="round" points="3.999456 8.728668 5.550768 10.300392 5.6052 11.858508"></polygon>
            <polygon id="Path" stroke="#E4751F" fill="#E4751F" stroke-linecap="round" stroke-linejoin="round" points="13.722372 8.728668 12.116628 11.858508 12.177864 10.300392"></polygon>
            <polygon id="Path" stroke="#D7C1B3" fill="#D7C1B3" stroke-linecap="round" stroke-linejoin="round" points="5.285412 14.53248 7.591968 13.40982 7.415064 14.913504"></polygon>
            <polygon id="Path" stroke="#D7C1B3" fill="#D7C1B3" stroke-linecap="round" stroke-linejoin="round" points="12.436416 14.53248 10.313568 14.913504 10.12986 13.40982"></polygon>
            <polygon id="Path" stroke="#E4761B" fill="#E4761B" stroke-linecap="round" stroke-linejoin="round" points="7.591968 13.40982 5.285412 14.53248 5.6052 11.858508"></polygon>
            <polygon id="Path" stroke="#E4761B" fill="#E4761B" stroke-linecap="round" stroke-linejoin="round" points="10.12986 13.40982 12.116628 11.858508 12.436416 14.53248"></polygon>
            <polygon id="Path" stroke="#CD6116" fill="#CD6116" stroke-linecap="round" stroke-linejoin="round" points="9.898524 8.898768 13.722372 8.728668 12.177864 10.300392"></polygon>
            <polygon id="Path" stroke="#CD6116" fill="#CD6116" stroke-linecap="round" stroke-linejoin="round" points="5.550768 10.300392 3.999456 8.728668 7.823304 8.898768"></polygon>
            <polygon id="Path" stroke="#CD6116" fill="#CD6116" stroke-linecap="round" stroke-linejoin="round" points="7.823304 8.898768 6.904764 9.681228 5.550768 10.300392"></polygon>
            <polygon id="Path" stroke="#CD6116" fill="#CD6116" stroke-linecap="round" stroke-linejoin="round" points="12.177864 10.300392 10.817064 9.681228 9.898524 8.898768"></polygon>
            <polygon id="Path" stroke="#F6851B" fill="#F6851B" stroke-linecap="round" stroke-linejoin="round" points="12.116628 11.858508 10.252332 10.865124 12.177864 10.300392"></polygon>
            <polygon id="Path" stroke="#F6851B" fill="#F6851B" stroke-linecap="round" stroke-linejoin="round" points="5.6052 11.858508 5.550768 10.300392 7.469496 10.865124"></polygon>
            <polygon id="Path" stroke="#233447" fill="#233447" stroke-linecap="round" stroke-linejoin="round" points="7.469496 10.865124 5.550768 10.300392 6.904764 9.681228"></polygon>
            <polygon id="Path" stroke="#233447" fill="#233447" stroke-linecap="round" stroke-linejoin="round" points="10.252332 10.865124 10.817064 9.681228 12.177864 10.300392"></polygon>
            <polygon id="Path" stroke="#CD6116" fill="#CD6116" stroke-linecap="round" stroke-linejoin="round" points="10.817064 9.681228 10.252332 10.865124 9.898524 8.898768"></polygon>
            <polygon id="Path" stroke="#CD6116" fill="#CD6116" stroke-linecap="round" stroke-linejoin="round" points="6.904764 9.681228 7.823304 8.898768 7.469496 10.865124"></polygon>
            <polygon id="Path" stroke="#C0AD9E" fill="#C0AD9E" stroke-linecap="round" stroke-linejoin="round" points="11.687976 15.14484 10.16388 16.19946 10.293156 15.546276"></polygon>
            <polygon id="Path" stroke="#C0AD9E" fill="#C0AD9E" stroke-linecap="round" stroke-linejoin="round" points="7.428672 15.546276 7.557948 16.19946 6.033852 15.14484"></polygon>
            <polygon id="Path" stroke="#E2761B" fill="#E2761B" stroke-linecap="round" stroke-linejoin="round" points="10.252332 10.865124 9.810072 10.137096 9.898524 8.898768"></polygon>
            <polygon id="Path" stroke="#E4751F" fill="#E4751F" stroke-linecap="round" stroke-linejoin="round" points="7.469496 10.865124 7.823304 8.898768 7.911756 10.137096"></polygon>
            <polygon id="Path" stroke="#F6851B" fill="#F6851B" stroke-linecap="round" stroke-linejoin="round" points="9.898524 8.898768 9.810072 10.137096 7.911756 10.137096"></polygon>
            <polygon id="Path" stroke="#F6851B" fill="#F6851B" stroke-linecap="round" stroke-linejoin="round" points="7.911756 10.137096 7.823304 8.898768 9.898524 8.898768"></polygon>
            <polygon id="Path" stroke="#F6851B" fill="#F6851B" stroke-linecap="round" stroke-linejoin="round" points="10.252332 10.865124 12.116628 11.858508 10.12986 13.40982"></polygon>
            <polygon id="Path" stroke="#F6851B" fill="#F6851B" stroke-linecap="round" stroke-linejoin="round" points="7.591968 13.40982 5.6052 11.858508 7.469496 10.865124"></polygon>
            <polygon id="Path" stroke="#F6851B" fill="#F6851B" stroke-linecap="round" stroke-linejoin="round" points="7.469496 10.865124 7.91856 13.185288 7.591968 13.40982"></polygon>
            <polygon id="Path" stroke="#F6851B" fill="#F6851B" stroke-linecap="round" stroke-linejoin="round" points="10.12986 13.40982 9.803268 13.185288 10.252332 10.865124"></polygon>
            <polygon id="Path" stroke="#E4751F" fill="#E4751F" stroke-linecap="round" stroke-linejoin="round" points="9.810072 10.137096 10.252332 10.865124 9.803268 13.185288"></polygon>
            <polygon id="Path" stroke="#E4751F" fill="#E4751F" stroke-linecap="round" stroke-linejoin="round" points="7.911756 10.137096 7.91856 13.185288 7.469496 10.865124"></polygon>
            <polygon id="Path" stroke="#F6851B" fill="#F6851B" stroke-linecap="round" stroke-linejoin="round" points="7.911756 10.137096 9.810072 10.137096 9.803268 13.185288"></polygon>
            <polygon id="Path" stroke="#F6851B" fill="#F6851B" stroke-linecap="round" stroke-linejoin="round" points="9.803268 13.185288 7.91856 13.185288 7.911756 10.137096"></polygon>
            <polygon id="Path" stroke="#C0AD9E" fill="#C0AD9E" stroke-linecap="round" stroke-linejoin="round" points="10.313568 14.913504 10.293156 15.546276 10.16388 16.19946"></polygon>
            <polygon id="Path" stroke="#C0AD9E" fill="#C0AD9E" stroke-linecap="round" stroke-linejoin="round" points="7.557948 16.19946 7.428672 15.546276 7.415064 14.913504"></polygon>
            <polygon id="Path" stroke="#C0AD9E" fill="#C0AD9E" stroke-linecap="round" stroke-linejoin="round" points="7.415064 14.913504 7.57836 14.763816 7.557948 16.19946"></polygon>
            <polygon id="Path" stroke="#C0AD9E" fill="#C0AD9E" stroke-linecap="round" stroke-linejoin="round" points="10.16388 16.19946 10.143468 14.763816 10.313568 14.913504"></polygon>
            <polygon id="Path" stroke="#C0AD9E" fill="#C0AD9E" stroke-linecap="round" stroke-linejoin="round" points="7.557948 16.19946 7.57836 14.763816 10.143468 14.763816"></polygon>
            <polygon id="Path" stroke="#C0AD9E" fill="#C0AD9E" stroke-linecap="round" stroke-linejoin="round" points="10.143468 14.763816 10.16388 16.19946 7.557948 16.19946"></polygon>
            <polygon id="Path" stroke="#161616" fill="#161616" stroke-linecap="round" stroke-linejoin="round" points="10.12986 13.40982 10.313568 14.913504 10.143468 14.763816"></polygon>
            <polygon id="Path" stroke="#161616" fill="#161616" stroke-linecap="round" stroke-linejoin="round" points="7.57836 14.763816 7.415064 14.913504 7.591968 13.40982"></polygon>
            <polygon id="Path" stroke="#161616" fill="#161616" stroke-linecap="round" stroke-linejoin="round" points="7.591968 13.40982 7.694028 13.729608 7.57836 14.763816"></polygon>
            <polygon id="Path" stroke="#161616" fill="#161616" stroke-linecap="round" stroke-linejoin="round" points="10.143468 14.763816 10.0278 13.729608 10.12986 13.40982"></polygon>
            <polygon id="Path" stroke="#161616" fill="#161616" stroke-linecap="round" stroke-linejoin="round" points="7.898148 13.491468 7.694028 13.729608 7.591968 13.40982"></polygon>
            <polygon id="Path" stroke="#161616" fill="#161616" stroke-linecap="round" stroke-linejoin="round" points="10.12986 13.40982 10.0278 13.729608 9.82368 13.491468"></polygon>
            <polygon id="Path" stroke="#161616" fill="#161616" stroke-linecap="round" stroke-linejoin="round" points="9.82368 13.491468 9.803268 13.185288 10.12986 13.40982"></polygon>
            <polygon id="Path" stroke="#161616" fill="#161616" stroke-linecap="round" stroke-linejoin="round" points="7.591968 13.40982 7.91856 13.185288 7.898148 13.491468"></polygon>
            <polygon id="Path" stroke="#161616" fill="#161616" stroke-linecap="round" stroke-linejoin="round" points="9.803268 13.185288 9.82368 13.491468 7.898148 13.491468"></polygon>
            <polygon id="Path" stroke="#161616" fill="#161616" stroke-linecap="round" stroke-linejoin="round" points="7.898148 13.491468 7.91856 13.185288 9.803268 13.185288"></polygon>
            <polygon id="Path" stroke="#161616" fill="#161616" stroke-linecap="round" stroke-linejoin="round" points="7.694028 13.729608 10.0278 13.729608 10.143468 14.763816"></polygon>
            <polygon id="Path" stroke="#161616" fill="#161616" stroke-linecap="round" stroke-linejoin="round" points="10.143468 14.763816 7.57836 14.763816 7.694028 13.729608"></polygon>
            <polygon id="Path" stroke="#161616" fill="#161616" stroke-linecap="round" stroke-linejoin="round" points="7.694028 13.729608 7.898148 13.491468 9.82368 13.491468"></polygon>
            <polygon id="Path" stroke="#161616" fill="#161616" stroke-linecap="round" stroke-linejoin="round" points="9.82368 13.491468 10.0278 13.729608 7.694028 13.729608"></polygon>
        </g>
    </g>
</svg>