<?xml version="1.0" encoding="UTF-8"?>
<svg width="24px" height="24px" viewBox="0 0 24 24" version="1.1" xmlns="http://www.w3.org/2000/svg" xmlns:xlink="http://www.w3.org/1999/xlink">
    <g id="wallet-icon" stroke="none" stroke-width="1" fill-rule="evenodd">
        <path d="M19.4053233,4 C20.286093,4 21,4.70764594 21,5.5803049 L21,5.5803049 L21,9.29388051 L13.7831873,9.29388051 C12.2858472,9.29388051 11.0719841,10.4965655 11.0719841,11.980117 C11.0719841,13.4639817 12.2858472,14.6666667 13.7831873,14.6666667 L13.7831873,14.6666667 L21,14.6666667 L21,18.4196951 C21,19.2923541 20.286093,20 19.4053233,20 L19.4053233,20 L4.59499271,20 C3.71422301,20 3,19.2923541 3,18.4196951 L3,18.4196951 L3,5.5803049 C3,4.70764594 3.71422301,4 4.59499271,4 L4.59499271,4 Z M13.7830293,10.6986534 C14.5320154,10.6986534 15.1387889,11.3057429 15.1387889,12.054413 C15.1387889,12.803083 14.5320154,13.4101726 13.7830293,13.4101726 C13.0343593,13.4101726 12.4275857,12.803083 12.4275857,12.054413 C12.4275857,11.3057429 13.0343593,10.6986534 13.7830293,10.6986534 Z" id="Combined-Shape"></path>
    </g>
</svg>
