<svg width="24px" height="24px" viewBox="0 0 24 24" version="1.1" xmlns="http://www.w3.org/2000/svg" xmlns:xlink="http://www.w3.org/1999/xlink">
        <path d="M12,3 C16.9690141,3 21,7.03098592 21,12 C21,16.9690141 16.9690141,21 12,21 C7.03098592,21 3,16.9690141 3,12 C3,7.03098592 7.03098592,3 12,3 Z M12,4.49577465 C7.84225352,4.49577465 4.49577465,7.86760563 4.49577465,12 C4.49577465,16.1323944 7.84225352,19.5042254 12,19.5042254 C16.1577465,19.5042254 19.5042254,16.1577465 19.5042254,12 C19.5042254,7.86760563 16.1577465,4.49577465 12,4.49577465 Z M12,4.90140845 C15.849382,4.90140845 18.9689273,7.96672279 19.0946524,11.7618739 L19.0985915,12 L19.0946524,12.2396156 C18.9689273,16.0576051 15.849382,19.0985915 12,19.0985915 C8.07042254,19.0985915 4.90140845,15.9295775 4.90140845,12 C4.90140845,8.07042254 8.07042254,4.90140845 12,4.90140845 Z M12.7605634,6.32112676 L11.2394366,6.32112676 L11.2394366,7.81690141 L8.78028169,7.81690141 L8.78028169,9.64225352 L12.5830986,9.64225352 L8.78028169,14.7887324 L8.78028169,16.1830986 L11.2394366,16.1830986 L11.2394366,17.6788732 L12.7605634,17.6788732 L12.7605634,16.1830986 L15.2197183,16.1830986 L15.2197183,14.3577465 L11.4169014,14.3577465 L15.2197183,9.18591549 L15.2197183,7.81690141 L12.7605634,7.81690141 L12.7605634,6.32112676 Z" id="Combined-Shape" fill-rule="nonzero"></path>
</svg>