<svg width="274" height="274" viewBox="0 0 274 274" fill="none" xmlns="http://www.w3.org/2000/svg">
  <path fill-rule="evenodd" clip-rule="evenodd" d="M27.8719 204.93C29.9769 208.355 32.2387 211.674 34.6471 214.875L50.3708 205.797C47.897 202.641 45.592 199.345 43.4693 195.925L27.8719 204.93ZM233.936 85.9595C235.831 89.4833 237.54 93.1222 239.05 96.8632L254.775 87.7846C253.194 84.0815 251.443 80.4682 249.533 76.9543L233.936 85.9595ZM243.312 66.6897L227.68 75.7149C225.387 72.3832 222.915 69.1841 220.279 66.1316L236.109 56.9917C238.657 60.1055 241.062 63.3415 243.312 66.6897ZM37.7063 185.396L22.074 194.421C20.3029 190.821 18.696 187.124 17.2631 183.343L33.096 174.202C34.4311 178.034 35.9723 181.77 37.7063 185.396ZM10.5647 117.928C11.4191 112.503 12.6144 107.191 14.1278 102.014L39.2446 87.5132C36.2607 93.2791 33.7719 99.3427 31.8346 105.648L10.5647 117.928ZM55.2176 64.4348C70.5136 47.4412 91.0303 35.2401 114.242 30.3571L148.603 10.5188C144.781 10.1754 140.911 10 137 10C85.4741 10 41.0591 40.445 20.7626 84.3274L55.2176 64.4348ZM161.558 30.7517C155.268 29.3172 148.772 28.4219 142.122 28.1171L167.267 13.5995C172.6 14.8926 177.803 16.5197 182.852 18.4576L161.558 30.7517ZM116.832 264.42C123.402 265.46 130.138 266 137 266C191.58 266 238.181 231.839 256.589 183.732L227.522 200.513C209.253 226.918 179.729 244.941 145.885 247.646L116.832 264.42ZM238.585 180.269L261.721 166.912C262.877 161.905 263.739 156.786 264.289 151.574L244.092 163.234C242.713 169.108 240.864 174.8 238.585 180.269ZM122.837 247.097L99.6715 260.471C94.6737 258.95 89.8055 257.131 85.0876 255.035L105.302 243.364C110.969 245.067 116.827 246.324 122.837 247.097ZM13.4754 171.673C12.381 167.649 11.478 163.546 10.7767 159.375L27.6102 149.656C28.0627 153.952 28.7625 158.174 29.695 162.309L13.4754 171.673ZM211.683 57.2378C208.548 54.3376 205.245 51.6176 201.788 49.0944L218.607 39.3838C221.841 42.0629 224.941 44.898 227.895 47.8776L211.683 57.2378ZM190.404 41.8105L208.137 31.5721C204.335 29.0256 200.389 26.6774 196.313 24.5424L177.2 35.5772C181.758 37.3674 186.167 39.453 190.404 41.8105ZM9.27045 146.388L27.0154 136.143C27.0971 131.207 27.5038 126.351 28.2152 121.594L9.11086 132.624C9.0372 134.407 9 136.199 9 138C9 140.818 9.09108 143.615 9.27045 146.388ZM61.1704 241.131C64.7681 243.781 68.5095 246.247 72.3807 248.515L90.8232 237.868C86.5471 235.887 82.4197 233.64 78.4622 231.148L61.1704 241.131ZM246.924 133.886C246.975 135.251 247 136.623 247 138C247 141.356 246.85 144.676 246.556 147.955L264.998 137.308C264.974 132.777 264.715 128.302 264.232 123.894L246.924 133.886ZM262.193 111.214L245.657 120.761C244.998 116.574 244.103 112.464 242.985 108.448L259.012 99.1945C260.26 103.122 261.324 107.132 262.193 111.214ZM67.7539 223.474L51.2295 233.014C48.1527 230.235 45.2115 227.308 42.4171 224.246L58.4394 214.995C61.3791 217.994 64.4891 220.826 67.7539 223.474Z" fill="#B3BDC7"/>
  <circle cx="136.603" cy="136.603" r="100" transform="rotate(30 136.603 136.603)" fill="#F7931A"/>
  <circle cx="136.762" cy="136.537" r="86.775" transform="rotate(30 136.762 136.537)" fill="white"/>
  <path d="M158.172 122.331C155.017 134.692 135.955 128.295 129.774 126.717L135.358 104.843C141.539 106.421 161.464 109.423 158.172 122.331ZM154.575 157.646C151.113 171.244 128.23 163.751 120.795 161.856L127.027 137.782C134.435 139.684 158.273 143.487 154.646 157.684L154.575 157.646ZM179.91 122.687C181.986 109.392 171.893 102.204 158.074 97.333L162.669 79.3376L151.704 76.5303L147.225 94.0598C144.359 93.3241 141.4 92.6303 138.46 91.9462L142.861 74.3054L131.934 71.4723L127.348 89.45C124.954 88.903 122.615 88.3399 120.348 87.7704L105.245 83.9014L102.258 95.6179C102.258 95.6179 110.416 97.538 110.195 97.6475C113.355 98.0402 115.617 100.892 115.281 104.058L110.127 124.511C110.513 124.609 110.892 124.731 111.262 124.877L110.107 124.591L102.714 153.279C102.013 155.386 99.7438 156.531 97.6324 155.845C97.792 155.932 89.6779 153.806 89.6779 153.806L84.1578 166.326L98.4193 169.966L106.267 171.947L101.638 190.131L112.585 192.929L117.096 175.003C119.987 175.821 122.907 176.585 125.818 177.323L121.234 195.255L132.181 198.053L136.846 179.888C155.563 183.543 169.606 182.186 175.617 165.308C180.444 151.696 175.527 143.836 165.742 138.657C172.923 137.053 178.369 132.385 179.839 122.648L179.91 122.687ZM236.875 137.225C236.661 177.678 212.092 214.015 174.629 229.283C137.166 244.551 94.1915 235.742 65.7546 206.965C37.3178 178.188 29.0217 135.114 44.7369 97.8385C60.4521 60.5627 97.0817 36.4302 137.537 36.6995C192.712 37.0668 237.167 82.0528 236.875 137.225Z" fill="#F7931A"/>
</svg>
