<svg width="256" height="256" viewBox="0 0 256 256" fill="none" xmlns="http://www.w3.org/2000/svg">
<path fill-rule="evenodd" clip-rule="evenodd" d="M18.8719 194.93C20.9769 198.355 23.2387 201.674 25.6471 204.875L41.3708 195.797C38.897 192.641 36.592 189.345 34.4693 185.925L18.8719 194.93ZM224.936 75.9595C226.831 79.4833 228.54 83.1222 230.05 86.8632L245.775 77.7846C244.194 74.0815 242.443 70.4682 240.533 66.9543L224.936 75.9595ZM234.312 56.6897L218.68 65.7149C216.387 62.3832 213.915 59.1841 211.279 56.1316L227.109 46.9917C229.657 50.1055 232.062 53.3415 234.312 56.6897ZM28.7063 175.396L13.074 184.421C11.3029 180.821 9.69602 177.124 8.26315 173.343L24.096 164.202C25.4311 168.034 26.9723 171.77 28.7063 175.396ZM1.56467 107.928C2.41911 102.503 3.61437 97.1906 5.12784 92.0143L30.2446 77.5132C27.2607 83.2791 24.7719 89.3427 22.8346 95.6477L1.56467 107.928ZM46.2176 54.4348C61.5136 37.4412 82.0303 25.2401 105.242 20.3571L139.603 0.518788C135.781 0.175408 131.911 0 128 0C76.4741 0 32.0591 30.445 11.7626 74.3274L46.2176 54.4348ZM152.558 20.7517C146.268 19.3172 139.772 18.4219 133.122 18.1171L158.267 3.59946C163.6 4.89255 168.803 6.51972 173.852 8.45756L152.558 20.7517ZM107.832 254.42C114.402 255.46 121.138 256 128 256C182.58 256 229.181 221.839 247.589 173.732L218.522 190.513C200.253 216.918 170.729 234.941 136.885 237.646L107.832 254.42ZM229.585 170.269L252.721 156.912C253.877 151.905 254.739 146.786 255.289 141.574L235.092 153.234C233.713 159.108 231.864 164.8 229.585 170.269ZM113.837 237.097L90.6715 250.471C85.6737 248.95 80.8055 247.131 76.0876 245.035L96.3025 233.364C101.969 235.067 107.827 236.324 113.837 237.097ZM4.47535 161.673C3.38097 157.649 2.47797 153.546 1.77673 149.375L18.6102 139.656C19.0627 143.952 19.7625 148.174 20.695 152.309L4.47535 161.673ZM202.683 47.2378C199.548 44.3376 196.245 41.6176 192.788 39.0944L209.607 29.3838C212.841 32.0629 215.941 34.898 218.895 37.8776L202.683 47.2378ZM181.404 31.8105L199.137 21.5721C195.335 19.0256 191.389 16.6774 187.313 14.5424L168.2 25.5772C172.758 27.3674 177.167 29.453 181.404 31.8105ZM0.270447 136.388L18.0154 126.143C18.0971 121.207 18.5038 116.351 19.2152 111.594L0.110865 122.624C0.0371971 124.407 0 126.199 0 128C0 130.818 0.0910766 133.615 0.270447 136.388ZM52.1704 231.131C55.7681 233.781 59.5095 236.247 63.3807 238.515L81.8232 227.868C77.5471 225.887 73.4197 223.64 69.4622 221.148L52.1704 231.131ZM237.924 123.886C237.975 125.251 238 126.623 238 128C238 131.356 237.85 134.676 237.556 137.955L255.998 127.308C255.974 122.777 255.715 118.302 255.232 113.894L237.924 123.886ZM253.193 101.214L236.657 110.761C235.998 106.574 235.103 102.464 233.985 98.4477L250.012 89.1945C251.26 93.1223 252.324 97.1323 253.193 101.214ZM58.7539 213.474L42.2295 223.014C39.1527 220.235 36.2115 217.308 33.4171 214.246L49.4394 204.995C52.3791 207.994 55.4891 210.826 58.7539 213.474Z" fill="#B3BDC7"/>
<path fill-rule="evenodd" clip-rule="evenodd" d="M227.048 114.152C223.508 105.974 223.508 105.974 128.653 71.7068C80.9051 54.4619 72.0453 37.8117 106.603 30.2759C108.287 29.9102 109.983 29.5893 111.696 29.3091C116.98 28.4492 122.404 28 127.932 28C178.5 28 220.301 65.4801 227.048 114.152Z" fill="#F9D85E"/>
<path fill-rule="evenodd" clip-rule="evenodd" d="M227.031 114.112C224.274 107.742 223.572 106.321 178.011 89.6091C187.637 113.949 204.601 126.974 226.744 143.883C227.57 138.711 228 133.406 228 127.998C228 123.286 227.664 118.651 227.031 114.112Z" fill="#EF7730"/>
<path fill-rule="evenodd" clip-rule="evenodd" d="M137.612 152.99C94.0803 133.534 66.9124 94.0472 65.3274 54.3062C65.259 52.6292 63.2654 51.7949 62.0034 52.903C40.9617 71.3992 27.7532 98.5798 28.0035 128.843C28.4484 182.725 72.2215 226.96 126.142 227.983C169.68 228.804 207.027 201.846 221.618 163.651C222.195 162.143 220.854 160.584 219.286 160.977C193.924 167.356 164.97 165.219 137.612 152.99Z" fill="#F9D85E"/>
</svg>
